<svg width="23" height="22" viewBox="0 0 23 22" fill="none" xmlns="http://www.w3.org/2000/svg">
<g id="Group">
<path id="Vector" d="M21.02 10C20.47 10 20.02 10.45 20.02 11C20.02 15.96 15.98 20 11.02 20C6.06003 20 2.02003 15.96 2.02003 11C2.02003 6.04 6.06003 2 11.02 2C12.4 2 13.72 2.3 14.95 2.9C15.45 3.14 16.05 2.93 16.29 2.44C16.53 1.94 16.32 1.34 15.83 1.1C14.33 0.37 12.71 0 11.03 0C4.96003 0 0.0300293 4.93 0.0300293 11C0.0300293 17.07 4.96003 22 11.03 22C17.1 22 22.03 17.07 22.03 11C22.03 10.45 21.58 10 21.03 10H21.02Z" fill="#01FF1A"/>
<path id="Vector_2" d="M8.73002 9.29C8.34002 8.9 7.71003 8.9 7.32003 9.29C6.93003 9.68 6.93003 10.31 7.32003 10.7L10.32 13.7C10.52 13.9 10.77 13.99 11.03 13.99C11.29 13.99 11.54 13.89 11.74 13.7L21.74 3.7C22.13 3.31 22.13 2.68 21.74 2.29C21.35 1.9 20.72 1.9 20.33 2.29L11.04 11.58L8.75003 9.29H8.73002Z" fill="#01FF1A"/>
</g>
</svg>
