<svg width="20" height="20" viewBox="0 0 20 20" fill="none" xmlns="http://www.w3.org/2000/svg">
<g id="Group">
<path id="Vector" d="M18.3332 9.16683C17.8749 9.16683 17.4999 9.54183 17.4999 10.0002C17.4999 14.1335 14.1332 17.5002 9.99989 17.5002C5.86655 17.5002 2.49989 14.1335 2.49989 10.0002C2.49989 5.86683 5.86655 2.50016 9.99989 2.50016C11.1499 2.50016 12.2499 2.75016 13.2749 3.25016C13.6916 3.45016 14.1916 3.27516 14.3916 2.86683C14.5916 2.45016 14.4166 1.95016 14.0082 1.75016C12.7582 1.14183 11.4082 0.833496 10.0082 0.833496C4.94989 0.833496 0.841553 4.94183 0.841553 10.0002C0.841553 15.0585 4.94989 19.1668 10.0082 19.1668C15.0666 19.1668 19.1749 15.0585 19.1749 10.0002C19.1749 9.54183 18.7999 9.16683 18.3416 9.16683H18.3332Z" fill="#98A2B3"/>
<path id="Vector_2" d="M8.0916 8.57513C7.7666 8.25013 7.2416 8.25013 6.9166 8.57513C6.5916 8.90013 6.5916 9.42513 6.9166 9.75013L9.4166 12.2501C9.58327 12.4168 9.7916 12.4918 10.0083 12.4918C10.2249 12.4918 10.4333 12.4085 10.5999 12.2501L18.9333 3.9168C19.2583 3.5918 19.2583 3.0668 18.9333 2.7418C18.6083 2.4168 18.0833 2.4168 17.7583 2.7418L10.0166 10.4835L8.10827 8.57513H8.0916Z" fill="#98A2B3"/>
</g>
</svg>
