<svg width="131" height="30" viewBox="0 0 131 30" fill="none" xmlns="http://www.w3.org/2000/svg">
<path d="M0.30375 21.384C0.30375 20.7013 0.485083 20.1573 0.84775 19.752C1.21042 19.3467 1.70108 19.144 2.31975 19.144H7.02375C7.51442 19.144 7.91975 19.3147 8.23975 19.656C8.58108 19.9973 8.87975 20.5733 9.13575 21.384C9.28508 21.832 9.60508 22.0773 10.0958 22.12H11.4078C11.8131 22.12 12.0904 21.992 12.2398 21.736C12.4104 21.4587 12.4958 21.0747 12.4958 20.584V20.552C12.4958 20.2107 12.4104 19.8907 12.2398 19.592C12.0691 19.2933 11.8131 19.08 11.4718 18.952L3.88775 15.784C2.79975 15.3573 1.92508 14.6747 1.26375 13.736C0.62375 12.7973 0.30375 11.592 0.30375 10.12V7.368C0.30375 5.10667 0.869083 3.4 1.99975 2.248C3.13042 1.096 4.68775 0.519999 6.67175 0.519999H14.8318C16.8371 0.519999 18.3944 1.096 19.5038 2.248C20.6344 3.4 21.1998 5.10667 21.1998 7.368V8.712C21.1998 9.39467 21.0184 9.93867 20.6558 10.344C20.2931 10.7493 19.8024 10.952 19.1838 10.952H14.5118C13.3384 10.952 12.6558 10.2053 12.4638 8.712C12.3571 8.008 12.0051 7.656 11.4078 7.656H10.0958C9.71175 7.656 9.43442 7.79467 9.26375 8.072C9.11442 8.328 9.03975 8.70133 9.03975 9.192V9.224C9.03975 10.2693 9.43442 10.9307 10.2238 11.208L17.6158 13.992C18.1918 14.2053 18.6931 14.504 19.1198 14.888C19.5678 15.2507 19.9411 15.6667 20.2398 16.136C20.5598 16.6053 20.7944 17.1173 20.9438 17.672C21.0931 18.2053 21.1678 18.7387 21.1678 19.272L21.1998 22.408C21.1998 24.6693 20.6344 26.376 19.5038 27.528C18.3944 28.68 16.8371 29.256 14.8318 29.256H6.67175C4.68775 29.256 3.13042 28.68 1.99975 27.528C0.869083 26.376 0.30375 24.6693 0.30375 22.408V21.384ZM33.0683 26.856C33.0683 27.5387 32.8869 28.0827 32.5243 28.488C32.1616 28.8933 31.6709 29.096 31.0523 29.096H25.2603C24.6416 29.096 24.1509 28.8933 23.7883 28.488C23.4256 28.0827 23.2443 27.5387 23.2443 26.856V2.92C23.2443 2.23733 23.4256 1.69333 23.7883 1.288C24.1509 0.882665 24.6416 0.679998 25.2603 0.679998H31.0523C31.6709 0.679998 32.1616 0.882665 32.5243 1.288C32.8869 1.69333 33.0683 2.23733 33.0683 2.92V26.856ZM37.2603 29.096C36.6416 29.096 36.1509 28.8933 35.7883 28.488C35.4256 28.0827 35.2443 27.5387 35.2443 26.856V2.92C35.2443 2.23733 35.4256 1.69333 35.7883 1.288C36.1509 0.882665 36.6416 0.679998 37.2603 0.679998H49.2923C50.2736 0.679998 51.1696 0.829332 51.9803 1.128C52.8123 1.42666 53.5163 1.864 54.0923 2.44C54.6896 3.016 55.1483 3.73067 55.4683 4.584C55.8096 5.43733 55.9803 6.41867 55.9803 7.528V22.248C55.9803 23.3787 55.8096 24.3707 55.4683 25.224C55.1483 26.0773 54.6896 26.792 54.0923 27.368C53.5163 27.944 52.8123 28.3707 51.9803 28.648C51.1696 28.9467 50.2736 29.096 49.2923 29.096H37.2603ZM45.9003 21.32C46.3056 21.32 46.6043 21.192 46.7963 20.936C47.0096 20.6587 47.1589 20.2747 47.2443 19.784C47.3723 19.0587 47.4683 18.28 47.5323 17.448C47.5963 16.5947 47.6283 15.7413 47.6283 14.888C47.6283 14.0347 47.5963 13.192 47.5323 12.36C47.4683 11.528 47.3723 10.7387 47.2443 9.992C47.1376 9.50133 46.9883 9.128 46.7963 8.872C46.6043 8.59467 46.3056 8.456 45.9003 8.456H43.9483C44.3323 10.6107 44.5136 12.7547 44.4923 14.888C44.4923 17.0213 44.3109 19.1653 43.9483 21.32H45.9003ZM76.7775 26.856C76.7775 27.5387 76.5962 28.0827 76.2335 28.488C75.8708 28.8933 75.3802 29.096 74.7615 29.096H60.0415C59.4228 29.096 58.9322 28.8933 58.5695 28.488C58.2068 28.0827 58.0255 27.5387 58.0255 26.856V2.92C58.0255 2.23733 58.2068 1.69333 58.5695 1.288C58.9322 0.882665 59.4228 0.679998 60.0415 0.679998H74.7615C75.3802 0.679998 75.8708 0.882665 76.2335 1.288C76.5962 1.69333 76.7775 2.23733 76.7775 2.92V6.184C76.7775 6.86667 76.5962 7.38933 76.2335 7.752C75.8708 8.09333 75.3802 8.31733 74.7615 8.424C73.5028 8.65867 72.2548 8.76533 71.0175 8.744C69.7802 8.72267 68.5322 8.616 67.2735 8.424V11.08C69.7695 11.6987 72.2655 11.6987 74.7615 11.08C75.0602 11.016 75.3268 11.0373 75.5615 11.144C75.8175 11.2293 76.0308 11.3787 76.2015 11.592C76.3935 11.8053 76.5322 12.0613 76.6175 12.36C76.7242 12.6587 76.7775 12.9787 76.7775 13.32V16.264C76.7775 16.9467 76.5855 17.4587 76.2015 17.8C75.8388 18.1413 75.3588 18.376 74.7615 18.504C73.4815 18.8027 72.2228 18.9413 70.9855 18.92C69.7695 18.8987 68.5322 18.76 67.2735 18.504V21.352C68.5322 21.6507 69.7802 21.8 71.0175 21.8C72.2548 21.8 73.5028 21.6507 74.7615 21.352C75.0602 21.288 75.3268 21.3093 75.5615 21.416C75.8175 21.5013 76.0308 21.6507 76.2015 21.864C76.3935 22.0773 76.5322 22.3333 76.6175 22.632C76.7242 22.9307 76.7775 23.2507 76.7775 23.592V26.856ZM107.606 8.232C107.606 8.91467 107.425 9.45867 107.062 9.864C106.699 10.2693 106.209 10.472 105.59 10.472H101.27C100.929 10.472 100.662 10.376 100.47 10.184C100.278 9.97067 100.097 9.736 99.926 9.48C99.7553 9.20267 99.574 8.92533 99.382 8.648C99.2113 8.37067 98.9767 8.168 98.678 8.04C98.614 8.01867 98.55 8.008 98.486 8.008C98.4433 7.98667 98.3793 7.976 98.294 7.976H96.342C95.958 7.976 95.6807 8.11467 95.51 8.392C95.3607 8.648 95.286 9.02133 95.286 9.512V20.264C95.286 20.7547 95.3607 21.1387 95.51 21.416C95.6807 21.672 95.958 21.8 96.342 21.8H97.974C98.678 21.7787 99.03 21.2667 99.03 20.264V18.344H98.678C98.0807 18.344 97.59 18.1413 97.206 17.736C96.8433 17.3307 96.662 16.7867 96.662 16.104V14.408C96.662 13.7253 96.8433 13.1813 97.206 12.776C97.59 12.3707 98.0807 12.168 98.678 12.168H105.59C106.209 12.168 106.699 12.3707 107.062 12.776C107.425 13.1813 107.606 13.7253 107.606 14.408V22.408C107.606 24.6693 107.041 26.376 105.91 27.528C104.801 28.68 103.243 29.256 101.238 29.256H93.078C91.094 29.256 89.5367 28.68 88.406 27.528C87.2753 26.376 86.71 24.6693 86.71 22.408V7.368C86.71 5.10667 87.2753 3.4 88.406 2.248C89.5367 1.096 91.094 0.519999 93.078 0.519999H101.238C103.243 0.519999 104.801 1.096 105.91 2.248C107.041 3.4 107.606 5.10667 107.606 7.368V8.232ZM130.707 22.408C130.707 24.6693 130.141 26.376 129.011 27.528C127.901 28.68 126.355 29.256 124.371 29.256H115.891C113.907 29.256 112.349 28.68 111.219 27.528C110.088 26.376 109.523 24.6693 109.523 22.408V7.368C109.523 5.10667 110.088 3.4 111.219 2.248C112.349 1.096 113.907 0.519999 115.891 0.519999H124.371C126.355 0.519999 127.901 1.096 129.011 2.248C130.141 3.4 130.707 5.10667 130.707 7.368V22.408ZM121.171 21.48C121.683 19.3893 121.949 17.224 121.971 14.984C122.013 12.7227 121.789 10.4933 121.299 8.296H118.643C119.133 10.4507 119.368 12.6587 119.347 14.92C119.325 17.1813 119.091 19.368 118.643 21.48H121.171Z" fill="#01FF1A"/>
</svg>
