<svg xmlns="http://www.w3.org/2000/svg" width="60" height="34" viewBox="0 0 60 34" fill="none">
  <g clip-path="url(#clip0_33_38)">
    <path d="M43.7541 6.48663C44.7316 7.41101 45.3425 8.7179 45.3425 10.1682C45.3425 12.9679 43.0688 15.2417 40.2691 15.2417C37.4693 15.2417 35.1956 12.9679 35.1956 10.1682C35.1956 7.36851 37.3047 5.25412 39.9609 5.09474H49.8635L53.0351 2.54471L49.8635 0H40.2691C34.6537 0 30.1008 4.55286 30.1008 10.1682C30.1008 15.7836 34.6537 20.3365 40.2691 20.3365C45.8844 20.3365 50.4373 15.7836 50.4373 10.1682C50.4373 8.86665 50.1929 7.62883 49.7467 6.48663H43.7488H43.7541Z" fill="#01FF1A"/>
    <path d="M17.6536 20.2037V22.8227H27.0568C27.5615 22.8227 27.8112 23.0618 27.8112 23.5399V32.906C27.8112 33.3841 27.5615 33.6232 27.0568 33.6232H1.25376C0.74907 33.6232 0.49938 33.3841 0.49938 32.906V23.5771C0.49938 23.0724 0.738445 22.8227 1.21658 22.8227H10.6889V20.2037H0.754383C0.24969 20.2037 0 19.954 0 19.4493V16.4371C0 15.9589 0.24969 15.7199 0.754383 15.7199H5.88631C6.19444 14.9549 6.44413 14.0623 6.61944 13.0476C6.79476 12.0329 6.91163 11.1139 6.95945 10.3011H1.1847C0.70657 10.3011 0.467505 10.0514 0.467505 9.54667L0.504693 5.63663C0.504693 5.1585 0.743758 4.91944 1.22189 4.91944H12.7395C13.2442 4.91944 13.4939 5.1585 13.4939 5.63663L13.5311 9.22261C13.5311 9.70074 13.4939 10.2161 13.4248 10.7632C13.3558 11.3158 13.2654 11.8736 13.1539 12.4473C13.0476 13.0211 12.9148 13.5895 12.7608 14.1527C12.6067 14.7158 12.442 15.2364 12.2773 15.7145H20.1346C20.4427 14.9017 20.6712 13.9986 20.8146 13.0051C20.958 12.0117 21.0537 11.1086 21.1015 10.2957H15.5392C15.0611 10.2957 14.822 10.0461 14.822 9.54136L14.8592 5.63132C14.8592 5.15319 15.0983 4.91412 15.5764 4.91412H27.025C27.5297 4.91412 27.7794 5.15319 27.7794 5.63132L27.5987 10.4764C27.5509 11.2201 27.4447 12.0754 27.2747 13.0423C27.1047 14.0092 26.9187 14.9017 26.7009 15.7145H27.5615C28.0662 15.7145 28.3159 15.9536 28.3159 16.4317V19.444C28.3159 19.9487 28.0662 20.1983 27.5615 20.1983H17.6589L17.6536 20.2037ZM7.14007 26.8762V29.5697H21.2077V26.8762H7.14007Z" fill="#01FF1A"/>
    <path d="M32.0454 28.9587C32.0454 28.4806 32.295 28.2415 32.7997 28.2415H38.686L42.9202 23.6834C43.1858 23.4443 43.5311 23.3274 43.9614 23.3274H50.5277C50.8146 23.3274 50.9952 23.4337 51.0643 23.6515C51.1334 23.8693 51.0643 24.0712 50.8465 24.2624L42.5217 33.2672C42.2561 33.5063 41.9108 33.6232 41.4805 33.6232H32.7944C32.2897 33.6232 32.04 33.3841 32.04 32.906V28.9587H32.0454Z" fill="#01FF1A"/>
    <path d="M47.2924 30.7863C46.9364 30.4781 46.9205 30.1275 47.2552 29.745L50.5915 26.1218C50.9262 25.7871 51.2715 25.7871 51.6327 26.1218L53.9649 28.2415H59.2403C59.745 28.2415 59.9947 28.4806 59.9947 28.9587V32.906C59.9947 33.3841 59.745 33.6232 59.2403 33.6232H51.059C50.8412 33.6232 50.6605 33.5913 50.5012 33.5329C50.3471 33.4744 50.1824 33.3841 50.0177 33.2619L47.2924 30.7863Z" fill="#01FF1A"/>
    <path d="M53.6089 23.7524C53.1042 23.7524 52.8545 23.5134 52.8545 23.0352V5.27538C52.8545 4.77069 53.1042 4.521 53.6089 4.521H58.7408C59.2455 4.521 59.4952 4.77069 59.4952 5.27538V23.0352C59.4952 23.5134 59.2455 23.7524 58.7408 23.7524H53.6089Z" fill="#01FF1A"/>
  </g>
  <defs>
    <clipPath id="clip0_33_38">
      <rect width="60" height="33.6232" fill="white"/>
    </clipPath>
  </defs>
</svg>