<svg width="169" height="37" viewBox="0 0 169 37" fill="none" xmlns="http://www.w3.org/2000/svg">
<path d="M21.48 33.32C21.48 34.1733 21.24 34.8533 20.76 35.36C20.3067 35.8667 19.7067 36.0533 18.96 35.92C17.1733 35.6267 15.5733 35.0667 14.16 34.24C12.7467 33.44 11.68 32.44 10.96 31.24C10.32 32.4667 9.28 33.48 7.84 34.28C6.42667 35.1067 4.81333 35.6533 3 35.92C2.28 36.0533 1.68 35.8667 1.2 35.36C0.746667 34.8533 0.52 34.1733 0.52 33.32V27.44C0.52 26.8 0.693333 26.2 1.04 25.64C1.41333 25.0533 2.02667 24.3867 2.88 23.64C3.49333 23.1067 3.94667 22.3467 4.24 21.36C4.53333 20.3467 4.68 19.0267 4.68 17.4V3.4C4.68 2.54666 4.90667 1.86666 5.36 1.36C5.81333 0.853331 6.42667 0.599998 7.2 0.599998H14.8C15.5733 0.599998 16.1867 0.853331 16.64 1.36C17.0933 1.86666 17.32 2.54666 17.32 3.4V17.4C17.32 19.0267 17.4667 20.3467 17.76 21.36C18.0533 22.3467 18.5067 23.1067 19.12 23.64C19.9733 24.3867 20.5733 25.0533 20.92 25.64C21.2933 26.2 21.48 26.8 21.48 27.44V33.32ZM33.88 33.32C33.88 34.1733 33.6533 34.8533 33.2 35.36C32.7467 35.8667 32.1333 36.12 31.36 36.12H25C24.2267 36.12 23.6133 35.8667 23.16 35.36C22.7067 34.8533 22.48 34.1733 22.48 33.32V3.4C22.48 2.54666 22.7067 1.86666 23.16 1.36C23.6133 0.853331 24.2267 0.599998 25 0.599998H31.36C32.1333 0.599998 32.7467 0.853331 33.2 1.36C33.6533 1.86666 33.88 2.54666 33.88 3.4V11.44C33.88 11.8667 34 12.2 34.24 12.44C34.5067 12.68 34.8 12.9067 35.12 13.12C35.44 13.3067 35.72 13.52 35.96 13.76C36.2267 13.9733 36.36 14.2933 36.36 14.72V20.8C36.36 21.2267 36.2267 21.56 35.96 21.8C35.72 22.04 35.44 22.2667 35.12 22.48C34.8 22.6667 34.5067 22.88 34.24 23.12C34 23.3333 33.88 23.6533 33.88 24.08V33.32ZM70.7756 33.32C70.7756 34.1733 70.549 34.8533 70.0956 35.36C69.6423 35.8667 69.029 36.12 68.2556 36.12H62.8156C62.0423 36.12 61.429 35.8667 60.9756 35.36C60.5223 34.8533 60.2956 34.1733 60.2956 33.32V3.4C60.2956 2.54666 60.5223 1.86666 60.9756 1.36C61.429 0.853331 62.0423 0.599998 62.8156 0.599998H68.2556C69.029 0.599998 69.6423 0.853331 70.0956 1.36C70.549 1.86666 70.7756 2.54666 70.7756 3.4V33.32ZM59.2156 27.8C59.1623 28.8133 58.989 29.8 58.6956 30.76C58.4023 31.72 57.9756 32.5867 57.4156 33.36C56.8556 34.1333 56.1623 34.76 55.3356 35.24C54.5356 35.7467 53.6156 36.04 52.5756 36.12C51.7756 36.1733 51.0423 36.2133 50.3756 36.24C49.709 36.2933 49.0556 36.32 48.4156 36.32C47.8023 36.32 47.1623 36.2933 46.4956 36.24C45.829 36.2133 45.0956 36.1733 44.2956 36.12C43.229 36.04 42.269 35.7467 41.4156 35.24C40.5623 34.76 39.829 34.1333 39.2156 33.36C38.629 32.5867 38.1623 31.72 37.8156 30.76C37.469 29.8 37.2823 28.8133 37.2556 27.8C37.1756 25.8 37.109 24.0667 37.0556 22.6C37.0023 21.1333 36.9756 19.72 36.9756 18.36C36.9756 17 37.0023 15.5867 37.0556 14.12C37.109 12.6533 37.1756 10.92 37.2556 8.92C37.2823 7.90667 37.469 6.92 37.8156 5.96C38.1623 5 38.629 4.13333 39.2156 3.36C39.829 2.58667 40.5623 1.96 41.4156 1.48C42.269 0.973332 43.229 0.679999 44.2956 0.599998C45.0956 0.546665 45.829 0.506666 46.4956 0.48C47.1623 0.453332 47.8023 0.439998 48.4156 0.439998C49.0556 0.439998 49.709 0.453332 50.3756 0.48C51.0423 0.506666 51.7756 0.546665 52.5756 0.599998C53.6156 0.679999 54.5356 0.973332 55.3356 1.48C56.1623 1.96 56.8556 2.58667 57.4156 3.36C57.9756 4.10666 58.4023 4.96 58.6956 5.92C58.989 6.88 59.1623 7.88 59.2156 8.92C59.2956 10.92 59.3623 12.6533 59.4156 14.12C59.469 15.5867 59.4956 17 59.4956 18.36C59.4956 19.72 59.469 21.1333 59.4156 22.6C59.3623 24.0667 59.2956 25.8 59.2156 27.8ZM48.8156 26.84C49.2156 24.12 49.4156 21.2933 49.4156 18.36C49.4156 15.4267 49.2156 12.6 48.8156 9.88H47.6556C48.029 12.6 48.2156 15.4267 48.2156 18.36C48.2156 21.2933 48.029 24.12 47.6556 26.84H48.8156ZM106.791 33.32C106.791 34.1733 106.565 34.8533 106.111 35.36C105.658 35.8667 105.045 36.12 104.271 36.12H75.7913C75.0179 36.12 74.4046 35.8667 73.9513 35.36C73.4979 34.8533 73.2713 34.1733 73.2713 33.32V28.44C73.2713 27.5867 73.4979 26.9067 73.9513 26.4C74.4046 25.8933 75.0179 25.64 75.7913 25.64H104.271C105.045 25.64 105.658 25.8933 106.111 26.4C106.565 26.9067 106.791 27.5867 106.791 28.44V33.32ZM106.791 21.16C106.791 22.0133 106.565 22.6933 106.111 23.2C105.658 23.7067 105.045 23.96 104.271 23.96H75.7913C75.0179 23.96 74.4046 23.7067 73.9513 23.2C73.4979 22.6933 73.2713 22.0133 73.2713 21.16V3.4C73.2713 2.54666 73.4979 1.86666 73.9513 1.36C74.4046 0.853331 75.0179 0.599998 75.7913 0.599998H104.271C105.045 0.599998 105.658 0.853331 106.111 1.36C106.565 1.86666 106.791 2.54666 106.791 3.4V8.48C106.791 9.33333 106.565 10.04 106.111 10.6C105.658 11.16 105.058 11.4667 104.311 11.52C102.685 11.6533 101.098 11.76 99.5513 11.84C98.0046 11.8933 96.4579 11.9067 94.9113 11.88C93.3646 11.8533 91.8046 11.8 90.2313 11.72C88.6579 11.6133 87.0313 11.4667 85.3513 11.28V13.28C87.0313 13.4667 88.6579 13.6133 90.2313 13.72C91.8046 13.8 93.3646 13.8533 94.9113 13.88C96.4579 13.9067 98.0046 13.8933 99.5513 13.84C101.098 13.76 102.685 13.6533 104.311 13.52C105.058 13.4667 105.658 13.6667 106.111 14.12C106.565 14.5733 106.791 15.2267 106.791 16.08V21.16ZM141.007 29.48C141.007 30.3333 140.78 31.0133 140.327 31.52C139.874 32.0267 139.26 32.28 138.487 32.28H129.607C128.834 32.28 128.22 32.0267 127.767 31.52C127.314 31.0133 127.087 30.3333 127.087 29.48V15.08H113.607C112.834 15.08 112.22 14.8267 111.767 14.32C111.314 13.8133 111.087 13.1333 111.087 12.28V6.6C111.087 5.74667 111.314 5.06667 111.767 4.56C112.22 4.05333 112.834 3.8 113.607 3.8H138.487C139.26 3.8 139.874 4.05333 140.327 4.56C140.78 5.06667 141.007 5.74667 141.007 6.6V29.48ZM163.263 21.08C162.489 21.88 161.783 22.5067 161.143 22.96C160.503 23.4133 160.023 23.64 159.703 23.64H153.343C152.516 23.64 151.863 23.3733 151.383 22.84C150.929 22.28 150.769 21.6133 150.903 20.84C150.983 20.36 151.143 19.8533 151.383 19.32C151.623 18.76 152.049 18.2133 152.663 17.68L156.463 14.4C156.809 13.9733 157.143 13.5067 157.463 13C157.809 12.4933 157.983 11.92 157.983 11.28V10.52C157.983 9.72 157.649 9.32 156.983 9.32H156.783C156.143 9.32 155.822 9.72 155.822 10.52V10.64C155.822 11.4933 155.583 12.1733 155.103 12.68C154.649 13.1867 154.049 13.44 153.303 13.44H147.423C146.649 13.44 146.036 13.1867 145.583 12.68C145.129 12.1733 144.903 11.4933 144.903 10.64V8.96C144.903 6.13333 145.609 4 147.023 2.56C148.436 1.12 150.383 0.399998 152.863 0.399998H160.903C163.409 0.399998 165.356 1.12 166.743 2.56C168.156 4 168.863 6.13333 168.863 8.96V12.4C168.863 13.76 168.609 14.9467 168.103 15.96C167.623 16.9733 166.876 17.9067 165.863 18.76C165.489 19.0533 165.049 19.4267 164.543 19.88C164.036 20.3067 163.609 20.7067 163.263 21.08ZM162.223 33.32C162.223 34.1733 161.996 34.8533 161.543 35.36C161.089 35.8667 160.476 36.12 159.703 36.12H153.343C152.569 36.12 151.956 35.8667 151.503 35.36C151.049 34.8533 150.823 34.1733 150.823 33.32V28.24C150.823 27.3867 151.049 26.7067 151.503 26.2C151.956 25.6933 152.569 25.44 153.343 25.44H159.703C160.476 25.44 161.089 25.6933 161.543 26.2C161.996 26.7067 162.223 27.3867 162.223 28.24V33.32Z" fill="#01FF1A"/>
</svg>
