<svg width="21" height="21" viewBox="0 0 21 21" fill="none" xmlns="http://www.w3.org/2000/svg">
<path id="Vector" d="M1.24589 20.129C1.00755 20.129 0.769227 20.0374 0.595061 19.8632C0.365894 19.634 0.274218 19.304 0.356718 18.9924L1.64922 13.804C1.68589 13.639 1.76838 13.4924 1.88755 13.3824L14.2076 1.07152C14.8951 0.374857 15.8209 -0.000976562 16.8017 -0.000976562C17.7826 -0.000976562 18.6992 0.384023 19.3959 1.07152C20.0926 1.75902 20.4684 2.68486 20.4684 3.66569C20.4684 4.64652 20.0834 5.56319 19.3959 6.25986L7.08506 18.5799C6.9659 18.699 6.81921 18.7815 6.66338 18.8182L1.47505 20.1107C1.40172 20.129 1.3284 20.1382 1.25506 20.1382L1.24589 20.129ZM3.37255 14.4915L2.51089 17.9474L5.96673 17.0857L18.1034 4.94902C18.4517 4.60069 18.6442 4.14236 18.6442 3.65652C18.6442 3.17069 18.4517 2.70319 18.1034 2.36402C17.4067 1.66736 16.2059 1.66736 15.5092 2.36402L3.37255 14.5007V14.4915Z" fill="#D0D5DD"/>
</svg>
