<svg width="16" height="16" viewBox="0 0 16 16" fill="none" xmlns="http://www.w3.org/2000/svg">
<path d="M12.6667 7.33366H8.66675V3.33366C8.66675 2.96699 8.36675 2.66699 8.00008 2.66699C7.63341 2.66699 7.33341 2.96699 7.33341 3.33366V7.33366H3.33341C2.96675 7.33366 2.66675 7.63366 2.66675 8.00033C2.66675 8.36699 2.96675 8.66699 3.33341 8.66699H7.33341V12.667C7.33341 13.0337 7.63341 13.3337 8.00008 13.3337C8.36675 13.3337 8.66675 13.0337 8.66675 12.667V8.66699H12.6667C13.0334 8.66699 13.3334 8.36699 13.3334 8.00033C13.3334 7.63366 13.0334 7.33366 12.6667 7.33366Z" fill="#01FF1A"/>
</svg>
