<svg width="12" height="12" viewBox="0 0 12 12" fill="none" xmlns="http://www.w3.org/2000/svg">
<path d="M10.6665 5.33366H6.6665V1.33366C6.6665 0.966992 6.3665 0.666992 5.99984 0.666992C5.63317 0.666992 5.33317 0.966992 5.33317 1.33366V5.33366H1.33317C0.966504 5.33366 0.666504 5.63366 0.666504 6.00033C0.666504 6.36699 0.966504 6.66699 1.33317 6.66699H5.33317V10.667C5.33317 11.0337 5.63317 11.3337 5.99984 11.3337C6.3665 11.3337 6.6665 11.0337 6.6665 10.667V6.66699H10.6665C11.0332 6.66699 11.3332 6.36699 11.3332 6.00033C11.3332 5.63366 11.0332 5.33366 10.6665 5.33366Z" fill="#98A2B3"/>
</svg>
