<svg width="203" height="44" viewBox="0 0 203 44" fill="none" xmlns="http://www.w3.org/2000/svg">
<path d="M25.776 39.784C25.776 40.808 25.488 41.624 24.912 42.232C24.368 42.84 23.648 43.064 22.752 42.904C20.608 42.552 18.688 41.88 16.992 40.888C15.296 39.928 14.016 38.728 13.152 37.288C12.384 38.76 11.136 39.976 9.408 40.936C7.712 41.928 5.776 42.584 3.6 42.904C2.736 43.064 2.016 42.84 1.44 42.232C0.896 41.624 0.624 40.808 0.624 39.784V32.728C0.624 31.96 0.832 31.24 1.248 30.568C1.696 29.864 2.432 29.064 3.456 28.168C4.192 27.528 4.736 26.616 5.088 25.432C5.44 24.216 5.616 22.632 5.616 20.68V3.88C5.616 2.856 5.888 2.04 6.432 1.432C6.976 0.823997 7.712 0.519998 8.64 0.519998H17.76C18.688 0.519998 19.424 0.823997 19.968 1.432C20.512 2.04 20.784 2.856 20.784 3.88V20.68C20.784 22.632 20.96 24.216 21.312 25.432C21.664 26.616 22.208 27.528 22.944 28.168C23.968 29.064 24.688 29.864 25.104 30.568C25.552 31.24 25.776 31.96 25.776 32.728V39.784ZM40.656 39.784C40.656 40.808 40.384 41.624 39.84 42.232C39.296 42.84 38.56 43.144 37.632 43.144H30C29.072 43.144 28.336 42.84 27.792 42.232C27.248 41.624 26.976 40.808 26.976 39.784V3.88C26.976 2.856 27.248 2.04 27.792 1.432C28.336 0.823997 29.072 0.519998 30 0.519998H37.632C38.56 0.519998 39.296 0.823997 39.84 1.432C40.384 2.04 40.656 2.856 40.656 3.88V13.528C40.656 14.04 40.8 14.44 41.088 14.728C41.408 15.016 41.76 15.288 42.144 15.544C42.528 15.768 42.864 16.024 43.152 16.312C43.472 16.568 43.632 16.952 43.632 17.464V24.76C43.632 25.272 43.472 25.672 43.152 25.96C42.864 26.248 42.528 26.52 42.144 26.776C41.76 27 41.408 27.256 41.088 27.544C40.8 27.8 40.656 28.184 40.656 28.696V39.784ZM84.9308 39.784C84.9308 40.808 84.6588 41.624 84.1148 42.232C83.5708 42.84 82.8348 43.144 81.9068 43.144H75.3788C74.4508 43.144 73.7148 42.84 73.1708 42.232C72.6268 41.624 72.3548 40.808 72.3548 39.784V3.88C72.3548 2.856 72.6268 2.04 73.1708 1.432C73.7148 0.823997 74.4508 0.519998 75.3788 0.519998H81.9068C82.8348 0.519998 83.5708 0.823997 84.1148 1.432C84.6588 2.04 84.9308 2.856 84.9308 3.88V39.784ZM71.0588 33.16C70.9948 34.376 70.7868 35.56 70.4348 36.712C70.0828 37.864 69.5708 38.904 68.8988 39.832C68.2268 40.76 67.3948 41.512 66.4028 42.088C65.4428 42.696 64.3388 43.048 63.0908 43.144C62.1308 43.208 61.2508 43.256 60.4508 43.288C59.6508 43.352 58.8668 43.384 58.0988 43.384C57.3628 43.384 56.5948 43.352 55.7948 43.288C54.9948 43.256 54.1148 43.208 53.1548 43.144C51.8748 43.048 50.7228 42.696 49.6988 42.088C48.6748 41.512 47.7948 40.76 47.0588 39.832C46.3548 38.904 45.7948 37.864 45.3788 36.712C44.9628 35.56 44.7388 34.376 44.7068 33.16C44.6108 30.76 44.5308 28.68 44.4668 26.92C44.4028 25.16 44.3708 23.464 44.3708 21.832C44.3708 20.2 44.4028 18.504 44.4668 16.744C44.5308 14.984 44.6108 12.904 44.7068 10.504C44.7388 9.288 44.9628 8.104 45.3788 6.952C45.7948 5.8 46.3548 4.76 47.0588 3.832C47.7948 2.904 48.6748 2.152 49.6988 1.576C50.7228 0.967999 51.8748 0.615998 53.1548 0.519998C54.1148 0.455998 54.9948 0.407999 55.7948 0.375999C56.5948 0.343998 57.3628 0.327997 58.0988 0.327997C58.8668 0.327997 59.6508 0.343998 60.4508 0.375999C61.2508 0.407999 62.1308 0.455998 63.0908 0.519998C64.3388 0.615998 65.4428 0.967999 66.4028 1.576C67.3948 2.152 68.2268 2.904 68.8988 3.832C69.5708 4.728 70.0828 5.752 70.4348 6.904C70.7868 8.056 70.9948 9.256 71.0588 10.504C71.1548 12.904 71.2348 14.984 71.2988 16.744C71.3628 18.504 71.3948 20.2 71.3948 21.832C71.3948 23.464 71.3628 25.16 71.2988 26.92C71.2348 28.68 71.1548 30.76 71.0588 33.16ZM58.5788 32.008C59.0588 28.744 59.2988 25.352 59.2988 21.832C59.2988 18.312 59.0588 14.92 58.5788 11.656H57.1868C57.6348 14.92 57.8588 18.312 57.8588 21.832C57.8588 25.352 57.6348 28.744 57.1868 32.008H58.5788ZM128.15 39.784C128.15 40.808 127.878 41.624 127.334 42.232C126.79 42.84 126.054 43.144 125.126 43.144H90.9495C90.0215 43.144 89.2855 42.84 88.7415 42.232C88.1975 41.624 87.9255 40.808 87.9255 39.784V33.928C87.9255 32.904 88.1975 32.088 88.7415 31.48C89.2855 30.872 90.0215 30.568 90.9495 30.568H125.126C126.054 30.568 126.79 30.872 127.334 31.48C127.878 32.088 128.15 32.904 128.15 33.928V39.784ZM128.15 25.192C128.15 26.216 127.878 27.032 127.334 27.64C126.79 28.248 126.054 28.552 125.126 28.552H90.9495C90.0215 28.552 89.2855 28.248 88.7415 27.64C88.1975 27.032 87.9255 26.216 87.9255 25.192V3.88C87.9255 2.856 88.1975 2.04 88.7415 1.432C89.2855 0.823997 90.0215 0.519998 90.9495 0.519998H125.126C126.054 0.519998 126.79 0.823997 127.334 1.432C127.878 2.04 128.15 2.856 128.15 3.88V9.976C128.15 11 127.878 11.848 127.334 12.52C126.79 13.192 126.07 13.56 125.174 13.624C123.222 13.784 121.318 13.912 119.462 14.008C117.606 14.072 115.75 14.088 113.894 14.056C112.038 14.024 110.166 13.96 108.278 13.864C106.39 13.736 104.438 13.56 102.422 13.336V15.736C104.438 15.96 106.39 16.136 108.278 16.264C110.166 16.36 112.038 16.424 113.894 16.456C115.75 16.488 117.606 16.472 119.462 16.408C121.318 16.312 123.222 16.184 125.174 16.024C126.07 15.96 126.79 16.2 127.334 16.744C127.878 17.288 128.15 18.072 128.15 19.096V25.192ZM169.208 35.176C169.208 36.2 168.936 37.016 168.392 37.624C167.848 38.232 167.112 38.536 166.184 38.536H155.528C154.6 38.536 153.864 38.232 153.32 37.624C152.776 37.016 152.504 36.2 152.504 35.176V17.896H136.328C135.4 17.896 134.664 17.592 134.12 16.984C133.576 16.376 133.304 15.56 133.304 14.536V7.72C133.304 6.696 133.576 5.88 134.12 5.272C134.664 4.664 135.4 4.36 136.328 4.36H166.184C167.112 4.36 167.848 4.664 168.392 5.272C168.936 5.88 169.208 6.696 169.208 7.72V35.176ZM195.915 25.096C194.987 26.056 194.139 26.808 193.371 27.352C192.603 27.896 192.027 28.168 191.643 28.168H184.011C183.019 28.168 182.235 27.848 181.659 27.208C181.115 26.536 180.923 25.736 181.083 24.808C181.179 24.232 181.371 23.624 181.659 22.984C181.947 22.312 182.459 21.656 183.195 21.016L187.755 17.08C188.171 16.568 188.571 16.008 188.955 15.4C189.371 14.792 189.579 14.104 189.579 13.336V12.424C189.579 11.464 189.179 10.984 188.379 10.984H188.139C187.371 10.984 186.987 11.464 186.987 12.424V12.568C186.987 13.592 186.699 14.408 186.123 15.016C185.579 15.624 184.859 15.928 183.963 15.928H176.907C175.979 15.928 175.243 15.624 174.699 15.016C174.155 14.408 173.883 13.592 173.883 12.568V10.552C173.883 7.16 174.731 4.6 176.427 2.872C178.123 1.144 180.459 0.279998 183.435 0.279998H193.083C196.091 0.279998 198.427 1.144 200.091 2.872C201.787 4.6 202.635 7.16 202.635 10.552V14.68C202.635 16.312 202.331 17.736 201.723 18.952C201.147 20.168 200.251 21.288 199.035 22.312C198.587 22.664 198.059 23.112 197.451 23.656C196.843 24.168 196.331 24.648 195.915 25.096ZM194.667 39.784C194.667 40.808 194.395 41.624 193.851 42.232C193.307 42.84 192.571 43.144 191.643 43.144H184.011C183.083 43.144 182.347 42.84 181.803 42.232C181.259 41.624 180.987 40.808 180.987 39.784V33.688C180.987 32.664 181.259 31.848 181.803 31.24C182.347 30.632 183.083 30.328 184.011 30.328H191.643C192.571 30.328 193.307 30.632 193.851 31.24C194.395 31.848 194.667 32.664 194.667 33.688V39.784Z" fill="#01FF1A"/>
</svg>
