<svg width="16" height="16" viewBox="0 0 16 16" fill="none" xmlns="http://www.w3.org/2000/svg">
<path d="M12.6668 4.66699H11.3335V4.00033C11.3335 2.16033 9.84016 0.666992 8.00016 0.666992C6.16016 0.666992 4.66683 2.16033 4.66683 4.00033V4.66699H3.3335C2.2335 4.66699 1.3335 5.56699 1.3335 6.66699V13.3337C1.3335 14.4337 2.2335 15.3337 3.3335 15.3337H12.6668C13.7668 15.3337 14.6668 14.4337 14.6668 13.3337V6.66699C14.6668 5.56699 13.7668 4.66699 12.6668 4.66699ZM6.00016 4.00033C6.00016 2.90033 6.90016 2.00033 8.00016 2.00033C9.10016 2.00033 10.0002 2.90033 10.0002 4.00033V4.66699H6.00016V4.00033ZM13.3335 13.3337C13.3335 13.7003 13.0335 14.0003 12.6668 14.0003H3.3335C2.96683 14.0003 2.66683 13.7003 2.66683 13.3337V6.66699C2.66683 6.30033 2.96683 6.00033 3.3335 6.00033H12.6668C13.0335 6.00033 13.3335 6.30033 13.3335 6.66699V13.3337Z" fill="#01FF1A"/>
<path d="M8 7.33398C6.9 7.33398 6 8.23398 6 9.33398C6 10.2007 6.56 10.934 7.33333 11.214V12.0007C7.33333 12.3673 7.63333 12.6673 8 12.6673C8.36667 12.6673 8.66667 12.3673 8.66667 12.0007V11.214C9.44 10.9407 10 10.2073 10 9.33398C10 8.23398 9.1 7.33398 8 7.33398ZM8 10.0007C7.63333 10.0007 7.33333 9.70065 7.33333 9.33398C7.33333 8.96732 7.63333 8.66732 8 8.66732C8.36667 8.66732 8.66667 8.96732 8.66667 9.33398C8.66667 9.70065 8.36667 10.0007 8 10.0007Z" fill="#01FF1A"/>
</svg>
