<svg width="18" height="20" viewBox="0 0 18 20" fill="none" xmlns="http://www.w3.org/2000/svg">
<path id="Vector" d="M14.8334 2.50016H13.1667V1.66683C13.1667 1.2085 12.7917 0.833496 12.3334 0.833496C11.8751 0.833496 11.5001 1.2085 11.5001 1.66683V2.50016H6.50008V1.66683C6.50008 1.2085 6.12508 0.833496 5.66675 0.833496C5.20841 0.833496 4.83341 1.2085 4.83341 1.66683V2.50016H3.16675C1.79175 2.50016 0.666748 3.62516 0.666748 5.00016V16.6668C0.666748 18.0418 1.79175 19.1668 3.16675 19.1668H14.8334C16.2084 19.1668 17.3334 18.0418 17.3334 16.6668V5.00016C17.3334 3.62516 16.2084 2.50016 14.8334 2.50016ZM3.16675 4.16683H4.83341V5.00016C4.83341 5.4585 5.20841 5.8335 5.66675 5.8335C6.12508 5.8335 6.50008 5.4585 6.50008 5.00016V4.16683H11.5001V5.00016C11.5001 5.4585 11.8751 5.8335 12.3334 5.8335C12.7917 5.8335 13.1667 5.4585 13.1667 5.00016V4.16683H14.8334C15.2917 4.16683 15.6667 4.54183 15.6667 5.00016V7.50016H2.33341V5.00016C2.33341 4.54183 2.70841 4.16683 3.16675 4.16683ZM14.8334 17.5002H3.16675C2.70841 17.5002 2.33341 17.1252 2.33341 16.6668V9.16683H15.6667V16.6668C15.6667 17.1252 15.2917 17.5002 14.8334 17.5002Z" fill="#98A2B3"/>
</svg>
