<svg width="24" height="24" viewBox="0 0 24 24" fill="none" xmlns="http://www.w3.org/2000/svg">
<path d="M21 5H17V4C17 2.35 15.65 1 14 1H10C8.35 1 7 2.35 7 4V5H3C2.45 5 2 5.45 2 6C2 6.55 2.45 7 3 7H4V20C4 21.65 5.35 23 7 23H17C18.65 23 20 21.65 20 20V7H21C21.55 7 22 6.55 22 6C22 5.45 21.55 5 21 5ZM9 4C9 3.45 9.45 3 10 3H14C14.55 3 15 3.45 15 4V5H9V4ZM18 20C18 20.55 17.55 21 17 21H7C6.45 21 6 20.55 6 20V7H18V20Z" fill="white"/>
<path d="M10 10C9.45 10 9 10.45 9 11V17C9 17.55 9.45 18 10 18C10.55 18 11 17.55 11 17V11C11 10.45 10.55 10 10 10Z" fill="white"/>
<path d="M14 10C13.45 10 13 10.45 13 11V17C13 17.55 13.45 18 14 18C14.55 18 15 17.55 15 17V11C15 10.45 14.55 10 14 10Z" fill="white"/>
</svg>
