<svg width="17" height="18" viewBox="0 0 17 18" fill="none" xmlns="http://www.w3.org/2000/svg">
<path d="M6.5625 2.8125V3.125H9.6875V2.8125C9.6875 2.3981 9.52288 2.00067 9.22985 1.70765C8.93683 1.41462 8.5394 1.25 8.125 1.25C7.7106 1.25 7.31317 1.41462 7.02015 1.70765C6.72712 2.00067 6.5625 2.3981 6.5625 2.8125ZM5.3125 3.125V2.8125C5.3125 2.06658 5.60882 1.35121 6.13626 0.823762C6.66371 0.296316 7.37908 0 8.125 0C8.87092 0 9.58629 0.296316 10.1137 0.823762C10.6412 1.35121 10.9375 2.06658 10.9375 2.8125V3.125H15.625C15.7908 3.125 15.9497 3.19085 16.0669 3.30806C16.1842 3.42527 16.25 3.58424 16.25 3.75C16.25 3.91576 16.1842 4.07473 16.0669 4.19194C15.9497 4.30915 15.7908 4.375 15.625 4.375H14.6825L13.5 14.73C13.4128 15.4926 13.048 16.1965 12.4751 16.7073C11.9022 17.2182 11.1613 17.5004 10.3937 17.5H5.85625C5.08866 17.5004 4.34779 17.2182 3.77491 16.7073C3.20202 16.1965 2.8372 15.4926 2.75 14.73L1.5675 4.375H0.625C0.45924 4.375 0.300268 4.30915 0.183058 4.19194C0.065848 4.07473 0 3.91576 0 3.75C0 3.58424 0.065848 3.42527 0.183058 3.30806C0.300268 3.19085 0.45924 3.125 0.625 3.125H5.3125ZM6.875 7.1875C6.875 7.02174 6.80915 6.86277 6.69194 6.74556C6.57473 6.62835 6.41576 6.5625 6.25 6.5625C6.08424 6.5625 5.92527 6.62835 5.80806 6.74556C5.69085 6.86277 5.625 7.02174 5.625 7.1875V13.4375C5.625 13.6033 5.69085 13.7622 5.80806 13.8794C5.92527 13.9967 6.08424 14.0625 6.25 14.0625C6.41576 14.0625 6.57473 13.9967 6.69194 13.8794C6.80915 13.7622 6.875 13.6033 6.875 13.4375V7.1875ZM10 6.5625C9.83424 6.5625 9.67527 6.62835 9.55806 6.74556C9.44085 6.86277 9.375 7.02174 9.375 7.1875V13.4375C9.375 13.6033 9.44085 13.7622 9.55806 13.8794C9.67527 13.9967 9.83424 14.0625 10 14.0625C10.1658 14.0625 10.3247 13.9967 10.4419 13.8794C10.5592 13.7622 10.625 13.6033 10.625 13.4375V7.1875C10.625 7.02174 10.5592 6.86277 10.4419 6.74556C10.3247 6.62835 10.1658 6.5625 10 6.5625Z" fill="#747474"/>
</svg>
