<svg width="12" height="8" viewBox="0 0 12 8" fill="none" xmlns="http://www.w3.org/2000/svg">
<g id="Group">
<path id="Vector" d="M11.8042 4.90234C10.9292 2.17817 8.64834 0.416504 6.00001 0.416504C3.35167 0.416504 1.07083 2.17817 0.195834 4.90234C0.0966675 5.2115 0.265848 5.53817 0.575015 5.63734C0.884182 5.7365 1.21084 5.56734 1.31 5.25817C2.17917 2.54567 4.30835 1.57734 6.00585 1.57734C7.70335 1.57734 9.82667 2.54567 10.7017 5.25817C10.7833 5.50317 11.0108 5.66067 11.2558 5.66067C11.3142 5.66067 11.3725 5.649 11.4367 5.6315C11.7458 5.53234 11.915 5.20567 11.8158 4.8965L11.8042 4.90234Z" fill="#D0D5DD"/>
<path id="Vector_2" d="M6 2.1665C4.55333 2.1665 3.375 3.34484 3.375 4.7915C3.375 6.23817 4.55333 7.4165 6 7.4165C7.44667 7.4165 8.625 6.23817 8.625 4.7915C8.625 3.34484 7.44667 2.1665 6 2.1665ZM6 6.24984C5.195 6.24984 4.54167 5.5965 4.54167 4.7915C4.54167 3.9865 5.195 3.33317 6 3.33317C6.805 3.33317 7.45833 3.9865 7.45833 4.7915C7.45833 5.5965 6.805 6.24984 6 6.24984Z" fill="#D0D5DD"/>
</g>
</svg>
