<svg width="24" height="25" viewBox="0 0 24 25" fill="none" xmlns="http://www.w3.org/2000/svg">
<path d="M12 15.6232C13.6569 15.6232 15 14.28 15 12.6232C15 10.9663 13.6569 9.62317 12 9.62317C10.3431 9.62317 9 10.9663 9 12.6232C9 14.28 10.3431 15.6232 12 15.6232Z" stroke="#1F2933" stroke-width="2" stroke-linecap="round" stroke-linejoin="round"/>
<path d="M18.7273 15.3504C18.6063 15.6246 18.5702 15.9288 18.6236 16.2237C18.6771 16.5186 18.8177 16.7907 19.0273 17.005L19.0818 17.0595C19.2509 17.2284 19.385 17.4289 19.4765 17.6496C19.568 17.8704 19.6151 18.107 19.6151 18.3459C19.6151 18.5848 19.568 18.8214 19.4765 19.0422C19.385 19.2629 19.2509 19.4634 19.0818 19.6323C18.913 19.8013 18.7124 19.9354 18.4917 20.0269C18.271 20.1184 18.0344 20.1655 17.7955 20.1655C17.5565 20.1655 17.3199 20.1184 17.0992 20.0269C16.8785 19.9354 16.678 19.8013 16.5091 19.6323L16.4545 19.5777C16.2403 19.3681 15.9682 19.2275 15.6733 19.1741C15.3784 19.1206 15.0742 19.1567 14.8 19.2777C14.5311 19.393 14.3018 19.5843 14.1403 19.8282C13.9788 20.0721 13.8921 20.3579 13.8909 20.6504V20.805C13.8909 21.2872 13.6994 21.7497 13.3584 22.0906C13.0174 22.4316 12.5549 22.6232 12.0727 22.6232C11.5905 22.6232 11.1281 22.4316 10.7871 22.0906C10.4461 21.7497 10.2545 21.2872 10.2545 20.805V20.7232C10.2475 20.4223 10.1501 20.1304 9.97501 19.8856C9.79991 19.6408 9.55521 19.4543 9.27273 19.3504C8.99853 19.2294 8.69437 19.1933 8.39947 19.2468C8.10456 19.3003 7.83244 19.4409 7.61818 19.6504L7.56364 19.705C7.39478 19.874 7.19425 20.0081 6.97353 20.0996C6.7528 20.1911 6.51621 20.2382 6.27727 20.2382C6.03834 20.2382 5.80174 20.1911 5.58102 20.0996C5.36029 20.0081 5.15977 19.874 4.99091 19.705C4.82186 19.5361 4.68775 19.3356 4.59626 19.1149C4.50476 18.8942 4.45766 18.6576 4.45766 18.4186C4.45766 18.1797 4.50476 17.9431 4.59626 17.7224C4.68775 17.5016 4.82186 17.3011 4.99091 17.1323L5.04545 17.0777C5.25503 16.8635 5.39562 16.5913 5.4491 16.2964C5.50257 16.0015 5.46647 15.6974 5.34545 15.4232C5.23022 15.1543 5.03887 14.925 4.79497 14.7634C4.55107 14.6019 4.26526 14.5152 3.97273 14.5141H3.81818C3.33597 14.5141 2.87351 14.3225 2.53253 13.9815C2.19156 13.6406 2 13.1781 2 12.6959C2 12.2137 2.19156 11.7512 2.53253 11.4102C2.87351 11.0693 3.33597 10.8777 3.81818 10.8777H3.9C4.2009 10.8707 4.49273 10.7733 4.73754 10.5982C4.98236 10.4231 5.16883 10.1784 5.27273 9.8959C5.39374 9.6217 5.42984 9.31754 5.37637 9.02263C5.3229 8.72773 5.18231 8.4556 4.97273 8.24135L4.91818 8.18681C4.74913 8.01795 4.61503 7.81742 4.52353 7.5967C4.43203 7.37597 4.38493 7.13938 4.38493 6.90044C4.38493 6.6615 4.43203 6.42491 4.52353 6.20419C4.61503 5.98346 4.74913 5.78294 4.91818 5.61408C5.08704 5.44503 5.28757 5.31092 5.50829 5.21942C5.72901 5.12793 5.96561 5.08083 6.20455 5.08083C6.44348 5.08083 6.68008 5.12793 6.9008 5.21942C7.12152 5.31092 7.32205 5.44503 7.49091 5.61408L7.54545 5.66862C7.75971 5.8782 8.03183 6.01879 8.32674 6.07226C8.62164 6.12574 8.9258 6.08964 9.2 5.96862H9.27273C9.54161 5.85338 9.77092 5.66204 9.93245 5.41814C10.094 5.17424 10.1807 4.88843 10.1818 4.5959V4.44135C10.1818 3.95914 10.3734 3.49668 10.7144 3.1557C11.0553 2.81473 11.5178 2.62317 12 2.62317C12.4822 2.62317 12.9447 2.81473 13.2856 3.1557C13.6266 3.49668 13.8182 3.95914 13.8182 4.44135V4.52317C13.8193 4.8157 13.906 5.10151 14.0676 5.34541C14.2291 5.58931 14.4584 5.78066 14.7273 5.8959C15.0015 6.01691 15.3056 6.05301 15.6005 5.99954C15.8954 5.94607 16.1676 5.80548 16.3818 5.5959L16.4364 5.54135C16.6052 5.3723 16.8057 5.2382 17.0265 5.1467C17.2472 5.0552 17.4838 5.0081 17.7227 5.0081C17.9617 5.0081 18.1983 5.0552 18.419 5.1467C18.6397 5.2382 18.8402 5.3723 19.0091 5.54135C19.1781 5.71021 19.3122 5.91074 19.4037 6.13146C19.4952 6.35218 19.5423 6.58878 19.5423 6.82771C19.5423 7.06665 19.4952 7.30325 19.4037 7.52397C19.3122 7.74469 19.1781 7.94522 19.0091 8.11408L18.9545 8.16862C18.745 8.38288 18.6044 8.655 18.5509 8.94991C18.4974 9.24481 18.5335 9.54897 18.6545 9.82317V9.8959C18.7698 10.1648 18.9611 10.3941 19.205 10.5556C19.4489 10.7171 19.7347 10.8038 20.0273 10.805H20.1818C20.664 10.805 21.1265 10.9965 21.4675 11.3375C21.8084 11.6785 22 12.141 22 12.6232C22 13.1054 21.8084 13.5678 21.4675 13.9088C21.1265 14.2498 20.664 14.4414 20.1818 14.4414H20.1C19.8075 14.4425 19.5217 14.5292 19.2778 14.6907C19.0339 14.8522 18.8425 15.0816 18.7273 15.3504V15.3504Z" stroke="#1F2933" stroke-width="2" stroke-linecap="round" stroke-linejoin="round"/>
</svg>
