<svg width="22" height="23" viewBox="0 0 22 23" fill="none" xmlns="http://www.w3.org/2000/svg">
<g id="Group 353" filter="url(#filter0_i_344_265)">
<path id="Vector" d="M11 14.6232C12.6569 14.6232 14 13.28 14 11.6232C14 9.96631 12.6569 8.62317 11 8.62317C9.34315 8.62317 8 9.96631 8 11.6232C8 13.28 9.34315 14.6232 11 14.6232Z" stroke="#0066FF" stroke-width="2" stroke-linecap="round" stroke-linejoin="round"/>
<path id="Vector_2" d="M17.7273 14.3504C17.6063 14.6246 17.5702 14.9288 17.6236 15.2237C17.6771 15.5186 17.8177 15.7907 18.0273 16.005L18.0818 16.0595C18.2509 16.2284 18.385 16.4289 18.4765 16.6496C18.568 16.8704 18.6151 17.107 18.6151 17.3459C18.6151 17.5848 18.568 17.8214 18.4765 18.0422C18.385 18.2629 18.2509 18.4634 18.0818 18.6323C17.913 18.8013 17.7124 18.9354 17.4917 19.0269C17.271 19.1184 17.0344 19.1655 16.7955 19.1655C16.5565 19.1655 16.3199 19.1184 16.0992 19.0269C15.8785 18.9354 15.678 18.8013 15.5091 18.6323L15.4545 18.5777C15.2403 18.3681 14.9682 18.2275 14.6733 18.1741C14.3784 18.1206 14.0742 18.1567 13.8 18.2777C13.5311 18.393 13.3018 18.5843 13.1403 18.8282C12.9788 19.0721 12.8921 19.3579 12.8909 19.6504V19.805C12.8909 20.2872 12.6994 20.7497 12.3584 21.0906C12.0174 21.4316 11.5549 21.6232 11.0727 21.6232C10.5905 21.6232 10.1281 21.4316 9.78708 21.0906C9.4461 20.7497 9.25455 20.2872 9.25455 19.805V19.7232C9.24751 19.4223 9.15011 19.1304 8.97501 18.8856C8.79991 18.6408 8.55521 18.4543 8.27273 18.3504C7.99853 18.2294 7.69437 18.1933 7.39947 18.2468C7.10456 18.3003 6.83244 18.4409 6.61818 18.6504L6.56364 18.705C6.39478 18.874 6.19425 19.0081 5.97353 19.0996C5.7528 19.1911 5.51621 19.2382 5.27727 19.2382C5.03834 19.2382 4.80174 19.1911 4.58102 19.0996C4.36029 19.0081 4.15977 18.874 3.99091 18.705C3.82186 18.5361 3.68775 18.3356 3.59626 18.1149C3.50476 17.8942 3.45766 17.6576 3.45766 17.4186C3.45766 17.1797 3.50476 16.9431 3.59626 16.7224C3.68775 16.5016 3.82186 16.3011 3.99091 16.1323L4.04545 16.0777C4.25503 15.8635 4.39562 15.5913 4.4491 15.2964C4.50257 15.0015 4.46647 14.6974 4.34545 14.4232C4.23022 14.1543 4.03887 13.925 3.79497 13.7634C3.55107 13.6019 3.26526 13.5152 2.97273 13.5141H2.81818C2.33597 13.5141 1.87351 13.3225 1.53253 12.9815C1.19156 12.6406 1 12.1781 1 11.6959C1 11.2137 1.19156 10.7512 1.53253 10.4102C1.87351 10.0693 2.33597 9.87771 2.81818 9.87771H2.9C3.2009 9.87068 3.49273 9.77328 3.73754 9.59818C3.98236 9.42308 4.16883 9.17838 4.27273 8.8959C4.39374 8.6217 4.42984 8.31754 4.37637 8.02263C4.3229 7.72773 4.18231 7.4556 3.97273 7.24135L3.91818 7.18681C3.74913 7.01795 3.61503 6.81742 3.52353 6.5967C3.43203 6.37597 3.38493 6.13938 3.38493 5.90044C3.38493 5.6615 3.43203 5.42491 3.52353 5.20419C3.61503 4.98346 3.74913 4.78294 3.91818 4.61408C4.08704 4.44503 4.28757 4.31092 4.50829 4.21942C4.72901 4.12793 4.96561 4.08083 5.20455 4.08083C5.44348 4.08083 5.68008 4.12793 5.9008 4.21942C6.12152 4.31092 6.32205 4.44503 6.49091 4.61408L6.54545 4.66862C6.75971 4.8782 7.03183 5.01879 7.32674 5.07226C7.62164 5.12574 7.9258 5.08964 8.2 4.96862H8.27273C8.54161 4.85338 8.77092 4.66204 8.93245 4.41814C9.09397 4.17424 9.18065 3.88843 9.18182 3.5959V3.44135C9.18182 2.95914 9.37338 2.49668 9.71435 2.1557C10.0553 1.81473 10.5178 1.62317 11 1.62317C11.4822 1.62317 11.9447 1.81473 12.2856 2.1557C12.6266 2.49668 12.8182 2.95914 12.8182 3.44135V3.52317C12.8193 3.8157 12.906 4.10151 13.0676 4.34541C13.2291 4.58931 13.4584 4.78066 13.7273 4.8959C14.0015 5.01691 14.3056 5.05301 14.6005 4.99954C14.8954 4.94607 15.1676 4.80548 15.3818 4.5959L15.4364 4.54135C15.6052 4.3723 15.8057 4.2382 16.0265 4.1467C16.2472 4.0552 16.4838 4.0081 16.7227 4.0081C16.9617 4.0081 17.1983 4.0552 17.419 4.1467C17.6397 4.2382 17.8402 4.3723 18.0091 4.54135C18.1781 4.71021 18.3122 4.91074 18.4037 5.13146C18.4952 5.35218 18.5423 5.58878 18.5423 5.82771C18.5423 6.06665 18.4952 6.30325 18.4037 6.52397C18.3122 6.74469 18.1781 6.94522 18.0091 7.11408L17.9545 7.16862C17.745 7.38288 17.6044 7.655 17.5509 7.94991C17.4974 8.24481 17.5335 8.54897 17.6545 8.82317V8.8959C17.7698 9.16478 17.9611 9.39409 18.205 9.55562C18.4489 9.71714 18.7347 9.80382 19.0273 9.80499H19.1818C19.664 9.80499 20.1265 9.99655 20.4675 10.3375C20.8084 10.6785 21 11.141 21 11.6232C21 12.1054 20.8084 12.5678 20.4675 12.9088C20.1265 13.2498 19.664 13.4414 19.1818 13.4414H19.1C18.8075 13.4425 18.5217 13.5292 18.2778 13.6907C18.0339 13.8522 17.8425 14.0816 17.7273 14.3504V14.3504Z" stroke="#0066FF" stroke-width="2" stroke-linecap="round" stroke-linejoin="round"/>
</g>
<defs>
<filter id="filter0_i_344_265" x="0" y="0.623169" width="22" height="23" filterUnits="userSpaceOnUse" color-interpolation-filters="sRGB">
<feFlood flood-opacity="0" result="BackgroundImageFix"/>
<feBlend mode="normal" in="SourceGraphic" in2="BackgroundImageFix" result="shape"/>
<feColorMatrix in="SourceAlpha" type="matrix" values="0 0 0 0 0 0 0 0 0 0 0 0 0 0 0 0 0 0 127 0" result="hardAlpha"/>
<feOffset dy="1"/>
<feGaussianBlur stdDeviation="1"/>
<feComposite in2="hardAlpha" operator="arithmetic" k2="-1" k3="1"/>
<feColorMatrix type="matrix" values="0 0 0 0 0.351493 0 0 0 0 0.39658 0 0 0 0 0.441667 0 0 0 0.42 0"/>
<feBlend mode="normal" in2="shape" result="effect1_innerShadow_344_265"/>
</filter>
</defs>
</svg>
