<svg width="17" height="16" viewBox="0 0 17 16" fill="none" xmlns="http://www.w3.org/2000/svg">
<path d="M5 5C5 5.92826 5.36875 6.8185 6.02513 7.47487C6.6815 8.13125 7.57174 8.5 8.5 8.5C9.42826 8.5 10.3185 8.13125 10.9749 7.47487C11.6313 6.8185 12 5.92826 12 5C12 4.07174 11.6313 3.1815 10.9749 2.52513C10.3185 1.86875 9.42826 1.5 8.5 1.5C7.57174 1.5 6.6815 1.86875 6.02513 2.52513C5.36875 3.1815 5 4.07174 5 5ZM13.5 14.5H3C2.86739 14.5 2.74021 14.4473 2.64645 14.3536C2.55268 14.2598 2.5 14.1326 2.5 14V12.5C2.5 11.837 2.76339 11.2011 3.23223 10.7322C3.70107 10.2634 4.33696 10 5 10H12C12.663 10 13.2989 10.2634 13.7678 10.7322C14.2366 11.2011 14.5 11.837 14.5 12.5V14C14.5 14.1326 14.4473 14.2598 14.3536 14.3536C14.2598 14.4473 14.1326 14.5 14 14.5H13.5Z" fill="white"/>
</svg>
