<svg width="15" height="15" viewBox="0 0 15 15" fill="none" xmlns="http://www.w3.org/2000/svg">
<g id="Group">
<path id="Vector" d="M6.49313 11.3333L4.9998 12.8266C4.2198 13.6066 2.95313 13.6066 2.17313 12.8266C1.39313 12.0466 1.39313 10.78 2.17313 9.99997L4.9998 7.1733C5.7798 6.3933 7.04647 6.3933 7.82647 7.1733C8.08647 7.4333 8.50647 7.4333 8.76647 7.1733C9.02647 6.9133 9.02647 6.4933 8.76647 6.2333C7.46647 4.9333 5.35313 4.9333 4.05313 6.2333L1.22646 9.05997C-0.0735351 10.36 -0.0735351 12.4733 1.22646 13.7733C1.87313 14.42 2.72646 14.7466 3.58646 14.7466C4.44646 14.7466 5.29313 14.42 5.94647 13.7733L7.4398 12.28C7.6998 12.02 7.6998 11.6 7.4398 11.34C7.1798 11.08 6.7598 11.08 6.4998 11.34L6.49313 11.3333Z" fill="white"/>
<path id="Vector_2" d="M13.1066 1.89346C11.8066 0.593457 9.69325 0.593457 8.39325 1.89346L6.89992 3.38679C6.63992 3.64679 6.63992 4.06679 6.89992 4.32679C7.15992 4.58679 7.57992 4.58679 7.83992 4.32679L9.33325 2.83346C10.1132 2.05346 11.3799 2.05346 12.1599 2.83346C12.9399 3.61346 12.9399 4.88012 12.1599 5.66012L9.33325 8.48679C8.55325 9.26679 7.28658 9.26679 6.50658 8.48679C6.24658 8.22679 5.82658 8.22679 5.56658 8.48679C5.30658 8.74679 5.30658 9.16679 5.56658 9.42679C6.21325 10.0735 7.06658 10.4001 7.92658 10.4001C8.78658 10.4001 9.63325 10.0735 10.2866 9.42679L13.1132 6.60012C14.4132 5.30012 14.4132 3.18679 13.1132 1.88679L13.1066 1.89346Z" fill="white"/>
</g>
</svg>
