<svg width="22" height="21" viewBox="0 0 22 21" fill="none" xmlns="http://www.w3.org/2000/svg">
<g id="Group">
<path id="Vector" d="M11 7C10.45 7 10 7.45 10 8V12C10 12.55 10.45 13 11 13C11.55 13 12 12.55 12 12V8C12 7.45 11.55 7 11 7Z" fill="#02060D"/>
<path id="Vector_2" d="M11 17C11.5523 17 12 16.5523 12 16C12 15.4477 11.5523 15 11 15C10.4477 15 10 15.4477 10 16C10 16.5523 10.4477 17 11 17Z" fill="#02060D"/>
<path id="Vector_3" d="M21.4499 15.1098L14.2899 2.6998C13.5999 1.5098 12.3799 0.799805 11.0099 0.799805C9.63991 0.799805 8.40991 1.5098 7.72991 2.6998L0.569909 15.1098C-0.120091 16.2998 -0.110091 17.7198 0.569909 18.8998C1.25991 20.0898 2.47991 20.7998 3.84991 20.7998H18.1799C19.5499 20.7998 20.7799 20.0898 21.4599 18.8998C22.1499 17.7098 22.1499 16.2898 21.4599 15.1098H21.4499ZM19.7199 17.8998C19.3999 18.4598 18.8199 18.7998 18.1699 18.7998H3.83991C3.18991 18.7998 2.60991 18.4698 2.28991 17.8998C1.96991 17.3398 1.96991 16.6698 2.28991 16.1098L9.44991 3.6998C9.76991 3.1398 10.3499 2.7998 10.9999 2.7998C11.6499 2.7998 12.2299 3.1298 12.5499 3.6998L19.7099 16.1098C20.0299 16.6698 20.0299 17.3398 19.7099 17.8998H19.7199Z" fill="#02060D"/>
</g>
</svg>
