<svg width="65" height="108" viewBox="0 0 65 108" fill="none" xmlns="http://www.w3.org/2000/svg">
<rect x="0.54248" y="0.5" width="63" height="107" rx="4.5" stroke="#9747FF" stroke-dasharray="10 5"/>
<path d="M39.0425 31H33.0425V25C33.0425 24.45 32.5925 24 32.0425 24C31.4925 24 31.0425 24.45 31.0425 25V31H25.0425C24.4925 31 24.0425 31.45 24.0425 32C24.0425 32.55 24.4925 33 25.0425 33H31.0425V39C31.0425 39.55 31.4925 40 32.0425 40C32.5925 40 33.0425 39.55 33.0425 39V33H39.0425C39.5925 33 40.0425 32.55 40.0425 32C40.0425 31.45 39.5925 31 39.0425 31Z" fill="white"/>
<path d="M39.0425 75H33.0425V69C33.0425 68.45 32.5925 68 32.0425 68C31.4925 68 31.0425 68.45 31.0425 69V75H25.0425C24.4925 75 24.0425 75.45 24.0425 76C24.0425 76.55 24.4925 77 25.0425 77H31.0425V83C31.0425 83.55 31.4925 84 32.0425 84C32.5925 84 33.0425 83.55 33.0425 83V77H39.0425C39.5925 77 40.0425 76.55 40.0425 76C40.0425 75.45 39.5925 75 39.0425 75Z" fill="#01FF1A"/>
</svg>
