<svg width="65" height="108" viewBox="0 0 65 108" fill="none" xmlns="http://www.w3.org/2000/svg">
<rect x="0.52002" y="0.5" width="63" height="107" rx="4.5" stroke="#9747FF" stroke-dasharray="10 5"/>
<path d="M32.02 21C25.95 21 21.02 25.93 21.02 32C21.02 38.07 25.95 43 32.02 43C38.09 43 43.02 38.07 43.02 32C43.02 25.93 38.09 21 32.02 21ZM32.02 41C27.06 41 23.02 36.96 23.02 32C23.02 27.04 27.06 23 32.02 23C36.98 23 41.02 27.04 41.02 32C41.02 36.96 36.98 41 32.02 41Z" fill="white"/>
<path d="M32.02 27C31.47 27 31.02 27.45 31.02 28V32C31.02 32.55 31.47 33 32.02 33C32.57 33 33.02 32.55 33.02 32V28C33.02 27.45 32.57 27 32.02 27Z" fill="white"/>
<path d="M32.02 37C32.5723 37 33.02 36.5523 33.02 36C33.02 35.4477 32.5723 35 32.02 35C31.4677 35 31.02 35.4477 31.02 36C31.02 36.5523 31.4677 37 32.02 37Z" fill="white"/>
<path d="M32.02 65C25.95 65 21.02 69.93 21.02 76C21.02 82.07 25.95 87 32.02 87C38.09 87 43.02 82.07 43.02 76C43.02 69.93 38.09 65 32.02 65ZM32.02 85C27.06 85 23.02 80.96 23.02 76C23.02 71.04 27.06 67 32.02 67C36.98 67 41.02 71.04 41.02 76C41.02 80.96 36.98 85 32.02 85Z" fill="#01FF1A"/>
<path d="M32.02 71C31.47 71 31.02 71.45 31.02 72V76C31.02 76.55 31.47 77 32.02 77C32.57 77 33.02 76.55 33.02 76V72C33.02 71.45 32.57 71 32.02 71Z" fill="#01FF1A"/>
<path d="M32.02 81C32.5723 81 33.02 80.5523 33.02 80C33.02 79.4477 32.5723 79 32.02 79C31.4677 79 31.02 79.4477 31.02 80C31.02 80.5523 31.4677 81 32.02 81Z" fill="#01FF1A"/>
</svg>
