<svg width="65" height="108" viewBox="0 0 65 108" fill="none" xmlns="http://www.w3.org/2000/svg">
<rect x="0.52002" y="0.5" width="63" height="107" rx="4.5" stroke="#9747FF" stroke-dasharray="10 5"/>
<path d="M32.02 27C31.47 27 31.02 27.45 31.02 28V32C31.02 32.55 31.47 33 32.02 33C32.57 33 33.02 32.55 33.02 32V28C33.02 27.45 32.57 27 32.02 27Z" fill="white"/>
<path d="M32.02 37C32.5723 37 33.02 36.5523 33.02 36C33.02 35.4477 32.5723 35 32.02 35C31.4677 35 31.02 35.4477 31.02 36C31.02 36.5523 31.4677 37 32.02 37Z" fill="white"/>
<path d="M42.47 35.11L35.31 22.7C34.62 21.51 33.4 20.8 32.03 20.8C30.66 20.8 29.43 21.51 28.75 22.7L21.59 35.11C20.9 36.3 20.91 37.72 21.59 38.9C22.28 40.09 23.5 40.8 24.87 40.8H39.2C40.57 40.8 41.8 40.09 42.48 38.9C43.17 37.71 43.17 36.29 42.48 35.11H42.47ZM40.74 37.9C40.42 38.46 39.84 38.8 39.19 38.8H24.86C24.21 38.8 23.63 38.47 23.31 37.9C22.99 37.34 22.99 36.67 23.31 36.11L30.47 23.7C30.79 23.14 31.37 22.8 32.02 22.8C32.67 22.8 33.25 23.13 33.57 23.7L40.73 36.11C41.05 36.67 41.05 37.34 40.73 37.9H40.74Z" fill="white"/>
<path d="M32.02 71C31.47 71 31.02 71.45 31.02 72V76C31.02 76.55 31.47 77 32.02 77C32.57 77 33.02 76.55 33.02 76V72C33.02 71.45 32.57 71 32.02 71Z" fill="#01FF1A"/>
<path d="M32.02 81C32.5723 81 33.02 80.5523 33.02 80C33.02 79.4477 32.5723 79 32.02 79C31.4677 79 31.02 79.4477 31.02 80C31.02 80.5523 31.4677 81 32.02 81Z" fill="#01FF1A"/>
<path d="M42.47 79.11L35.31 66.7C34.62 65.51 33.4 64.8 32.03 64.8C30.66 64.8 29.43 65.51 28.75 66.7L21.59 79.11C20.9 80.3 20.91 81.72 21.59 82.9C22.28 84.09 23.5 84.8 24.87 84.8H39.2C40.57 84.8 41.8 84.09 42.48 82.9C43.17 81.71 43.17 80.29 42.48 79.11H42.47ZM40.74 81.9C40.42 82.46 39.84 82.8 39.19 82.8H24.86C24.21 82.8 23.63 82.47 23.31 81.9C22.99 81.34 22.99 80.67 23.31 80.11L30.47 67.7C30.79 67.14 31.37 66.8 32.02 66.8C32.67 66.8 33.25 67.13 33.57 67.7L40.73 80.11C41.05 80.67 41.05 81.34 40.73 81.9H40.74Z" fill="#01FF1A"/>
</svg>
