<svg width="65" height="108" viewBox="0 0 65 108" fill="none" xmlns="http://www.w3.org/2000/svg">
<rect x="0.54248" y="0.5" width="63" height="107" rx="4.5" stroke="#9747FF" stroke-dasharray="10 5"/>
<path d="M35.0425 39C34.7825 39 34.5325 38.9 34.3325 38.71L28.3325 32.71C27.9425 32.32 27.9425 31.69 28.3325 31.3L34.3325 25.3C34.7225 24.91 35.3525 24.91 35.7425 25.3C36.1325 25.69 36.1325 26.32 35.7425 26.71L30.4525 32L35.7425 37.29C36.1325 37.68 36.1325 38.31 35.7425 38.7C35.5425 38.9 35.2925 38.99 35.0325 38.99L35.0425 39Z" fill="white"/>
<path d="M35.0425 83C34.7825 83 34.5325 82.9 34.3325 82.71L28.3325 76.71C27.9425 76.32 27.9425 75.69 28.3325 75.3L34.3325 69.3C34.7225 68.91 35.3525 68.91 35.7425 69.3C36.1325 69.69 36.1325 70.32 35.7425 70.71L30.4525 76L35.7425 81.29C36.1325 81.68 36.1325 82.31 35.7425 82.7C35.5425 82.9 35.2925 82.99 35.0325 82.99L35.0425 83Z" fill="#01FF1A"/>
</svg>
