<svg width="65" height="108" viewBox="0 0 65 108" fill="none" xmlns="http://www.w3.org/2000/svg">
<rect x="0.54248" y="0.5" width="63" height="107" rx="4.5" stroke="#9747FF" stroke-dasharray="10 5"/>
<path d="M32.0425 36C31.7825 36 31.5325 35.9 31.3325 35.71L25.3325 29.71C24.9425 29.32 24.9425 28.69 25.3325 28.3C25.7225 27.91 26.3525 27.91 26.7425 28.3L32.0325 33.59L37.3225 28.3C37.7125 27.91 38.3425 27.91 38.7325 28.3C39.1225 28.69 39.1225 29.32 38.7325 29.71L32.7325 35.71C32.5325 35.91 32.2825 36 32.0225 36H32.0425Z" fill="white"/>
<path d="M32.0425 80C31.7825 80 31.5325 79.9 31.3325 79.71L25.3325 73.71C24.9425 73.32 24.9425 72.69 25.3325 72.3C25.7225 71.91 26.3525 71.91 26.7425 72.3L32.0325 77.59L37.3225 72.3C37.7125 71.91 38.3425 71.91 38.7325 72.3C39.1225 72.69 39.1225 73.32 38.7325 73.71L32.7325 79.71C32.5325 79.91 32.2825 80 32.0225 80H32.0425Z" fill="#01FF1A"/>
</svg>
