<svg width="65" height="108" viewBox="0 0 65 108" fill="none" xmlns="http://www.w3.org/2000/svg">
<rect x="0.54248" y="0.5" width="63" height="107" rx="4.5" stroke="#9747FF" stroke-dasharray="10 5"/>
<path d="M38.0424 36C37.7824 36 37.5324 35.9 37.3324 35.71L32.0424 30.42L26.7524 35.71C26.3624 36.1 25.7324 36.1 25.3424 35.71C24.9524 35.32 24.9524 34.69 25.3424 34.3L31.3424 28.3C31.7324 27.91 32.3624 27.91 32.7524 28.3L38.7524 34.3C39.1424 34.69 39.1424 35.32 38.7524 35.71C38.5524 35.91 38.3024 36 38.0424 36Z" fill="white"/>
<path d="M38.0424 80C37.7824 80 37.5324 79.9 37.3324 79.71L32.0424 74.42L26.7524 79.71C26.3624 80.1 25.7324 80.1 25.3424 79.71C24.9524 79.32 24.9524 78.69 25.3424 78.3L31.3424 72.3C31.7324 71.91 32.3624 71.91 32.7524 72.3L38.7524 78.3C39.1424 78.69 39.1424 79.32 38.7524 79.71C38.5524 79.91 38.3024 80 38.0424 80Z" fill="#01FF1A"/>
</svg>
