<svg width="65" height="108" viewBox="0 0 65 108" fill="none" xmlns="http://www.w3.org/2000/svg">
<rect x="0.54248" y="0.5" width="63" height="107" rx="4.5" stroke="#9747FF" stroke-dasharray="10 5"/>
<path d="M29.0425 39C28.7825 39 28.5325 38.9 28.3325 38.71C27.9425 38.32 27.9425 37.69 28.3325 37.3L33.6225 32.01L28.3325 26.72C27.9425 26.33 27.9425 25.7 28.3325 25.31C28.7225 24.92 29.3525 24.92 29.7425 25.31L35.7425 31.31C36.1325 31.7 36.1325 32.33 35.7425 32.72L29.7425 38.72C29.5425 38.92 29.2925 39.01 29.0325 39.01L29.0425 39Z" fill="white"/>
<path d="M29.0425 83C28.7825 83 28.5325 82.9 28.3325 82.71C27.9425 82.32 27.9425 81.69 28.3325 81.3L33.6225 76.01L28.3325 70.72C27.9425 70.33 27.9425 69.7 28.3325 69.31C28.7225 68.92 29.3525 68.92 29.7425 69.31L35.7425 75.31C36.1325 75.7 36.1325 76.33 35.7425 76.72L29.7425 82.72C29.5425 82.92 29.2925 83.01 29.0325 83.01L29.0425 83Z" fill="#01FF1A"/>
</svg>
