<svg width="65" height="108" viewBox="0 0 65 108" fill="none" xmlns="http://www.w3.org/2000/svg">
<rect x="0.54248" y="0.5" width="63" height="107" rx="4.5" stroke="#9747FF" stroke-dasharray="10 5"/>
<path d="M41.1325 36.12C40.4325 35.18 40.0425 34.02 40.0425 32.85V29C40.0425 24.59 36.4525 21 32.0425 21C27.6325 21 24.0425 24.59 24.0425 29V32.85C24.0425 34.02 23.6525 35.18 22.9525 36.12C22.4025 36.86 22.3125 37.83 22.7225 38.66C23.1325 39.49 23.9725 40 24.8925 40H28.1825C28.6325 41.72 30.1825 43 32.0425 43C33.9025 43 35.4525 41.72 35.9025 40H39.1925C40.1125 40 40.9525 39.49 41.3625 38.66C41.7725 37.83 41.6925 36.86 41.1325 36.12ZM32.0425 41C31.3025 41 30.6725 40.59 30.3225 40H33.7625C33.4125 40.59 32.7825 41 32.0425 41ZM39.5725 37.76C39.5325 37.85 39.4225 38 39.1925 38H24.8925C24.6625 38 24.5525 37.85 24.5125 37.76C24.4725 37.67 24.4125 37.5 24.5525 37.31C25.5125 36.03 26.0425 34.44 26.0425 32.84V28.99C26.0425 25.68 28.7325 22.99 32.0425 22.99C35.3525 22.99 38.0425 25.68 38.0425 28.99V32.84C38.0425 34.44 38.5725 36.03 39.5325 37.31C39.6725 37.49 39.6125 37.67 39.5725 37.76Z" fill="white"/>
<path d="M41.1325 80.12C40.4325 79.18 40.0425 78.02 40.0425 76.85V73C40.0425 68.59 36.4525 65 32.0425 65C27.6325 65 24.0425 68.59 24.0425 73V76.85C24.0425 78.02 23.6525 79.18 22.9525 80.12C22.4025 80.86 22.3125 81.83 22.7225 82.66C23.1325 83.49 23.9725 84 24.8925 84H28.1825C28.6325 85.72 30.1825 87 32.0425 87C33.9025 87 35.4525 85.72 35.9025 84H39.1925C40.1125 84 40.9525 83.49 41.3625 82.66C41.7725 81.83 41.6925 80.86 41.1325 80.12ZM32.0425 85C31.3025 85 30.6725 84.59 30.3225 84H33.7625C33.4125 84.59 32.7825 85 32.0425 85ZM39.5725 81.76C39.5325 81.85 39.4225 82 39.1925 82H24.8925C24.6625 82 24.5525 81.85 24.5125 81.76C24.4725 81.67 24.4125 81.5 24.5525 81.31C25.5125 80.03 26.0425 78.44 26.0425 76.84V72.99C26.0425 69.68 28.7325 66.99 32.0425 66.99C35.3525 66.99 38.0425 69.68 38.0425 72.99V76.84C38.0425 78.44 38.5725 80.03 39.5325 81.31C39.6725 81.49 39.6125 81.67 39.5725 81.76Z" fill="#01FF1A"/>
</svg>
