<svg width="65" height="108" viewBox="0 0 65 108" fill="none" xmlns="http://www.w3.org/2000/svg">
<rect x="0.52002" y="0.5" width="63" height="107" rx="4.5" stroke="#9747FF" stroke-dasharray="10 5"/>
<path d="M41.02 25H37.02V24C37.02 22.35 35.67 21 34.02 21H30.02C28.37 21 27.02 22.35 27.02 24V25H23.02C22.47 25 22.02 25.45 22.02 26C22.02 26.55 22.47 27 23.02 27H24.02V40C24.02 41.65 25.37 43 27.02 43H37.02C38.67 43 40.02 41.65 40.02 40V27H41.02C41.57 27 42.02 26.55 42.02 26C42.02 25.45 41.57 25 41.02 25ZM29.02 24C29.02 23.45 29.47 23 30.02 23H34.02C34.57 23 35.02 23.45 35.02 24V25H29.02V24ZM38.02 40C38.02 40.55 37.57 41 37.02 41H27.02C26.47 41 26.02 40.55 26.02 40V27H38.02V40Z" fill="white"/>
<path d="M30.02 30C29.47 30 29.02 30.45 29.02 31V37C29.02 37.55 29.47 38 30.02 38C30.57 38 31.02 37.55 31.02 37V31C31.02 30.45 30.57 30 30.02 30Z" fill="white"/>
<path d="M34.02 30C33.47 30 33.02 30.45 33.02 31V37C33.02 37.55 33.47 38 34.02 38C34.57 38 35.02 37.55 35.02 37V31C35.02 30.45 34.57 30 34.02 30Z" fill="white"/>
<path d="M41.02 69H37.02V68C37.02 66.35 35.67 65 34.02 65H30.02C28.37 65 27.02 66.35 27.02 68V69H23.02C22.47 69 22.02 69.45 22.02 70C22.02 70.55 22.47 71 23.02 71H24.02V84C24.02 85.65 25.37 87 27.02 87H37.02C38.67 87 40.02 85.65 40.02 84V71H41.02C41.57 71 42.02 70.55 42.02 70C42.02 69.45 41.57 69 41.02 69ZM29.02 68C29.02 67.45 29.47 67 30.02 67H34.02C34.57 67 35.02 67.45 35.02 68V69H29.02V68ZM38.02 84C38.02 84.55 37.57 85 37.02 85H27.02C26.47 85 26.02 84.55 26.02 84V71H38.02V84Z" fill="#01FF1A"/>
<path d="M30.02 74C29.47 74 29.02 74.45 29.02 75V81C29.02 81.55 29.47 82 30.02 82C30.57 82 31.02 81.55 31.02 81V75C31.02 74.45 30.57 74 30.02 74Z" fill="#01FF1A"/>
<path d="M34.02 74C33.47 74 33.02 74.45 33.02 75V81C33.02 81.55 33.47 82 34.02 82C34.57 82 35.02 81.55 35.02 81V75C35.02 74.45 34.57 74 34.02 74Z" fill="#01FF1A"/>
</svg>
