<svg width="65" height="108" viewBox="0 0 65 108" fill="none" xmlns="http://www.w3.org/2000/svg">
<rect x="0.52002" y="0.5" width="63" height="107" rx="4.5" stroke="#9747FF" stroke-dasharray="10 5"/>
<path d="M39.02 23H37.02V22C37.02 21.45 36.57 21 36.02 21C35.47 21 35.02 21.45 35.02 22V23H29.02V22C29.02 21.45 28.57 21 28.02 21C27.47 21 27.02 21.45 27.02 22V23H25.02C23.37 23 22.02 24.35 22.02 26V40C22.02 41.65 23.37 43 25.02 43H39.02C40.67 43 42.02 41.65 42.02 40V26C42.02 24.35 40.67 23 39.02 23ZM25.02 25H27.02V26C27.02 26.55 27.47 27 28.02 27C28.57 27 29.02 26.55 29.02 26V25H35.02V26C35.02 26.55 35.47 27 36.02 27C36.57 27 37.02 26.55 37.02 26V25H39.02C39.57 25 40.02 25.45 40.02 26V29H24.02V26C24.02 25.45 24.47 25 25.02 25ZM39.02 41H25.02C24.47 41 24.02 40.55 24.02 40V31H40.02V40C40.02 40.55 39.57 41 39.02 41Z" fill="white"/>
<path d="M39.02 67H37.02V66C37.02 65.45 36.57 65 36.02 65C35.47 65 35.02 65.45 35.02 66V67H29.02V66C29.02 65.45 28.57 65 28.02 65C27.47 65 27.02 65.45 27.02 66V67H25.02C23.37 67 22.02 68.35 22.02 70V84C22.02 85.65 23.37 87 25.02 87H39.02C40.67 87 42.02 85.65 42.02 84V70C42.02 68.35 40.67 67 39.02 67ZM25.02 69H27.02V70C27.02 70.55 27.47 71 28.02 71C28.57 71 29.02 70.55 29.02 70V69H35.02V70C35.02 70.55 35.47 71 36.02 71C36.57 71 37.02 70.55 37.02 70V69H39.02C39.57 69 40.02 69.45 40.02 70V73H24.02V70C24.02 69.45 24.47 69 25.02 69ZM39.02 85H25.02C24.47 85 24.02 84.55 24.02 84V75H40.02V84C40.02 84.55 39.57 85 39.02 85Z" fill="#01FF1A"/>
</svg>
