<svg width="21" height="22" viewBox="0 0 21 22" fill="none" xmlns="http://www.w3.org/2000/svg">
<path id="Vector" d="M17.02 2H15.02V1C15.02 0.45 14.57 0 14.02 0C13.47 0 13.02 0.45 13.02 1V2H7.02002V1C7.02002 0.45 6.57002 0 6.02002 0C5.47002 0 5.02002 0.45 5.02002 1V2H3.02002C1.37002 2 0.0200195 3.35 0.0200195 5V19C0.0200195 20.65 1.37002 22 3.02002 22H17.02C18.67 22 20.02 20.65 20.02 19V5C20.02 3.35 18.67 2 17.02 2ZM3.02002 4H5.02002V5C5.02002 5.55 5.47002 6 6.02002 6C6.57002 6 7.02002 5.55 7.02002 5V4H13.02V5C13.02 5.55 13.47 6 14.02 6C14.57 6 15.02 5.55 15.02 5V4H17.02C17.57 4 18.02 4.45 18.02 5V8H2.02002V5C2.02002 4.45 2.47002 4 3.02002 4ZM17.02 20H3.02002C2.47002 20 2.02002 19.55 2.02002 19V10H18.02V19C18.02 19.55 17.57 20 17.02 20Z" fill="white"/>
</svg>
