<svg width="65" height="108" viewBox="0 0 65 108" fill="none" xmlns="http://www.w3.org/2000/svg">
<rect x="0.54248" y="0.5" width="63" height="107" rx="4.5" stroke="#9747FF" stroke-dasharray="10 5"/>
<path d="M40.0425 34H37.0425C36.7725 34 36.5225 34.11 36.3325 34.29L34.6925 35.93C34.0525 35.76 32.6325 35.19 30.7425 33.29C28.8525 31.39 28.2725 29.96 28.1025 29.34L29.7425 27.7C29.9325 27.51 30.0325 27.26 30.0325 26.99V23.99C30.0325 22.34 28.6825 20.99 27.0325 20.99H24.0825C23.2525 20.99 22.4825 21.32 21.9125 21.92C21.3425 22.51 21.0425 23.32 21.0825 24.14C21.6725 36.55 27.4725 42.35 39.8825 42.94C39.8825 42.94 39.9725 42.94 40.0225 42.94C40.7925 42.94 41.5425 42.64 42.1025 42.11C42.7025 41.54 43.0325 40.77 43.0325 39.94V36.99C43.0325 35.34 41.6825 33.99 40.0325 33.99L40.0425 34ZM41.0425 39.95C41.0425 40.23 40.9325 40.48 40.7325 40.67C40.5325 40.86 40.2625 40.97 39.9825 40.95C28.6825 40.41 23.6225 35.36 23.0925 24.06C23.0825 23.78 23.1825 23.52 23.3725 23.31C23.5625 23.11 23.8225 23 24.0925 23H27.0425C27.5925 23 28.0425 23.45 28.0425 24V26.59L26.3325 28.3C26.1425 28.49 26.0425 28.74 26.0425 29.01C26.0425 29.26 26.1325 31.52 29.3325 34.72C32.5325 37.92 34.7925 38.01 35.0425 38.01C35.3125 38.01 35.5625 37.9 35.7525 37.72L37.4625 36.01H40.0525C40.6025 36.01 41.0525 36.46 41.0525 37.01V39.96L41.0425 39.95Z" fill="white"/>
<path d="M35.0425 20C34.4925 20 34.0425 20.45 34.0425 21C34.0425 21.55 34.4925 22 35.0425 22C38.9025 22 42.0425 25.14 42.0425 29C42.0425 29.55 42.4925 30 43.0425 30C43.5925 30 44.0425 29.55 44.0425 29C44.0425 24.04 40.0025 20 35.0425 20Z" fill="white"/>
<path d="M37.7725 29C37.7725 29.55 38.2225 30 38.7725 30C39.3225 30 39.7725 29.55 39.7725 29C39.7725 26.39 37.6525 24.27 35.0425 24.27C34.4925 24.27 34.0425 24.72 34.0425 25.27C34.0425 25.82 34.4925 26.27 35.0425 26.27C36.5525 26.27 37.7725 27.5 37.7725 29Z" fill="white"/>
<path d="M40.0425 78H37.0425C36.7725 78 36.5225 78.11 36.3325 78.29L34.6925 79.93C34.0525 79.76 32.6325 79.19 30.7425 77.29C28.8525 75.39 28.2725 73.96 28.1025 73.34L29.7425 71.7C29.9325 71.51 30.0325 71.26 30.0325 70.99V67.99C30.0325 66.34 28.6825 64.99 27.0325 64.99H24.0825C23.2525 64.99 22.4825 65.32 21.9125 65.92C21.3425 66.51 21.0425 67.32 21.0825 68.14C21.6725 80.55 27.4725 86.35 39.8825 86.94C39.8825 86.94 39.9725 86.94 40.0225 86.94C40.7925 86.94 41.5425 86.64 42.1025 86.11C42.7025 85.54 43.0325 84.77 43.0325 83.94V80.99C43.0325 79.34 41.6825 77.99 40.0325 77.99L40.0425 78ZM41.0425 83.95C41.0425 84.23 40.9325 84.48 40.7325 84.67C40.5325 84.86 40.2625 84.97 39.9825 84.95C28.6825 84.41 23.6225 79.36 23.0925 68.06C23.0825 67.78 23.1825 67.52 23.3725 67.31C23.5625 67.11 23.8225 67 24.0925 67H27.0425C27.5925 67 28.0425 67.45 28.0425 68V70.59L26.3325 72.3C26.1425 72.49 26.0425 72.74 26.0425 73.01C26.0425 73.26 26.1325 75.52 29.3325 78.72C32.5325 81.92 34.7925 82.01 35.0425 82.01C35.3125 82.01 35.5625 81.9 35.7525 81.72L37.4625 80.01H40.0525C40.6025 80.01 41.0525 80.46 41.0525 81.01V83.96L41.0425 83.95Z" fill="#01FF1A"/>
<path d="M35.0425 64C34.4925 64 34.0425 64.45 34.0425 65C34.0425 65.55 34.4925 66 35.0425 66C38.9025 66 42.0425 69.14 42.0425 73C42.0425 73.55 42.4925 74 43.0425 74C43.5925 74 44.0425 73.55 44.0425 73C44.0425 68.04 40.0025 64 35.0425 64Z" fill="#01FF1A"/>
<path d="M37.7725 73C37.7725 73.55 38.2225 74 38.7725 74C39.3225 74 39.7725 73.55 39.7725 73C39.7725 70.39 37.6525 68.27 35.0425 68.27C34.4925 68.27 34.0425 68.72 34.0425 69.27C34.0425 69.82 34.4925 70.27 35.0425 70.27C36.5525 70.27 37.7725 71.5 37.7725 73Z" fill="#01FF1A"/>
</svg>
