<svg width="65" height="108" viewBox="0 0 65 108" fill="none" xmlns="http://www.w3.org/2000/svg">
<rect x="0.52002" y="0.5" width="63" height="107" rx="4.5" stroke="#9747FF" stroke-dasharray="10 5"/>
<path d="M42.02 31C41.47 31 41.02 31.45 41.02 32C41.02 36.96 36.98 41 32.02 41C27.06 41 23.02 36.96 23.02 32C23.02 27.04 27.06 23 32.02 23C33.4 23 34.72 23.3 35.95 23.9C36.45 24.14 37.05 23.93 37.29 23.44C37.53 22.94 37.32 22.34 36.83 22.1C35.33 21.37 33.71 21 32.03 21C25.96 21 21.03 25.93 21.03 32C21.03 38.07 25.96 43 32.03 43C38.1 43 43.03 38.07 43.03 32C43.03 31.45 42.58 31 42.03 31H42.02Z" fill="white"/>
<path d="M29.73 30.29C29.34 29.9 28.71 29.9 28.32 30.29C27.93 30.68 27.93 31.31 28.32 31.7L31.32 34.7C31.52 34.9 31.77 34.99 32.03 34.99C32.29 34.99 32.54 34.89 32.74 34.7L42.74 24.7C43.13 24.31 43.13 23.68 42.74 23.29C42.35 22.9 41.72 22.9 41.33 23.29L32.04 32.58L29.75 30.29H29.73Z" fill="white"/>
<path d="M42.02 75C41.47 75 41.02 75.45 41.02 76C41.02 80.96 36.98 85 32.02 85C27.06 85 23.02 80.96 23.02 76C23.02 71.04 27.06 67 32.02 67C33.4 67 34.72 67.3 35.95 67.9C36.45 68.14 37.05 67.93 37.29 67.44C37.53 66.94 37.32 66.34 36.83 66.1C35.33 65.37 33.71 65 32.03 65C25.96 65 21.03 69.93 21.03 76C21.03 82.07 25.96 87 32.03 87C38.1 87 43.03 82.07 43.03 76C43.03 75.45 42.58 75 42.03 75H42.02Z" fill="#01FF1A"/>
<path d="M29.73 74.29C29.34 73.9 28.71 73.9 28.32 74.29C27.93 74.68 27.93 75.31 28.32 75.7L31.32 78.7C31.52 78.9 31.77 78.99 32.03 78.99C32.29 78.99 32.54 78.89 32.74 78.7L42.74 68.7C43.13 68.31 43.13 67.68 42.74 67.29C42.35 66.9 41.72 66.9 41.33 67.29L32.04 76.58L29.75 74.29H29.73Z" fill="#01FF1A"/>
</svg>
