<svg width="65" height="108" viewBox="0 0 65 108" fill="none" xmlns="http://www.w3.org/2000/svg">
<rect x="0.52002" y="0.5" width="63" height="107" rx="4.5" stroke="#9747FF" stroke-dasharray="10 5"/>
<path d="M41.02 23H28.02C27.73 23 27.46 23.12 27.27 23.34L20.27 31.34C19.94 31.72 19.94 32.28 20.27 32.66L27.27 40.66C27.46 40.88 27.73 41 28.02 41H41.02C42.67 41 44.02 39.65 44.02 38V26C44.02 24.35 42.67 23 41.02 23ZM42.02 38C42.02 38.55 41.57 39 41.02 39H28.47L22.35 32L28.47 25H41.02C41.57 25 42.02 25.45 42.02 26V38Z" fill="white"/>
<path d="M38.73 28.29C38.34 27.9 37.71 27.9 37.32 28.29L35.28 30.33L33.24 28.29C32.85 27.9 32.22 27.9 31.83 28.29C31.44 28.68 31.44 29.31 31.83 29.7L33.87 31.74L31.83 33.78C31.44 34.17 31.44 34.8 31.83 35.19C32.03 35.39 32.28 35.48 32.54 35.48C32.8 35.48 33.05 35.38 33.25 35.19L35.29 33.15L37.33 35.19C37.53 35.39 37.78 35.48 38.04 35.48C38.3 35.48 38.55 35.38 38.75 35.19C39.14 34.8 39.14 34.17 38.75 33.78L36.71 31.74L38.75 29.7C39.14 29.31 39.14 28.68 38.75 28.29H38.73Z" fill="white"/>
<path d="M41.02 67H28.02C27.73 67 27.46 67.12 27.27 67.34L20.27 75.34C19.94 75.72 19.94 76.28 20.27 76.66L27.27 84.66C27.46 84.88 27.73 85 28.02 85H41.02C42.67 85 44.02 83.65 44.02 82V70C44.02 68.35 42.67 67 41.02 67ZM42.02 82C42.02 82.55 41.57 83 41.02 83H28.47L22.35 76L28.47 69H41.02C41.57 69 42.02 69.45 42.02 70V82Z" fill="#01FF1A"/>
<path d="M38.73 72.29C38.34 71.9 37.71 71.9 37.32 72.29L35.28 74.33L33.24 72.29C32.85 71.9 32.22 71.9 31.83 72.29C31.44 72.68 31.44 73.31 31.83 73.7L33.87 75.74L31.83 77.78C31.44 78.17 31.44 78.8 31.83 79.19C32.03 79.39 32.28 79.48 32.54 79.48C32.8 79.48 33.05 79.38 33.25 79.19L35.29 77.15L37.33 79.19C37.53 79.39 37.78 79.48 38.04 79.48C38.3 79.48 38.55 79.38 38.75 79.19C39.14 78.8 39.14 78.17 38.75 77.78L36.71 75.74L38.75 73.7C39.14 73.31 39.14 72.68 38.75 72.29H38.73Z" fill="#01FF1A"/>
</svg>
