<svg width="65" height="108" viewBox="0 0 65 108" fill="none" xmlns="http://www.w3.org/2000/svg">
<rect x="0.54248" y="0.5" width="63" height="107" rx="4.5" stroke="#9747FF" stroke-dasharray="10 5"/>
<path d="M40.9625 27.62C40.9125 27.5 40.8425 27.39 40.7425 27.3L34.7425 21.3C34.6525 21.21 34.5425 21.13 34.4225 21.08C34.3025 21.03 34.1725 21 34.0425 21H26.0425C24.3925 21 23.0425 22.35 23.0425 24V40C23.0425 41.65 24.3925 43 26.0425 43H38.0425C39.6925 43 41.0425 41.65 41.0425 40V28C41.0425 27.87 41.0125 27.74 40.9625 27.62ZM35.0425 24.42L37.6325 27.01H35.0425V24.42ZM39.0425 40.01C39.0425 40.56 38.5925 41.01 38.0425 41.01H26.0425C25.4925 41.01 25.0425 40.56 25.0425 40.01V24.01C25.0425 23.46 25.4925 23.01 26.0425 23.01H33.0425V28.01C33.0425 28.56 33.4925 29.01 34.0425 29.01H39.0425V40.01Z" fill="white"/>
<path d="M28.0425 30H30.0425C30.5925 30 31.0425 29.55 31.0425 29C31.0425 28.45 30.5925 28 30.0425 28H28.0425C27.4925 28 27.0425 28.45 27.0425 29C27.0425 29.55 27.4925 30 28.0425 30Z" fill="white"/>
<path d="M27.0425 33C27.0425 33.55 27.4925 34 28.0425 34H36.0425C36.5925 34 37.0425 33.55 37.0425 33C37.0425 32.45 36.5925 32 36.0425 32H28.0425C27.4925 32 27.0425 32.45 27.0425 33Z" fill="white"/>
<path d="M36.0425 36H28.0425C27.4925 36 27.0425 36.45 27.0425 37C27.0425 37.55 27.4925 38 28.0425 38H36.0425C36.5925 38 37.0425 37.55 37.0425 37C37.0425 36.45 36.5925 36 36.0425 36Z" fill="white"/>
<path d="M40.9625 71.62C40.9125 71.5 40.8425 71.39 40.7425 71.3L34.7425 65.3C34.6525 65.21 34.5425 65.13 34.4225 65.08C34.3025 65.03 34.1725 65 34.0425 65H26.0425C24.3925 65 23.0425 66.35 23.0425 68V84C23.0425 85.65 24.3925 87 26.0425 87H38.0425C39.6925 87 41.0425 85.65 41.0425 84V72C41.0425 71.87 41.0125 71.74 40.9625 71.62ZM35.0425 68.42L37.6325 71.01H35.0425V68.42ZM39.0425 84.01C39.0425 84.56 38.5925 85.01 38.0425 85.01H26.0425C25.4925 85.01 25.0425 84.56 25.0425 84.01V68.01C25.0425 67.46 25.4925 67.01 26.0425 67.01H33.0425V72.01C33.0425 72.56 33.4925 73.01 34.0425 73.01H39.0425V84.01Z" fill="#01FF1A"/>
<path d="M28.0425 74H30.0425C30.5925 74 31.0425 73.55 31.0425 73C31.0425 72.45 30.5925 72 30.0425 72H28.0425C27.4925 72 27.0425 72.45 27.0425 73C27.0425 73.55 27.4925 74 28.0425 74Z" fill="#01FF1A"/>
<path d="M27.0425 77C27.0425 77.55 27.4925 78 28.0425 78H36.0425C36.5925 78 37.0425 77.55 37.0425 77C37.0425 76.45 36.5925 76 36.0425 76H28.0425C27.4925 76 27.0425 76.45 27.0425 77Z" fill="#01FF1A"/>
<path d="M36.0425 80H28.0425C27.4925 80 27.0425 80.45 27.0425 81C27.0425 81.55 27.4925 82 28.0425 82H36.0425C36.5925 82 37.0425 81.55 37.0425 81C37.0425 80.45 36.5925 80 36.0425 80Z" fill="#01FF1A"/>
</svg>
