<svg width="12" height="16" viewBox="0 0 12 16" fill="none" xmlns="http://www.w3.org/2000/svg">
<g id="Group">
<path id="Vector" d="M11.9467 5.08C11.9133 5 11.8667 4.92667 11.8 4.86667L7.8 0.866669C7.74 0.806669 7.66667 0.753335 7.58667 0.720002C7.50667 0.686668 7.42 0.666667 7.33333 0.666667H2C0.9 0.666667 0 1.56667 0 2.66667V13.3333C0 14.4333 0.9 15.3333 2 15.3333H10C11.1 15.3333 12 14.4333 12 13.3333V5.33333C12 5.24667 11.98 5.16 11.9467 5.08ZM8 2.94667L9.72666 4.67333H8V2.94667ZM10.6667 13.34C10.6667 13.7067 10.3667 14.0067 10 14.0067H2C1.63333 14.0067 1.33333 13.7067 1.33333 13.34V2.67333C1.33333 2.30667 1.63333 2.00667 2 2.00667H6.66667V5.34C6.66667 5.70667 6.96667 6.00667 7.33333 6.00667H10.6667V13.34Z" fill="white"/>
<path id="Vector_2" d="M3.33366 6.66667H4.66699C5.03366 6.66667 5.33366 6.36667 5.33366 6C5.33366 5.63333 5.03366 5.33333 4.66699 5.33333H3.33366C2.96699 5.33333 2.66699 5.63333 2.66699 6C2.66699 6.36667 2.96699 6.66667 3.33366 6.66667Z" fill="white"/>
<path id="Vector_3" d="M2.66699 8.66667C2.66699 9.03333 2.96699 9.33333 3.33366 9.33333H8.66699C9.03366 9.33333 9.33366 9.03333 9.33366 8.66667C9.33366 8.3 9.03366 8 8.66699 8H3.33366C2.96699 8 2.66699 8.3 2.66699 8.66667Z" fill="white"/>
<path id="Vector_4" d="M8.66699 10.6667H3.33366C2.96699 10.6667 2.66699 10.9667 2.66699 11.3333C2.66699 11.7 2.96699 12 3.33366 12H8.66699C9.03366 12 9.33366 11.7 9.33366 11.3333C9.33366 10.9667 9.03366 10.6667 8.66699 10.6667Z" fill="white"/>
</g>
</svg>
