<svg width="14" height="12" viewBox="0 0 14 12" fill="none" xmlns="http://www.w3.org/2000/svg">
<g id="Group">
<path id="Vector" d="M9.41001 6.00007L13.7 1.71007C14.09 1.32007 14.09 0.690068 13.7 0.300068C13.31 -0.0899316 12.68 -0.0899316 12.29 0.300068L7.29 5.30007C6.9 5.69007 6.9 6.32007 7.29 6.71007L12.29 11.7101C12.49 11.9101 12.74 12.0001 13 12.0001C13.26 12.0001 13.51 11.9001 13.71 11.7101C14.1 11.3201 14.1 10.6901 13.71 10.3001L9.42 6.01007L9.41001 6.00007Z" fill="white"/>
<path id="Vector_2" d="M2.41001 6.00007L6.7 1.71007C7.09 1.32007 7.09 0.690068 6.7 0.300068C6.31 -0.0899316 5.68 -0.0899316 5.29 0.300068L0.289998 5.30007C-0.100002 5.69007 -0.100002 6.32007 0.289998 6.71007L5.29 11.7101C5.49 11.9101 5.74 12.0001 6 12.0001C6.26 12.0001 6.51001 11.9001 6.71001 11.7101C7.10001 11.3201 7.10001 10.6901 6.71001 10.3001L2.42 6.01007L2.41001 6.00007Z" fill="white"/>
</g>
</svg>
