<svg width="65" height="108" viewBox="0 0 65 108" fill="none" xmlns="http://www.w3.org/2000/svg">
<rect x="0.54248" y="0.5" width="63" height="107" rx="4.5" stroke="#9747FF" stroke-dasharray="10 5"/>
<path d="M32.7526 32.29C32.3626 31.9 31.7325 31.9 31.3425 32.29L26.3425 37.29C25.9525 37.68 25.9525 38.31 26.3425 38.7C26.7325 39.09 27.3626 39.09 27.7526 38.7L32.0425 34.41L36.3325 38.7C36.5325 38.9 36.7825 38.99 37.0425 38.99C37.3025 38.99 37.5526 38.89 37.7526 38.7C38.1426 38.31 38.1426 37.68 37.7526 37.29L32.7526 32.29Z" fill="white"/>
<path d="M27.7526 31.71L32.0425 27.42L36.3325 31.71C36.5325 31.91 36.7825 32 37.0425 32C37.3025 32 37.5526 31.9 37.7526 31.71C38.1426 31.32 38.1426 30.69 37.7526 30.3L32.7526 25.3C32.3626 24.91 31.7325 24.91 31.3425 25.3L26.3425 30.3C25.9525 30.69 25.9525 31.32 26.3425 31.71C26.7325 32.1 27.3626 32.1 27.7526 31.71Z" fill="white"/>
<path d="M32.7526 76.29C32.3626 75.9 31.7325 75.9 31.3425 76.29L26.3425 81.29C25.9525 81.68 25.9525 82.31 26.3425 82.7C26.7325 83.09 27.3626 83.09 27.7526 82.7L32.0425 78.41L36.3325 82.7C36.5325 82.9 36.7825 82.99 37.0425 82.99C37.3025 82.99 37.5526 82.89 37.7526 82.7C38.1426 82.31 38.1426 81.68 37.7526 81.29L32.7526 76.29Z" fill="#01FF1A"/>
<path d="M27.7526 75.71L32.0425 71.42L36.3325 75.71C36.5325 75.91 36.7825 76 37.0425 76C37.3025 76 37.5526 75.9 37.7526 75.71C38.1426 75.32 38.1426 74.69 37.7526 74.3L32.7526 69.3C32.3626 68.91 31.7325 68.91 31.3425 69.3L26.3425 74.3C25.9525 74.69 25.9525 75.32 26.3425 75.71C26.7325 76.1 27.3626 76.1 27.7526 75.71Z" fill="#01FF1A"/>
</svg>
