<svg width="65" height="108" viewBox="0 0 65 108" fill="none" xmlns="http://www.w3.org/2000/svg">
<rect x="0.54248" y="0.5" width="63" height="107" rx="4.5" stroke="#9747FF" stroke-dasharray="10 5"/>
<path d="M31.7526 31.29L26.7526 26.29C26.3626 25.9 25.7325 25.9 25.3425 26.29C24.9525 26.68 24.9525 27.31 25.3425 27.7L29.6325 31.99L25.3425 36.28C24.9525 36.67 24.9525 37.3 25.3425 37.69C25.5425 37.89 25.7925 37.98 26.0525 37.98C26.3125 37.98 26.5625 37.88 26.7625 37.69L31.7625 32.69C32.1525 32.3 32.1525 31.67 31.7625 31.28L31.7526 31.29Z" fill="white"/>
<path d="M38.7526 31.29L33.7526 26.29C33.3626 25.9 32.7325 25.9 32.3425 26.29C31.9525 26.68 31.9525 27.31 32.3425 27.7L36.6325 31.99L32.3425 36.28C31.9525 36.67 31.9525 37.3 32.3425 37.69C32.5425 37.89 32.7925 37.98 33.0525 37.98C33.3125 37.98 33.5625 37.88 33.7625 37.69L38.7625 32.69C39.1525 32.3 39.1525 31.67 38.7625 31.28L38.7526 31.29Z" fill="white"/>
<path d="M31.7526 75.29L26.7526 70.29C26.3626 69.9 25.7325 69.9 25.3425 70.29C24.9525 70.68 24.9525 71.31 25.3425 71.7L29.6325 75.99L25.3425 80.28C24.9525 80.67 24.9525 81.3 25.3425 81.69C25.5425 81.89 25.7925 81.98 26.0525 81.98C26.3125 81.98 26.5625 81.88 26.7625 81.69L31.7625 76.69C32.1525 76.3 32.1525 75.67 31.7625 75.28L31.7526 75.29Z" fill="#01FF1A"/>
<path d="M38.7526 75.29L33.7526 70.29C33.3626 69.9 32.7325 69.9 32.3425 70.29C31.9525 70.68 31.9525 71.31 32.3425 71.7L36.6325 75.99L32.3425 80.28C31.9525 80.67 31.9525 81.3 32.3425 81.69C32.5425 81.89 32.7925 81.98 33.0525 81.98C33.3125 81.98 33.5625 81.88 33.7625 81.69L38.7625 76.69C39.1525 76.3 39.1525 75.67 38.7625 75.28L38.7526 75.29Z" fill="#01FF1A"/>
</svg>
