<svg width="15" height="12" viewBox="0 0 15 12" fill="none" xmlns="http://www.w3.org/2000/svg">
<g id="Group">
<path id="Vector" d="M6.71007 5.29006L1.71007 0.290059C1.32007 -0.0999414 0.690068 -0.0999414 0.300068 0.290059C-0.0899316 0.680059 -0.0899316 1.31006 0.300068 1.70006L4.59006 5.99006L0.300068 10.2801C-0.0899316 10.6701 -0.0899316 11.3001 0.300068 11.6901C0.500068 11.8901 0.75006 11.9801 1.01006 11.9801C1.27006 11.9801 1.52007 11.8801 1.72007 11.6901L6.72007 6.69006C7.11007 6.30006 7.11007 5.67006 6.72007 5.28006L6.71007 5.29006Z" fill="white"/>
<path id="Vector_2" d="M13.7101 5.29006L8.71007 0.290059C8.32007 -0.0999414 7.69007 -0.0999414 7.30007 0.290059C6.91007 0.680059 6.91007 1.31006 7.30007 1.70006L11.5901 5.99006L7.30007 10.2801C6.91007 10.6701 6.91007 11.3001 7.30007 11.6901C7.50007 11.8901 7.75006 11.9801 8.01006 11.9801C8.27006 11.9801 8.52007 11.8801 8.72007 11.6901L13.7201 6.69006C14.1101 6.30006 14.1101 5.67006 13.7201 5.28006L13.7101 5.29006Z" fill="white"/>
</g>
</svg>
