<svg width="65" height="108" viewBox="0 0 65 108" fill="none" xmlns="http://www.w3.org/2000/svg">
<rect x="0.54248" y="0.5" width="63" height="107" rx="4.5" stroke="#9747FF" stroke-dasharray="10 5"/>
<path d="M31.3326 31.71C31.5326 31.91 31.7826 32 32.0426 32C32.3026 32 32.5526 31.9 32.7526 31.71L37.7526 26.71C38.1426 26.32 38.1426 25.69 37.7526 25.3C37.3626 24.91 36.7326 24.91 36.3426 25.3L32.0526 29.59L27.7626 25.3C27.3726 24.91 26.7426 24.91 26.3526 25.3C25.9626 25.69 25.9626 26.32 26.3526 26.71L31.3526 31.71H31.3326Z" fill="white"/>
<path d="M36.3325 32.29L32.0425 36.58L27.7525 32.29C27.3625 31.9 26.7325 31.9 26.3425 32.29C25.9525 32.68 25.9525 33.31 26.3425 33.7L31.3425 38.7C31.5425 38.9 31.7925 38.99 32.0525 38.99C32.3125 38.99 32.5625 38.89 32.7625 38.7L37.7625 33.7C38.1525 33.31 38.1525 32.68 37.7625 32.29C37.3725 31.9 36.7425 31.9 36.3525 32.29H36.3325Z" fill="white"/>
<path d="M31.3326 75.71C31.5326 75.91 31.7826 76 32.0426 76C32.3026 76 32.5526 75.9 32.7526 75.71L37.7526 70.71C38.1426 70.32 38.1426 69.69 37.7526 69.3C37.3626 68.91 36.7326 68.91 36.3426 69.3L32.0526 73.59L27.7626 69.3C27.3726 68.91 26.7426 68.91 26.3526 69.3C25.9626 69.69 25.9626 70.32 26.3526 70.71L31.3526 75.71H31.3326Z" fill="#01FF1A"/>
<path d="M36.3325 76.29L32.0425 80.58L27.7525 76.29C27.3625 75.9 26.7325 75.9 26.3425 76.29C25.9525 76.68 25.9525 77.31 26.3425 77.7L31.3425 82.7C31.5425 82.9 31.7925 82.99 32.0525 82.99C32.3125 82.99 32.5625 82.89 32.7625 82.7L37.7625 77.7C38.1525 77.31 38.1525 76.68 37.7625 76.29C37.3725 75.9 36.7425 75.9 36.3525 76.29H36.3325Z" fill="#01FF1A"/>
</svg>
