<svg width="65" height="108" viewBox="0 0 65 108" fill="none" xmlns="http://www.w3.org/2000/svg">
<rect x="0.54248" y="0.5" width="63" height="107" rx="4.5" stroke="#9747FF" stroke-dasharray="10 5"/>
<path d="M34.4525 32L38.7425 27.71C39.1325 27.32 39.1325 26.69 38.7425 26.3C38.3525 25.91 37.7225 25.91 37.3325 26.3L32.3325 31.3C31.9425 31.69 31.9425 32.32 32.3325 32.71L37.3325 37.71C37.5325 37.91 37.7825 38 38.0425 38C38.3025 38 38.5526 37.9 38.7526 37.71C39.1426 37.32 39.1426 36.69 38.7526 36.3L34.4625 32.01L34.4525 32Z" fill="white"/>
<path d="M27.4525 32L31.7425 27.71C32.1325 27.32 32.1325 26.69 31.7425 26.3C31.3525 25.91 30.7225 25.91 30.3325 26.3L25.3325 31.3C24.9425 31.69 24.9425 32.32 25.3325 32.71L30.3325 37.71C30.5325 37.91 30.7825 38 31.0425 38C31.3025 38 31.5526 37.9 31.7526 37.71C32.1426 37.32 32.1426 36.69 31.7526 36.3L27.4625 32.01L27.4525 32Z" fill="white"/>
<path d="M34.4525 76L38.7425 71.71C39.1325 71.32 39.1325 70.69 38.7425 70.3C38.3525 69.91 37.7225 69.91 37.3325 70.3L32.3325 75.3C31.9425 75.69 31.9425 76.32 32.3325 76.71L37.3325 81.71C37.5325 81.91 37.7825 82 38.0425 82C38.3025 82 38.5526 81.9 38.7526 81.71C39.1426 81.32 39.1426 80.69 38.7526 80.3L34.4625 76.01L34.4525 76Z" fill="#01FF1A"/>
<path d="M27.4525 76L31.7425 71.71C32.1325 71.32 32.1325 70.69 31.7425 70.3C31.3525 69.91 30.7225 69.91 30.3325 70.3L25.3325 75.3C24.9425 75.69 24.9425 76.32 25.3325 76.71L30.3325 81.71C30.5325 81.91 30.7825 82 31.0425 82C31.3025 82 31.5526 81.9 31.7526 81.71C32.1426 81.32 32.1426 80.69 31.7526 80.3L27.4625 76.01L27.4525 76Z" fill="#01FF1A"/>
</svg>
