<svg width="64" height="108" viewBox="0 0 64 108" fill="none" xmlns="http://www.w3.org/2000/svg">
<rect x="0.5" y="0.5" width="63" height="107" rx="4.5" stroke="#9747FF" stroke-dasharray="10 5"/>
<path d="M41 34C40.45 34 40 34.45 40 35V39C40 39.55 39.55 40 39 40H25C24.45 40 24 39.55 24 39V35C24 34.45 23.55 34 23 34C22.45 34 22 34.45 22 35V39C22 40.65 23.35 42 25 42H39C40.65 42 42 40.65 42 39V35C42 34.45 41.55 34 41 34Z" fill="white"/>
<path d="M31.29 35.71C31.38 35.8 31.49 35.88 31.62 35.93C31.74 35.98 31.87 36.01 32 36.01C32.13 36.01 32.26 35.98 32.38 35.93C32.5 35.88 32.61 35.81 32.71 35.71L37.71 30.71C38.1 30.32 38.1 29.69 37.71 29.3C37.32 28.91 36.69 28.91 36.3 29.3L33.01 32.59V23C33.01 22.45 32.56 22 32.01 22C31.46 22 31.01 22.45 31.01 23V32.59L27.72 29.3C27.33 28.91 26.7 28.91 26.31 29.3C25.92 29.69 25.92 30.32 26.31 30.71L31.31 35.71H31.29Z" fill="white"/>
<path d="M41 78C40.45 78 40 78.45 40 79V83C40 83.55 39.55 84 39 84H25C24.45 84 24 83.55 24 83V79C24 78.45 23.55 78 23 78C22.45 78 22 78.45 22 79V83C22 84.65 23.35 86 25 86H39C40.65 86 42 84.65 42 83V79C42 78.45 41.55 78 41 78Z" fill="#01FF1A"/>
<path d="M31.29 79.71C31.38 79.8 31.49 79.88 31.62 79.93C31.74 79.98 31.87 80.01 32 80.01C32.13 80.01 32.26 79.98 32.38 79.93C32.5 79.88 32.61 79.81 32.71 79.71L37.71 74.71C38.1 74.32 38.1 73.69 37.71 73.3C37.32 72.91 36.69 72.91 36.3 73.3L33.01 76.59V67C33.01 66.45 32.56 66 32.01 66C31.46 66 31.01 66.45 31.01 67V76.59L27.72 73.3C27.33 72.91 26.7 72.91 26.31 73.3C25.92 73.69 25.92 74.32 26.31 74.71L31.31 79.71H31.29Z" fill="#01FF1A"/>
</svg>
