<svg width="65" height="108" viewBox="0 0 65 108" fill="none" xmlns="http://www.w3.org/2000/svg">
<rect x="0.54248" y="0.5" width="63" height="107" rx="4.5" stroke="#9747FF" stroke-dasharray="10 5"/>
<path d="M36.0424 27C35.4924 27 35.0424 27.45 35.0424 28V28.03C34.2024 27.4 33.1724 27 32.0424 27C29.2824 27 27.0424 29.24 27.0424 32C27.0424 34.76 29.2824 37 32.0424 37C33.7624 37 35.2924 36.12 36.1824 34.79C36.9124 35.53 37.9224 36 39.0424 36C41.2524 36 43.0424 34.21 43.0424 32C43.0424 31.63 43.0224 31.27 42.9924 30.9C42.7424 28.38 41.6124 26.01 39.8224 24.22C35.5324 19.93 28.5524 19.93 24.2624 24.22C19.9724 28.51 19.9724 35.49 24.2624 39.78C26.4024 41.92 29.2224 43 32.0424 43C34.8624 43 37.6724 41.93 39.8224 39.78C40.2124 39.39 40.2124 38.76 39.8224 38.37C39.4324 37.98 38.8024 37.98 38.4124 38.37C34.9024 41.88 29.1924 41.88 25.6824 38.37C22.1724 34.86 22.1724 29.15 25.6824 25.64C29.1924 22.13 34.9024 22.13 38.4124 25.64C39.8724 27.11 40.7924 29.05 41.0024 31.1C41.0324 31.4 41.0424 31.7 41.0424 32C41.0424 33.1 40.1424 34 39.0424 34C37.9424 34 37.0424 33.1 37.0424 32V28C37.0424 27.45 36.5924 27 36.0424 27ZM32.0424 35C30.3924 35 29.0424 33.65 29.0424 32C29.0424 30.35 30.3924 29 32.0424 29C33.6924 29 35.0424 30.35 35.0424 32C35.0424 33.65 33.6924 35 32.0424 35Z" fill="white"/>
<path d="M36.0424 71C35.4924 71 35.0424 71.45 35.0424 72V72.03C34.2024 71.4 33.1724 71 32.0424 71C29.2824 71 27.0424 73.24 27.0424 76C27.0424 78.76 29.2824 81 32.0424 81C33.7624 81 35.2924 80.12 36.1824 78.79C36.9124 79.53 37.9224 80 39.0424 80C41.2524 80 43.0424 78.21 43.0424 76C43.0424 75.63 43.0224 75.27 42.9924 74.9C42.7424 72.38 41.6124 70.01 39.8224 68.22C35.5324 63.93 28.5524 63.93 24.2624 68.22C19.9724 72.51 19.9724 79.49 24.2624 83.78C26.4024 85.92 29.2224 87 32.0424 87C34.8624 87 37.6724 85.93 39.8224 83.78C40.2124 83.39 40.2124 82.76 39.8224 82.37C39.4324 81.98 38.8024 81.98 38.4124 82.37C34.9024 85.88 29.1924 85.88 25.6824 82.37C22.1724 78.86 22.1724 73.15 25.6824 69.64C29.1924 66.13 34.9024 66.13 38.4124 69.64C39.8724 71.11 40.7924 73.05 41.0024 75.1C41.0324 75.4 41.0424 75.7 41.0424 76C41.0424 77.1 40.1424 78 39.0424 78C37.9424 78 37.0424 77.1 37.0424 76V72C37.0424 71.45 36.5924 71 36.0424 71ZM32.0424 79C30.3924 79 29.0424 77.65 29.0424 76C29.0424 74.35 30.3924 73 32.0424 73C33.6924 73 35.0424 74.35 35.0424 76C35.0424 77.65 33.6924 79 32.0424 79Z" fill="#01FF1A"/>
</svg>
