<svg width="65" height="108" viewBox="0 0 65 108" fill="none" xmlns="http://www.w3.org/2000/svg">
<rect x="0.52002" y="0.5" width="63" height="107" rx="4.5" stroke="#9747FF" stroke-dasharray="10 5"/>
<path d="M22.47 43.05C22.21 43.05 21.95 42.95 21.76 42.76C21.51 42.51 21.41 42.15 21.5 41.81L22.91 36.15C22.95 35.97 23.04 35.81 23.17 35.69L36.61 22.26C37.36 21.5 38.37 21.09 39.44 21.09C40.51 21.09 41.51 21.51 42.27 22.26C43.03 23.01 43.44 24.02 43.44 25.09C43.44 26.16 43.02 27.16 42.27 27.92L28.84 41.36C28.71 41.49 28.55 41.58 28.38 41.62L22.72 43.03C22.64 43.05 22.56 43.06 22.48 43.06L22.47 43.05ZM24.79 36.9L23.85 40.67L27.62 39.73L40.86 26.49C41.24 26.11 41.45 25.61 41.45 25.08C41.45 24.55 41.24 24.04 40.86 23.67C40.1 22.91 38.79 22.91 38.03 23.67L24.79 36.91V36.9Z" fill="white"/>
<path d="M22.47 87.05C22.21 87.05 21.95 86.95 21.76 86.76C21.51 86.51 21.41 86.15 21.5 85.81L22.91 80.15C22.95 79.97 23.04 79.81 23.17 79.69L36.61 66.26C37.36 65.5 38.37 65.09 39.44 65.09C40.51 65.09 41.51 65.51 42.27 66.26C43.03 67.01 43.44 68.02 43.44 69.09C43.44 70.16 43.02 71.16 42.27 71.92L28.84 85.36C28.71 85.49 28.55 85.58 28.38 85.62L22.72 87.03C22.64 87.05 22.56 87.06 22.48 87.06L22.47 87.05ZM24.79 80.9L23.85 84.67L27.62 83.73L40.86 70.49C41.24 70.11 41.45 69.61 41.45 69.08C41.45 68.55 41.24 68.04 40.86 67.67C40.1 66.91 38.79 66.91 38.03 67.67L24.79 80.91V80.9Z" fill="#01FF1A"/>
</svg>
