<svg width="65" height="108" viewBox="0 0 65 108" fill="none" xmlns="http://www.w3.org/2000/svg">
<rect x="0.52002" y="0.5" width="63" height="107" rx="4.5" stroke="#9747FF" stroke-dasharray="10 5"/>
<path d="M36.57 22.2C34.85 22.2 33.22 22.88 32.02 24.07C30.82 22.88 29.2 22.2 27.47 22.2C23.91 22.2 21.02 25.1 21.02 28.66C21.02 36.47 31.15 41.46 31.59 41.66C31.73 41.73 31.88 41.76 32.02 41.76C32.16 41.76 32.32 41.73 32.45 41.66C32.88 41.45 43.02 36.47 43.02 28.66C43.02 25.1 40.12 22.2 36.57 22.2Z" fill="white"/>
<path d="M36.57 66.2C34.85 66.2 33.22 66.88 32.02 68.07C30.82 66.88 29.2 66.2 27.47 66.2C23.91 66.2 21.02 69.1 21.02 72.66C21.02 80.47 31.15 85.46 31.59 85.66C31.73 85.73 31.88 85.76 32.02 85.76C32.16 85.76 32.32 85.73 32.45 85.66C32.88 85.45 43.02 80.47 43.02 72.66C43.02 69.1 40.12 66.2 36.57 66.2Z" fill="#01FF1A"/>
</svg>
