<svg width="65" height="108" viewBox="0 0 65 108" fill="none" xmlns="http://www.w3.org/2000/svg">
<rect x="0.52002" y="0.5" width="63" height="107" rx="4.5" stroke="#9747FF" stroke-dasharray="10 5"/>
<path d="M32.02 41.76C31.87 41.76 31.72 41.73 31.59 41.66C31.16 41.45 21.02 36.47 21.02 28.66C21.02 25.1 23.92 22.2 27.47 22.2C29.19 22.2 30.82 22.88 32.02 24.07C33.22 22.88 34.84 22.2 36.57 22.2C40.13 22.2 43.02 25.1 43.02 28.66C43.02 36.47 32.89 41.46 32.45 41.66C32.31 41.73 32.16 41.76 32.02 41.76ZM27.47 24.2C25.01 24.2 23.02 26.2 23.02 28.66C23.02 34.41 30.16 38.63 32.02 39.64C33.88 38.64 41.02 34.4 41.02 28.66C41.02 26.2 39.02 24.2 36.57 24.2C35.07 24.2 33.69 24.95 32.86 26.2C32.49 26.76 31.56 26.76 31.19 26.2C30.36 24.95 28.97 24.2 27.48 24.2H27.47Z" fill="white"/>
<path d="M32.02 85.76C31.87 85.76 31.72 85.73 31.59 85.66C31.16 85.45 21.02 80.47 21.02 72.66C21.02 69.1 23.92 66.2 27.47 66.2C29.19 66.2 30.82 66.88 32.02 68.07C33.22 66.88 34.84 66.2 36.57 66.2C40.13 66.2 43.02 69.1 43.02 72.66C43.02 80.47 32.89 85.46 32.45 85.66C32.31 85.73 32.16 85.76 32.02 85.76ZM27.47 68.2C25.01 68.2 23.02 70.2 23.02 72.66C23.02 78.41 30.16 82.63 32.02 83.64C33.88 82.64 41.02 78.4 41.02 72.66C41.02 70.2 39.02 68.2 36.57 68.2C35.07 68.2 33.69 68.95 32.86 70.2C32.49 70.76 31.56 70.76 31.19 70.2C30.36 68.95 28.97 68.2 27.48 68.2H27.47Z" fill="#01FF1A"/>
</svg>
