<svg width="21" height="22" viewBox="0 0 21 22" fill="none" xmlns="http://www.w3.org/2000/svg">
<path id="Vector" d="M19.6525 7.21L10.6525 0.21C10.2925 -0.07 9.78247 -0.07 9.42247 0.21L0.42247 7.21C0.18247 7.4 0.0324707 7.69 0.0324707 8V19C0.0324707 20.65 1.38247 22 3.03247 22H17.0325C18.6825 22 20.0325 20.65 20.0325 19V8C20.0325 7.69 19.8925 7.4 19.6425 7.21H19.6525ZM8.04247 20V12H12.0425V20H8.04247ZM18.0425 19C18.0425 19.55 17.5925 20 17.0425 20H14.0425V11C14.0425 10.45 13.5925 10 13.0425 10H7.04247C6.49247 10 6.04247 10.45 6.04247 11V20H3.04247C2.49247 20 2.04247 19.55 2.04247 19V8.49L10.0425 2.27L18.0425 8.49V19Z" fill="#01FF1A"/>
</svg>
