<svg width="65" height="108" viewBox="0 0 65 108" fill="none" xmlns="http://www.w3.org/2000/svg">
<rect x="0.54248" y="0.5" width="63" height="107" rx="4.5" stroke="#9747FF" stroke-dasharray="10 5"/>
<path d="M41.6525 28.21L32.6525 21.21C32.2925 20.93 31.7825 20.93 31.4225 21.21L22.4225 28.21C22.1825 28.4 22.0325 28.69 22.0325 29V40C22.0325 41.65 23.3825 43 25.0325 43H39.0325C40.6825 43 42.0325 41.65 42.0325 40V29C42.0325 28.69 41.8925 28.4 41.6425 28.21H41.6525ZM30.0425 41V33H34.0425V41H30.0425ZM40.0425 40C40.0425 40.55 39.5925 41 39.0425 41H36.0425V32C36.0425 31.45 35.5925 31 35.0425 31H29.0425C28.4925 31 28.0425 31.45 28.0425 32V41H25.0425C24.4925 41 24.0425 40.55 24.0425 40V29.49L32.0425 23.27L40.0425 29.49V40Z" fill="white"/>
<path d="M41.6525 72.21L32.6525 65.21C32.2925 64.93 31.7825 64.93 31.4225 65.21L22.4225 72.21C22.1825 72.4 22.0325 72.69 22.0325 73V84C22.0325 85.65 23.3825 87 25.0325 87H39.0325C40.6825 87 42.0325 85.65 42.0325 84V73C42.0325 72.69 41.8925 72.4 41.6425 72.21H41.6525ZM30.0425 85V77H34.0425V85H30.0425ZM40.0425 84C40.0425 84.55 39.5925 85 39.0425 85H36.0425V76C36.0425 75.45 35.5925 75 35.0425 75H29.0425C28.4925 75 28.0425 75.45 28.0425 76V85H25.0425C24.4925 85 24.0425 84.55 24.0425 84V73.49L32.0425 67.27L40.0425 73.49V84Z" fill="#01FF1A"/>
</svg>
