<svg width="65" height="108" viewBox="0 0 65 108" fill="none" xmlns="http://www.w3.org/2000/svg">
<rect x="0.54248" y="0.5" width="63" height="107" rx="4.5" stroke="#9747FF" stroke-dasharray="10 5"/>
<path d="M41.0425 24H23.0425C21.3925 24 20.0425 25.35 20.0425 27V37C20.0425 38.65 21.3925 40 23.0425 40H41.0425C42.6925 40 44.0425 38.65 44.0425 37V27C44.0425 25.35 42.6925 24 41.0425 24ZM42.0425 37C42.0425 37.55 41.5925 38 41.0425 38H23.0425C22.4925 38 22.0425 37.55 22.0425 37V27C22.0425 26.45 22.4925 26 23.0425 26H41.0425C41.5925 26 42.0425 26.45 42.0425 27V37Z" fill="white"/>
<path d="M31.0425 28H25.0425C24.4925 28 24.0425 28.45 24.0425 29V35C24.0425 35.55 24.4925 36 25.0425 36H31.0425C31.5925 36 32.0425 35.55 32.0425 35V29C32.0425 28.45 31.5925 28 31.0425 28ZM30.0425 34H26.0425V30H30.0425V34Z" fill="white"/>
<path d="M35.0425 30H37.0425C37.5925 30 38.0425 29.55 38.0425 29C38.0425 28.45 37.5925 28 37.0425 28H35.0425C34.4925 28 34.0425 28.45 34.0425 29C34.0425 29.55 34.4925 30 35.0425 30Z" fill="white"/>
<path d="M39.0425 31H35.0425C34.4925 31 34.0425 31.45 34.0425 32C34.0425 32.55 34.4925 33 35.0425 33H39.0425C39.5925 33 40.0425 32.55 40.0425 32C40.0425 31.45 39.5925 31 39.0425 31Z" fill="white"/>
<path d="M39.0425 34H35.0425C34.4925 34 34.0425 34.45 34.0425 35C34.0425 35.55 34.4925 36 35.0425 36H39.0425C39.5925 36 40.0425 35.55 40.0425 35C40.0425 34.45 39.5925 34 39.0425 34Z" fill="white"/>
<path d="M41.0425 68H23.0425C21.3925 68 20.0425 69.35 20.0425 71V81C20.0425 82.65 21.3925 84 23.0425 84H41.0425C42.6925 84 44.0425 82.65 44.0425 81V71C44.0425 69.35 42.6925 68 41.0425 68ZM42.0425 81C42.0425 81.55 41.5925 82 41.0425 82H23.0425C22.4925 82 22.0425 81.55 22.0425 81V71C22.0425 70.45 22.4925 70 23.0425 70H41.0425C41.5925 70 42.0425 70.45 42.0425 71V81Z" fill="#01FF1A"/>
<path d="M31.0425 72H25.0425C24.4925 72 24.0425 72.45 24.0425 73V79C24.0425 79.55 24.4925 80 25.0425 80H31.0425C31.5925 80 32.0425 79.55 32.0425 79V73C32.0425 72.45 31.5925 72 31.0425 72ZM30.0425 78H26.0425V74H30.0425V78Z" fill="#01FF1A"/>
<path d="M35.0425 74H37.0425C37.5925 74 38.0425 73.55 38.0425 73C38.0425 72.45 37.5925 72 37.0425 72H35.0425C34.4925 72 34.0425 72.45 34.0425 73C34.0425 73.55 34.4925 74 35.0425 74Z" fill="#01FF1A"/>
<path d="M39.0425 75H35.0425C34.4925 75 34.0425 75.45 34.0425 76C34.0425 76.55 34.4925 77 35.0425 77H39.0425C39.5925 77 40.0425 76.55 40.0425 76C40.0425 75.45 39.5925 75 39.0425 75Z" fill="#01FF1A"/>
<path d="M39.0425 78H35.0425C34.4925 78 34.0425 78.45 34.0425 79C34.0425 79.55 34.4925 80 35.0425 80H39.0425C39.5925 80 40.0425 79.55 40.0425 79C40.0425 78.45 39.5925 78 39.0425 78Z" fill="#01FF1A"/>
</svg>
