<svg width="64" height="108" viewBox="0 0 64 108" fill="none" xmlns="http://www.w3.org/2000/svg">
<rect x="0.5" y="0.5" width="63" height="107" rx="4.5" stroke="#9747FF" stroke-dasharray="10 5"/>
<path d="M39 22H25C23.35 22 22 23.35 22 25V39C22 40.65 23.35 42 25 42H39C40.65 42 42 40.65 42 39V25C42 23.35 40.65 22 39 22ZM24 25C24 24.45 24.45 24 25 24H39C39.55 24 40 24.45 40 25V32.59L36.71 29.3C36.32 28.91 35.69 28.91 35.3 29.3L24.66 39.94C24.28 39.8 24 39.44 24 39.01V25ZM39 40H27.41L36 31.41L40 35.41V39C40 39.55 39.55 40 39 40Z" fill="white"/>
<path d="M28.5 31C29.88 31 31 29.88 31 28.5C31 27.12 29.88 26 28.5 26C27.12 26 26 27.12 26 28.5C26 29.88 27.12 31 28.5 31ZM28.5 28C28.78 28 29 28.22 29 28.5C29 28.78 28.78 29 28.5 29C28.22 29 28 28.78 28 28.5C28 28.22 28.22 28 28.5 28Z" fill="white"/>
<path d="M39 66H25C23.35 66 22 67.35 22 69V83C22 84.65 23.35 86 25 86H39C40.65 86 42 84.65 42 83V69C42 67.35 40.65 66 39 66ZM24 69C24 68.45 24.45 68 25 68H39C39.55 68 40 68.45 40 69V76.59L36.71 73.3C36.32 72.91 35.69 72.91 35.3 73.3L24.66 83.94C24.28 83.8 24 83.44 24 83.01V69ZM39 84H27.41L36 75.41L40 79.41V83C40 83.55 39.55 84 39 84Z" fill="#01FF1A"/>
<path d="M28.5 75C29.88 75 31 73.88 31 72.5C31 71.12 29.88 70 28.5 70C27.12 70 26 71.12 26 72.5C26 73.88 27.12 75 28.5 75ZM28.5 72C28.78 72 29 72.22 29 72.5C29 72.78 28.78 73 28.5 73C28.22 73 28 72.78 28 72.5C28 72.22 28.22 72 28.5 72Z" fill="#01FF1A"/>
</svg>
