<svg width="65" height="108" viewBox="0 0 65 108" fill="none" xmlns="http://www.w3.org/2000/svg">
<rect x="0.5" y="0.5" width="63.02" height="107" rx="4.5" stroke="#9747FF" stroke-dasharray="10 5"/>
<path d="M41 25H37.54L35.84 22.45C35.65 22.17 35.34 22 35.01 22H29.01C28.68 22 28.36 22.17 28.18 22.45L26.48 25H23.02C21.37 25 20.02 26.35 20.02 28V39C20.02 40.65 21.37 42 23.02 42H41.02C42.67 42 44.02 40.65 44.02 39V28C44.02 26.35 42.67 25 41.02 25H41ZM42 39C42 39.55 41.55 40 41 40H23C22.45 40 22 39.55 22 39V28C22 27.45 22.45 27 23 27H27C27.33 27 27.65 26.83 27.83 26.55L29.53 24H34.46L36.16 26.55C36.35 26.83 36.66 27 36.99 27H40.99C41.54 27 41.99 27.45 41.99 28V39H42Z" fill="white"/>
<path d="M32 28C30.38 28 28.96 28.78 28.05 29.98L27.95 29.69C27.78 29.17 27.21 28.88 26.69 29.06C26.17 29.23 25.88 29.8 26.06 30.32L27.06 33.32C27.06 33.32 27.07 33.34 27.08 33.36C27.1 33.4 27.12 33.43 27.14 33.47C27.18 33.54 27.22 33.61 27.27 33.66C27.3 33.69 27.33 33.72 27.36 33.75C27.42 33.8 27.48 33.85 27.56 33.88C27.59 33.9 27.63 33.92 27.66 33.93C27.77 33.97 27.89 34 28.01 34C28.11 34 28.22 33.98 28.33 33.95L31.33 32.95C31.85 32.78 32.14 32.21 31.96 31.69C31.79 31.17 31.22 30.88 30.7 31.06L29.45 31.48C29.97 30.6 30.92 30.01 32.02 30.01C33.67 30.01 35.02 31.36 35.02 33.01C35.02 34.66 33.67 36.01 32.02 36.01C31.16 36.01 30.34 35.64 29.77 34.99C29.41 34.57 28.77 34.54 28.36 34.9C27.95 35.27 27.91 35.9 28.27 36.31C29.22 37.39 30.59 38 32.02 38C34.78 38 37.02 35.76 37.02 33C37.02 30.24 34.78 28 32.02 28H32Z" fill="white"/>
<path d="M41 69H37.54L35.84 66.45C35.65 66.17 35.34 66 35.01 66H29.01C28.68 66 28.36 66.17 28.18 66.45L26.48 69H23.02C21.37 69 20.02 70.35 20.02 72V83C20.02 84.65 21.37 86 23.02 86H41.02C42.67 86 44.02 84.65 44.02 83V72C44.02 70.35 42.67 69 41.02 69H41ZM42 83C42 83.55 41.55 84 41 84H23C22.45 84 22 83.55 22 83V72C22 71.45 22.45 71 23 71H27C27.33 71 27.65 70.83 27.83 70.55L29.53 68H34.46L36.16 70.55C36.35 70.83 36.66 71 36.99 71H40.99C41.54 71 41.99 71.45 41.99 72V83H42Z" fill="#01FF1A"/>
<path d="M32 72C30.38 72 28.96 72.78 28.05 73.98L27.95 73.69C27.78 73.17 27.21 72.88 26.69 73.06C26.17 73.23 25.88 73.8 26.06 74.32L27.06 77.32C27.06 77.32 27.07 77.34 27.08 77.36C27.1 77.4 27.12 77.43 27.14 77.47C27.18 77.54 27.22 77.61 27.27 77.66C27.3 77.69 27.33 77.72 27.36 77.75C27.42 77.8 27.48 77.85 27.56 77.88C27.59 77.9 27.63 77.92 27.66 77.93C27.77 77.97 27.89 78 28.01 78C28.11 78 28.22 77.98 28.33 77.95L31.33 76.95C31.85 76.78 32.14 76.21 31.96 75.69C31.79 75.17 31.22 74.88 30.7 75.06L29.45 75.48C29.97 74.6 30.92 74.01 32.02 74.01C33.67 74.01 35.02 75.36 35.02 77.01C35.02 78.66 33.67 80.01 32.02 80.01C31.16 80.01 30.34 79.64 29.77 78.99C29.41 78.57 28.77 78.54 28.36 78.9C27.95 79.27 27.91 79.9 28.27 80.31C29.22 81.39 30.59 82 32.02 82C34.78 82 37.02 79.76 37.02 77C37.02 74.24 34.78 72 32.02 72H32Z" fill="#01FF1A"/>
</svg>
