<svg width="65" height="108" viewBox="0 0 65 108" fill="none" xmlns="http://www.w3.org/2000/svg">
<rect x="0.52002" y="0.5" width="63" height="107" rx="4.5" stroke="#9747FF" stroke-dasharray="10 5"/>
<path d="M32.02 43C38.09 43 43.02 38.07 43.02 32C43.02 25.93 38.09 21 32.02 21C25.95 21 21.02 25.93 21.02 32C21.02 38.07 25.95 43 32.02 43ZM32.02 23C36.98 23 41.02 27.04 41.02 32C41.02 36.96 36.98 41 32.02 41C27.06 41 23.02 36.96 23.02 32C23.02 27.04 27.06 23 32.02 23Z" fill="white"/>
<path d="M32.02 37C32.57 37 33.02 36.55 33.02 36V32C33.02 31.45 32.57 31 32.02 31C31.47 31 31.02 31.45 31.02 32V36C31.02 36.55 31.47 37 32.02 37Z" fill="white"/>
<path d="M32.02 29C32.5723 29 33.02 28.5523 33.02 28C33.02 27.4477 32.5723 27 32.02 27C31.4677 27 31.02 27.4477 31.02 28C31.02 28.5523 31.4677 29 32.02 29Z" fill="white"/>
<path d="M32.02 87C38.09 87 43.02 82.07 43.02 76C43.02 69.93 38.09 65 32.02 65C25.95 65 21.02 69.93 21.02 76C21.02 82.07 25.95 87 32.02 87ZM32.02 67C36.98 67 41.02 71.04 41.02 76C41.02 80.96 36.98 85 32.02 85C27.06 85 23.02 80.96 23.02 76C23.02 71.04 27.06 67 32.02 67Z" fill="#01FF1A"/>
<path d="M32.02 81C32.57 81 33.02 80.55 33.02 80V76C33.02 75.45 32.57 75 32.02 75C31.47 75 31.02 75.45 31.02 76V80C31.02 80.55 31.47 81 32.02 81Z" fill="#01FF1A"/>
<path d="M32.02 73C32.5723 73 33.02 72.5523 33.02 72C33.02 71.4477 32.5723 71 32.02 71C31.4677 71 31.02 71.4477 31.02 72C31.02 72.5523 31.4677 73 32.02 73Z" fill="#01FF1A"/>
</svg>
