<svg width="4" height="16" viewBox="0 0 4 16" fill="none" xmlns="http://www.w3.org/2000/svg">
<g id="Group">
<path id="Vector" d="M1.99992 9.66683C2.92039 9.66683 3.66659 8.92064 3.66659 8.00016C3.66659 7.07969 2.92039 6.3335 1.99992 6.3335C1.07944 6.3335 0.333252 7.07969 0.333252 8.00016C0.333252 8.92064 1.07944 9.66683 1.99992 9.66683Z" fill="white"/>
<path id="Vector_2" d="M1.99992 15.4998C2.92039 15.4998 3.66659 14.7536 3.66659 13.8332C3.66659 12.9127 2.92039 12.1665 1.99992 12.1665C1.07944 12.1665 0.333252 12.9127 0.333252 13.8332C0.333252 14.7536 1.07944 15.4998 1.99992 15.4998Z" fill="white"/>
<path id="Vector_3" d="M1.99992 3.83333C2.92039 3.83333 3.66659 3.08714 3.66659 2.16667C3.66659 1.24619 2.92039 0.5 1.99992 0.5C1.07944 0.5 0.333252 1.24619 0.333252 2.16667C0.333252 3.08714 1.07944 3.83333 1.99992 3.83333Z" fill="white"/>
</g>
</svg>
