<svg width="65" height="108" viewBox="0 0 65 108" fill="none" xmlns="http://www.w3.org/2000/svg">
<rect x="0.54248" y="0.5" width="63" height="107" rx="4.5" stroke="#9747FF" stroke-dasharray="10 5"/>
<path d="M32.0425 34C33.147 34 34.0425 33.1046 34.0425 32C34.0425 30.8954 33.147 30 32.0425 30C30.9379 30 30.0425 30.8954 30.0425 32C30.0425 33.1046 30.9379 34 32.0425 34Z" fill="white"/>
<path d="M32.0425 41C33.147 41 34.0425 40.1046 34.0425 39C34.0425 37.8954 33.147 37 32.0425 37C30.9379 37 30.0425 37.8954 30.0425 39C30.0425 40.1046 30.9379 41 32.0425 41Z" fill="white"/>
<path d="M32.0425 27C33.147 27 34.0425 26.1046 34.0425 25C34.0425 23.8954 33.147 23 32.0425 23C30.9379 23 30.0425 23.8954 30.0425 25C30.0425 26.1046 30.9379 27 32.0425 27Z" fill="white"/>
<path d="M32.0425 78C33.147 78 34.0425 77.1046 34.0425 76C34.0425 74.8954 33.147 74 32.0425 74C30.9379 74 30.0425 74.8954 30.0425 76C30.0425 77.1046 30.9379 78 32.0425 78Z" fill="#01FF1A"/>
<path d="M32.0425 85C33.147 85 34.0425 84.1046 34.0425 83C34.0425 81.8954 33.147 81 32.0425 81C30.9379 81 30.0425 81.8954 30.0425 83C30.0425 84.1046 30.9379 85 32.0425 85Z" fill="#01FF1A"/>
<path d="M32.0425 71C33.147 71 34.0425 70.1046 34.0425 69C34.0425 67.8954 33.147 67 32.0425 67C30.9379 67 30.0425 67.8954 30.0425 69C30.0425 70.1046 30.9379 71 32.0425 71Z" fill="#01FF1A"/>
</svg>
