<svg width="65" height="108" viewBox="0 0 65 108" fill="none" xmlns="http://www.w3.org/2000/svg">
<rect x="0.54248" y="0.5" width="63" height="107" rx="4.5" stroke="#9747FF" stroke-dasharray="10 5"/>
<path d="M41.8725 25.17L40.0825 23.38L40.7525 22.71C41.1425 22.32 41.1425 21.69 40.7525 21.3C40.3625 20.91 39.7325 20.91 39.3425 21.3L31.6325 29.01C30.5825 28.38 29.3625 28.01 28.0425 28.01C24.1825 28.01 21.0425 31.15 21.0425 35.01C21.0425 38.87 24.1825 42.01 28.0425 42.01C31.9025 42.01 35.0425 38.87 35.0425 35.01C35.0425 33.19 34.3325 31.53 33.1825 30.28L35.0425 28.42L36.8325 30.21C37.0325 30.41 37.2825 30.5 37.5425 30.5C37.8025 30.5 38.0525 30.4 38.2525 30.21L41.8725 26.59C42.2625 26.2 42.2625 25.57 41.8725 25.18V25.17ZM28.0425 40C25.2825 40 23.0425 37.76 23.0425 35C23.0425 32.24 25.2825 30 28.0425 30C30.8025 30 33.0425 32.24 33.0425 35C33.0425 37.76 30.8025 40 28.0425 40ZM37.5425 28.09L36.5425 27.09L38.7525 24.88L39.7525 25.88L37.5425 28.09Z" fill="white"/>
<path d="M41.8725 69.17L40.0825 67.38L40.7525 66.71C41.1425 66.32 41.1425 65.69 40.7525 65.3C40.3625 64.91 39.7325 64.91 39.3425 65.3L31.6325 73.01C30.5825 72.38 29.3625 72.01 28.0425 72.01C24.1825 72.01 21.0425 75.15 21.0425 79.01C21.0425 82.87 24.1825 86.01 28.0425 86.01C31.9025 86.01 35.0425 82.87 35.0425 79.01C35.0425 77.19 34.3325 75.53 33.1825 74.28L35.0425 72.42L36.8325 74.21C37.0325 74.41 37.2825 74.5 37.5425 74.5C37.8025 74.5 38.0525 74.4 38.2525 74.21L41.8725 70.59C42.2625 70.2 42.2625 69.57 41.8725 69.18V69.17ZM28.0425 84C25.2825 84 23.0425 81.76 23.0425 79C23.0425 76.24 25.2825 74 28.0425 74C30.8025 74 33.0425 76.24 33.0425 79C33.0425 81.76 30.8025 84 28.0425 84ZM37.5425 72.09L36.5425 71.09L38.7525 68.88L39.7525 69.88L37.5425 72.09Z" fill="#01FF1A"/>
</svg>
