<svg width="65" height="108" viewBox="0 0 65 108" fill="none" xmlns="http://www.w3.org/2000/svg">
<rect x="0.54248" y="0.5" width="63" height="107" rx="4.5" stroke="#9747FF" stroke-dasharray="10 5"/>
<path d="M39.0425 22H25.0425C23.3925 22 22.0425 23.35 22.0425 25V39C22.0425 40.65 23.3925 42 25.0425 42H39.0425C40.6925 42 42.0425 40.65 42.0425 39V25C42.0425 23.35 40.6925 22 39.0425 22ZM25.0425 24H39.0425C39.5925 24 40.0425 24.45 40.0425 25V28H24.0425V25C24.0425 24.45 24.4925 24 25.0425 24ZM24.0425 39V30H28.0425V40H25.0425C24.4925 40 24.0425 39.55 24.0425 39ZM39.0425 40H30.0425V30H40.0425V39C40.0425 39.55 39.5925 40 39.0425 40Z" fill="white"/>
<path d="M39.0425 66H25.0425C23.3925 66 22.0425 67.35 22.0425 69V83C22.0425 84.65 23.3925 86 25.0425 86H39.0425C40.6925 86 42.0425 84.65 42.0425 83V69C42.0425 67.35 40.6925 66 39.0425 66ZM25.0425 68H39.0425C39.5925 68 40.0425 68.45 40.0425 69V72H24.0425V69C24.0425 68.45 24.4925 68 25.0425 68ZM24.0425 83V74H28.0425V84H25.0425C24.4925 84 24.0425 83.55 24.0425 83ZM39.0425 84H30.0425V74H40.0425V83C40.0425 83.55 39.5925 84 39.0425 84Z" fill="#01FF1A"/>
</svg>
