<svg width="65" height="108" viewBox="0 0 65 108" fill="none" xmlns="http://www.w3.org/2000/svg">
<rect x="0.54248" y="0.5" width="63" height="107" rx="4.5" stroke="#9747FF" stroke-dasharray="10 5"/>
<path d="M40.0425 23H24.0425C22.3925 23 21.0425 24.35 21.0425 26V38C21.0425 39.65 22.3925 41 24.0425 41H40.0425C41.6925 41 43.0425 39.65 43.0425 38V26C43.0425 24.35 41.6925 23 40.0425 23ZM24.0425 25H40.0425C40.5925 25 41.0425 25.45 41.0425 26V27.38L32.0425 31.88L23.0425 27.38V26C23.0425 25.45 23.4925 25 24.0425 25ZM40.0425 39H24.0425C23.4925 39 23.0425 38.55 23.0425 38V29.62L31.5925 33.9C31.5925 33.9 31.6225 33.9 31.6325 33.91C31.7625 33.97 31.8925 34 32.0325 34C32.1725 34 32.3025 33.96 32.4325 33.91C32.4425 33.91 32.4625 33.91 32.4725 33.9L41.0225 29.62V38C41.0225 38.55 40.5725 39 40.0225 39H40.0425Z" fill="white"/>
<path d="M40.0425 67H24.0425C22.3925 67 21.0425 68.35 21.0425 70V82C21.0425 83.65 22.3925 85 24.0425 85H40.0425C41.6925 85 43.0425 83.65 43.0425 82V70C43.0425 68.35 41.6925 67 40.0425 67ZM24.0425 69H40.0425C40.5925 69 41.0425 69.45 41.0425 70V71.38L32.0425 75.88L23.0425 71.38V70C23.0425 69.45 23.4925 69 24.0425 69ZM40.0425 83H24.0425C23.4925 83 23.0425 82.55 23.0425 82V73.62L31.5925 77.9C31.5925 77.9 31.6225 77.9 31.6325 77.91C31.7625 77.97 31.8925 78 32.0325 78C32.1725 78 32.3025 77.96 32.4325 77.91C32.4425 77.91 32.4625 77.91 32.4725 77.9L41.0225 73.62V82C41.0225 82.55 40.5725 83 40.0225 83H40.0425Z" fill="#01FF1A"/>
</svg>
