<svg width="64" height="108" viewBox="0 0 64 108" fill="none" xmlns="http://www.w3.org/2000/svg">
<rect x="0.5" y="0.5" width="63" height="107" rx="4.5" stroke="#9747FF" stroke-dasharray="10 5"/>
<path d="M31.24 37L29 39.24C27.83 40.41 25.93 40.41 24.76 39.24C23.59 38.07 23.59 36.17 24.76 35L29 30.76C30.17 29.59 32.07 29.59 33.24 30.76C33.63 31.15 34.26 31.15 34.65 30.76C35.04 30.37 35.04 29.74 34.65 29.35C32.7 27.4 29.53 27.4 27.58 29.35L23.34 33.59C21.39 35.54 21.39 38.71 23.34 40.66C24.31 41.63 25.59 42.12 26.88 42.12C28.17 42.12 29.44 41.63 30.42 40.66L32.66 38.42C33.05 38.03 33.05 37.4 32.66 37.01C32.27 36.62 31.64 36.62 31.25 37.01L31.24 37Z" fill="white"/>
<path d="M41.16 22.84C39.21 20.89 36.04 20.89 34.09 22.84L31.85 25.08C31.46 25.47 31.46 26.1 31.85 26.49C32.24 26.88 32.87 26.88 33.26 26.49L35.5 24.25C36.67 23.08 38.57 23.08 39.74 24.25C40.91 25.42 40.91 27.32 39.74 28.49L35.5 32.73C34.33 33.9 32.43 33.9 31.26 32.73C30.87 32.34 30.24 32.34 29.85 32.73C29.46 33.12 29.46 33.75 29.85 34.14C30.82 35.11 32.1 35.6 33.39 35.6C34.68 35.6 35.95 35.11 36.93 34.14L41.17 29.9C43.12 27.95 43.12 24.78 41.17 22.83L41.16 22.84Z" fill="white"/>
<path d="M31.24 81L29 83.24C27.83 84.41 25.93 84.41 24.76 83.24C23.59 82.07 23.59 80.17 24.76 79L29 74.76C30.17 73.59 32.07 73.59 33.24 74.76C33.63 75.15 34.26 75.15 34.65 74.76C35.04 74.37 35.04 73.74 34.65 73.35C32.7 71.4 29.53 71.4 27.58 73.35L23.34 77.59C21.39 79.54 21.39 82.71 23.34 84.66C24.31 85.63 25.59 86.12 26.88 86.12C28.17 86.12 29.44 85.63 30.42 84.66L32.66 82.42C33.05 82.03 33.05 81.4 32.66 81.01C32.27 80.62 31.64 80.62 31.25 81.01L31.24 81Z" fill="#01FF1A"/>
<path d="M41.16 66.84C39.21 64.89 36.04 64.89 34.09 66.84L31.85 69.08C31.46 69.47 31.46 70.1 31.85 70.49C32.24 70.88 32.87 70.88 33.26 70.49L35.5 68.25C36.67 67.08 38.57 67.08 39.74 68.25C40.91 69.42 40.91 71.32 39.74 72.49L35.5 76.73C34.33 77.9 32.43 77.9 31.26 76.73C30.87 76.34 30.24 76.34 29.85 76.73C29.46 77.12 29.46 77.75 29.85 78.14C30.82 79.11 32.1 79.6 33.39 79.6C34.68 79.6 35.95 79.11 36.93 78.14L41.17 73.9C43.12 71.95 43.12 68.78 41.17 66.83L41.16 66.84Z" fill="#01FF1A"/>
</svg>
