<svg width="65" height="108" viewBox="0 0 65 108" fill="none" xmlns="http://www.w3.org/2000/svg">
<rect x="0.54248" y="0.5" width="63" height="107" rx="4.5" stroke="#9747FF" stroke-dasharray="10 5"/>
<path d="M32.0425 20C26.5325 20 22.0425 24.49 22.0425 30C22.0425 38.49 31.1725 43.66 31.5525 43.87C31.7025 43.95 31.8725 44 32.0425 44C32.2125 44 32.3725 43.96 32.5325 43.87C32.9225 43.65 42.0425 38.49 42.0425 30C42.0425 24.49 37.5525 20 32.0425 20ZM32.0425 41.83C30.2425 40.68 24.0425 36.27 24.0425 30C24.0425 25.59 27.6325 22 32.0425 22C36.4525 22 40.0425 25.59 40.0425 30C40.0425 36.27 33.8425 40.68 32.0425 41.83Z" fill="white"/>
<path d="M32.0425 26C29.8325 26 28.0425 27.79 28.0425 30C28.0425 32.21 29.8325 34 32.0425 34C34.2525 34 36.0425 32.21 36.0425 30C36.0425 27.79 34.2525 26 32.0425 26ZM32.0425 32C30.9425 32 30.0425 31.1 30.0425 30C30.0425 28.9 30.9425 28 32.0425 28C33.1425 28 34.0425 28.9 34.0425 30C34.0425 31.1 33.1425 32 32.0425 32Z" fill="white"/>
<path d="M32.0425 64C26.5325 64 22.0425 68.49 22.0425 74C22.0425 82.49 31.1725 87.66 31.5525 87.87C31.7025 87.95 31.8725 88 32.0425 88C32.2125 88 32.3725 87.96 32.5325 87.87C32.9225 87.65 42.0425 82.49 42.0425 74C42.0425 68.49 37.5525 64 32.0425 64ZM32.0425 85.83C30.2425 84.68 24.0425 80.27 24.0425 74C24.0425 69.59 27.6325 66 32.0425 66C36.4525 66 40.0425 69.59 40.0425 74C40.0425 80.27 33.8425 84.68 32.0425 85.83Z" fill="#01FF1A"/>
<path d="M32.0425 70C29.8325 70 28.0425 71.79 28.0425 74C28.0425 76.21 29.8325 78 32.0425 78C34.2525 78 36.0425 76.21 36.0425 74C36.0425 71.79 34.2525 70 32.0425 70ZM32.0425 76C30.9425 76 30.0425 75.1 30.0425 74C30.0425 72.9 30.9425 72 32.0425 72C33.1425 72 34.0425 72.9 34.0425 74C34.0425 75.1 33.1425 76 32.0425 76Z" fill="#01FF1A"/>
</svg>
