<svg width="65" height="108" viewBox="0 0 65 108" fill="none" xmlns="http://www.w3.org/2000/svg">
<rect x="0.54248" y="0.5" width="63" height="107" rx="4.5" stroke="#9747FF" stroke-dasharray="10 5"/>
<path d="M39.0425 27H37.0425V26C37.0425 23.24 34.8025 21 32.0425 21C29.2825 21 27.0425 23.24 27.0425 26V27H25.0425C23.3925 27 22.0425 28.35 22.0425 30V40C22.0425 41.65 23.3925 43 25.0425 43H39.0425C40.6925 43 42.0425 41.65 42.0425 40V30C42.0425 28.35 40.6925 27 39.0425 27ZM29.0425 26C29.0425 24.35 30.3925 23 32.0425 23C33.6925 23 35.0425 24.35 35.0425 26V27H29.0425V26ZM40.0425 40C40.0425 40.55 39.5925 41 39.0425 41H25.0425C24.4925 41 24.0425 40.55 24.0425 40V30C24.0425 29.45 24.4925 29 25.0425 29H39.0425C39.5925 29 40.0425 29.45 40.0425 30V40Z" fill="white"/>
<path d="M32.0425 31C30.3925 31 29.0425 32.35 29.0425 34C29.0425 35.3 29.8825 36.4 31.0425 36.82V38C31.0425 38.55 31.4925 39 32.0425 39C32.5925 39 33.0425 38.55 33.0425 38V36.82C34.2025 36.41 35.0425 35.31 35.0425 34C35.0425 32.35 33.6925 31 32.0425 31ZM32.0425 35C31.4925 35 31.0425 34.55 31.0425 34C31.0425 33.45 31.4925 33 32.0425 33C32.5925 33 33.0425 33.45 33.0425 34C33.0425 34.55 32.5925 35 32.0425 35Z" fill="white"/>
<path d="M39.0425 71H37.0425V70C37.0425 67.24 34.8025 65 32.0425 65C29.2825 65 27.0425 67.24 27.0425 70V71H25.0425C23.3925 71 22.0425 72.35 22.0425 74V84C22.0425 85.65 23.3925 87 25.0425 87H39.0425C40.6925 87 42.0425 85.65 42.0425 84V74C42.0425 72.35 40.6925 71 39.0425 71ZM29.0425 70C29.0425 68.35 30.3925 67 32.0425 67C33.6925 67 35.0425 68.35 35.0425 70V71H29.0425V70ZM40.0425 84C40.0425 84.55 39.5925 85 39.0425 85H25.0425C24.4925 85 24.0425 84.55 24.0425 84V74C24.0425 73.45 24.4925 73 25.0425 73H39.0425C39.5925 73 40.0425 73.45 40.0425 74V84Z" fill="#01FF1A"/>
<path d="M32.0425 75C30.3925 75 29.0425 76.35 29.0425 78C29.0425 79.3 29.8825 80.4 31.0425 80.82V82C31.0425 82.55 31.4925 83 32.0425 83C32.5925 83 33.0425 82.55 33.0425 82V80.82C34.2025 80.41 35.0425 79.31 35.0425 78C35.0425 76.35 33.6925 75 32.0425 75ZM32.0425 79C31.4925 79 31.0425 78.55 31.0425 78C31.0425 77.45 31.4925 77 32.0425 77C32.5925 77 33.0425 77.45 33.0425 78C33.0425 78.55 32.5925 79 32.0425 79Z" fill="#01FF1A"/>
</svg>
