<svg width="65" height="108" viewBox="0 0 65 108" fill="none" xmlns="http://www.w3.org/2000/svg">
<rect x="0.54248" y="0.5" width="63" height="107" rx="4.5" stroke="#9747FF" stroke-dasharray="10 5"/>
<path d="M39.0425 27H37.0425V26C37.0425 23.24 34.8025 21 32.0425 21C29.2825 21 27.0425 23.24 27.0425 26V27H25.0425C23.3925 27 22.0425 28.35 22.0425 30V40C22.0425 41.65 23.3925 43 25.0425 43H39.0425C40.6925 43 42.0425 41.65 42.0425 40V30C42.0425 28.35 40.6925 27 39.0425 27ZM29.0425 26C29.0425 24.35 30.3925 23 32.0425 23C33.6925 23 35.0425 24.35 35.0425 26V27H29.0425V26ZM40.0425 40C40.0425 40.55 39.5925 41 39.0425 41H25.0425C24.4925 41 24.0425 40.55 24.0425 40V30C24.0425 29.45 24.4925 29 25.0425 29H39.0425C39.5925 29 40.0425 29.45 40.0425 30V40Z" fill="white"/>
<path d="M34.3325 32.29L31.0425 35.58L29.7526 34.29C29.3626 33.9 28.7325 33.9 28.3425 34.29C27.9525 34.68 27.9525 35.31 28.3425 35.7L30.3425 37.7C30.5425 37.9 30.7925 37.99 31.0525 37.99C31.3125 37.99 31.5625 37.89 31.7625 37.7L35.7625 33.7C36.1525 33.31 36.1525 32.68 35.7625 32.29C35.3725 31.9 34.7425 31.9 34.3525 32.29H34.3325Z" fill="white"/>
<path d="M39.0425 71H37.0425V70C37.0425 67.24 34.8025 65 32.0425 65C29.2825 65 27.0425 67.24 27.0425 70V71H25.0425C23.3925 71 22.0425 72.35 22.0425 74V84C22.0425 85.65 23.3925 87 25.0425 87H39.0425C40.6925 87 42.0425 85.65 42.0425 84V74C42.0425 72.35 40.6925 71 39.0425 71ZM29.0425 70C29.0425 68.35 30.3925 67 32.0425 67C33.6925 67 35.0425 68.35 35.0425 70V71H29.0425V70ZM40.0425 84C40.0425 84.55 39.5925 85 39.0425 85H25.0425C24.4925 85 24.0425 84.55 24.0425 84V74C24.0425 73.45 24.4925 73 25.0425 73H39.0425C39.5925 73 40.0425 73.45 40.0425 74V84Z" fill="#01FF1A"/>
<path d="M34.3325 76.29L31.0425 79.58L29.7526 78.29C29.3626 77.9 28.7325 77.9 28.3425 78.29C27.9525 78.68 27.9525 79.31 28.3425 79.7L30.3425 81.7C30.5425 81.9 30.7925 81.99 31.0525 81.99C31.3125 81.99 31.5625 81.89 31.7625 81.7L35.7625 77.7C36.1525 77.31 36.1525 76.68 35.7625 76.29C35.3725 75.9 34.7425 75.9 34.3525 76.29H34.3325Z" fill="#01FF1A"/>
</svg>
