<svg width="21" height="20" viewBox="0 0 21 20" fill="none" xmlns="http://www.w3.org/2000/svg">
<path id="Vector" d="M19.7525 18.29L16.0725 14.61C17.3025 13.07 18.0425 11.12 18.0425 9C18.0425 4.04 14.0025 0 9.04248 0C4.08248 0 0.0424805 4.04 0.0424805 9C0.0424805 13.96 4.08248 18 9.04248 18C11.1625 18 13.1125 17.26 14.6525 16.03L18.3325 19.71C18.5325 19.91 18.7825 20 19.0425 20C19.3025 20 19.5525 19.9 19.7525 19.71C20.1425 19.32 20.1425 18.69 19.7525 18.3V18.29ZM9.04248 16C5.18248 16 2.04248 12.86 2.04248 9C2.04248 5.14 5.18248 2 9.04248 2C12.9025 2 16.0425 5.14 16.0425 9C16.0425 12.86 12.9025 16 9.04248 16Z" fill="#01FF1A"/>
</svg>
