<svg width="65" height="108" viewBox="0 0 65 108" fill="none" xmlns="http://www.w3.org/2000/svg">
<rect x="0.54248" y="0.5" width="63" height="107" rx="4.5" stroke="#9747FF" stroke-dasharray="10 5"/>
<path d="M41.7525 40.29L38.0725 36.61C39.3025 35.07 40.0425 33.12 40.0425 31C40.0425 26.04 36.0025 22 31.0425 22C26.0825 22 22.0425 26.04 22.0425 31C22.0425 35.96 26.0825 40 31.0425 40C33.1625 40 35.1125 39.26 36.6525 38.03L40.3325 41.71C40.5325 41.91 40.7825 42 41.0425 42C41.3025 42 41.5525 41.9 41.7525 41.71C42.1425 41.32 42.1425 40.69 41.7525 40.3V40.29ZM31.0425 38C27.1825 38 24.0425 34.86 24.0425 31C24.0425 27.14 27.1825 24 31.0425 24C34.9025 24 38.0425 27.14 38.0425 31C38.0425 34.86 34.9025 38 31.0425 38Z" fill="white"/>
<path d="M41.7525 84.29L38.0725 80.61C39.3025 79.07 40.0425 77.12 40.0425 75C40.0425 70.04 36.0025 66 31.0425 66C26.0825 66 22.0425 70.04 22.0425 75C22.0425 79.96 26.0825 84 31.0425 84C33.1625 84 35.1125 83.26 36.6525 82.03L40.3325 85.71C40.5325 85.91 40.7825 86 41.0425 86C41.3025 86 41.5525 85.9 41.7525 85.71C42.1425 85.32 42.1425 84.69 41.7525 84.3V84.29ZM31.0425 82C27.1825 82 24.0425 78.86 24.0425 75C24.0425 71.14 27.1825 68 31.0425 68C34.9025 68 38.0425 71.14 38.0425 75C38.0425 78.86 34.9025 82 31.0425 82Z" fill="#01FF1A"/>
</svg>
