<svg width="65" height="108" viewBox="0 0 65 108" fill="none" xmlns="http://www.w3.org/2000/svg">
<rect x="0.54248" y="0.5" width="63" height="107" rx="4.5" stroke="#9747FF" stroke-dasharray="10 5"/>
<path d="M32.0425 34C33.147 34 34.0425 33.1046 34.0425 32C34.0425 30.8954 33.147 30 32.0425 30C30.9379 30 30.0425 30.8954 30.0425 32C30.0425 33.1046 30.9379 34 32.0425 34Z" fill="white"/>
<path d="M39.0425 34C40.147 34 41.0425 33.1046 41.0425 32C41.0425 30.8954 40.147 30 39.0425 30C37.9379 30 37.0425 30.8954 37.0425 32C37.0425 33.1046 37.9379 34 39.0425 34Z" fill="white"/>
<path d="M25.0425 34C26.147 34 27.0425 33.1046 27.0425 32C27.0425 30.8954 26.147 30 25.0425 30C23.9379 30 23.0425 30.8954 23.0425 32C23.0425 33.1046 23.9379 34 25.0425 34Z" fill="white"/>
<path d="M32.0425 78C33.147 78 34.0425 77.1046 34.0425 76C34.0425 74.8954 33.147 74 32.0425 74C30.9379 74 30.0425 74.8954 30.0425 76C30.0425 77.1046 30.9379 78 32.0425 78Z" fill="#01FF1A"/>
<path d="M39.0425 78C40.147 78 41.0425 77.1046 41.0425 76C41.0425 74.8954 40.147 74 39.0425 74C37.9379 74 37.0425 74.8954 37.0425 76C37.0425 77.1046 37.9379 78 39.0425 78Z" fill="#01FF1A"/>
<path d="M25.0425 78C26.147 78 27.0425 77.1046 27.0425 76C27.0425 74.8954 26.147 74 25.0425 74C23.9379 74 23.0425 74.8954 23.0425 76C23.0425 77.1046 23.9379 78 25.0425 78Z" fill="#01FF1A"/>
</svg>
