<svg width="65" height="108" viewBox="0 0 65 108" fill="none" xmlns="http://www.w3.org/2000/svg">
<rect x="0.54248" y="0.5" width="63" height="107" rx="4.5" stroke="#9747FF" stroke-dasharray="10 5"/>
<path d="M40.0425 22H24.0425C22.3925 22 21.0425 23.35 21.0425 25V35C21.0425 36.65 22.3925 38 24.0425 38H31.0425V40H28.0425C27.4925 40 27.0425 40.45 27.0425 41C27.0425 41.55 27.4925 42 28.0425 42H36.0425C36.5925 42 37.0425 41.55 37.0425 41C37.0425 40.45 36.5925 40 36.0425 40H33.0425V38H40.0425C41.6925 38 43.0425 36.65 43.0425 35V25C43.0425 23.35 41.6925 22 40.0425 22ZM41.0425 35C41.0425 35.55 40.5925 36 40.0425 36H24.0425C23.4925 36 23.0425 35.55 23.0425 35V25C23.0425 24.45 23.4925 24 24.0425 24H40.0425C40.5925 24 41.0425 24.45 41.0425 25V35Z" fill="white"/>
<path d="M40.0425 66H24.0425C22.3925 66 21.0425 67.35 21.0425 69V79C21.0425 80.65 22.3925 82 24.0425 82H31.0425V84H28.0425C27.4925 84 27.0425 84.45 27.0425 85C27.0425 85.55 27.4925 86 28.0425 86H36.0425C36.5925 86 37.0425 85.55 37.0425 85C37.0425 84.45 36.5925 84 36.0425 84H33.0425V82H40.0425C41.6925 82 43.0425 80.65 43.0425 79V69C43.0425 67.35 41.6925 66 40.0425 66ZM41.0425 79C41.0425 79.55 40.5925 80 40.0425 80H24.0425C23.4925 80 23.0425 79.55 23.0425 79V69C23.0425 68.45 23.4925 68 24.0425 68H40.0425C40.5925 68 41.0425 68.45 41.0425 69V79Z" fill="#01FF1A"/>
</svg>
