<svg width="16" height="14" viewBox="0 0 16 14" fill="none" xmlns="http://www.w3.org/2000/svg">
<path id="Vector" d="M13.3337 0.333336H2.66699C1.56699 0.333336 0.666992 1.23334 0.666992 2.33334V9C0.666992 10.1 1.56699 11 2.66699 11H7.33366V12.3333H5.33366C4.96699 12.3333 4.66699 12.6333 4.66699 13C4.66699 13.3667 4.96699 13.6667 5.33366 13.6667H10.667C11.0337 13.6667 11.3337 13.3667 11.3337 13C11.3337 12.6333 11.0337 12.3333 10.667 12.3333H8.66699V11H13.3337C14.4337 11 15.3337 10.1 15.3337 9V2.33334C15.3337 1.23334 14.4337 0.333336 13.3337 0.333336ZM14.0003 9C14.0003 9.36667 13.7003 9.66667 13.3337 9.66667H2.66699C2.30033 9.66667 2.00033 9.36667 2.00033 9V2.33334C2.00033 1.96667 2.30033 1.66667 2.66699 1.66667H13.3337C13.7003 1.66667 14.0003 1.96667 14.0003 2.33334V9Z" fill="white"/>
</svg>
