<svg width="4" height="16" viewBox="0 0 4 16" fill="none" xmlns="http://www.w3.org/2000/svg">
<g id="Group">
<path id="Vector" d="M2 9.66667C2.92047 9.66667 3.66666 8.92047 3.66666 8C3.66666 7.07952 2.92047 6.33333 2 6.33333C1.07952 6.33333 0.333328 7.07952 0.333328 8C0.333328 8.92047 1.07952 9.66667 2 9.66667Z" fill="white"/>
<path id="Vector_2" d="M2 15.5C2.92047 15.5 3.66666 14.7538 3.66666 13.8333C3.66666 12.9129 2.92047 12.1667 2 12.1667C1.07952 12.1667 0.333328 12.9129 0.333328 13.8333C0.333328 14.7538 1.07952 15.5 2 15.5Z" fill="white"/>
<path id="Vector_3" d="M2 3.83333C2.92047 3.83333 3.66666 3.08714 3.66666 2.16667C3.66666 1.24619 2.92047 0.5 2 0.5C1.07952 0.5 0.333328 1.24619 0.333328 2.16667C0.333328 3.08714 1.07952 3.83333 2 3.83333Z" fill="white"/>
</g>
</svg>
