<svg width="65" height="108" viewBox="0 0 65 108" fill="none" xmlns="http://www.w3.org/2000/svg">
<rect x="0.54248" y="0.5" width="63" height="107" rx="4.5" stroke="#9747FF" stroke-dasharray="10 5"/>
<path d="M39.8225 22.11C38.9425 22.11 38.0925 22.29 37.2925 22.65C37.2625 22.66 37.2225 22.68 37.1925 22.7L30.6625 26.55H24.2725C22.4925 26.55 21.0525 28 21.0525 29.77V34.22C21.0525 36 22.5025 37.44 24.2725 37.44H25.5125C25.4625 39.29 26.6025 41.05 28.4525 41.66C28.9025 41.81 29.3625 41.88 29.8225 41.88C31.5125 41.88 33.0825 40.88 33.7825 39.28L37.1925 41.29C37.1925 41.29 37.2625 41.33 37.2925 41.34C38.0925 41.7 38.9425 41.88 39.8225 41.88C41.6025 41.88 43.0425 40.43 43.0425 38.66V25.33C43.0425 23.55 41.5925 22.11 39.8225 22.11ZM32.0325 38.29C31.6225 39.51 30.2925 40.17 29.0825 39.77C28.0725 39.43 27.4525 38.46 27.5025 37.44H30.6625L32.0525 38.26C32.0525 38.26 32.0425 38.28 32.0325 38.29ZM41.0425 38.66C41.0425 39.33 40.4925 39.88 39.8225 39.88C39.2425 39.88 38.6825 39.76 38.1525 39.54L31.4425 35.58C31.2925 35.49 31.1125 35.44 30.9325 35.44H24.2625C23.5925 35.44 23.0425 34.89 23.0425 34.22V29.77C23.0425 29.1 23.5925 28.55 24.2625 28.55H30.9325C31.1125 28.55 31.2825 28.5 31.4425 28.41L38.1525 24.45C38.6825 24.22 39.2425 24.11 39.8225 24.11C40.4925 24.11 41.0425 24.66 41.0425 25.33V38.66Z" fill="white"/>
<path d="M39.8225 66.11C38.9425 66.11 38.0925 66.29 37.2925 66.65C37.2625 66.66 37.2225 66.68 37.1925 66.7L30.6625 70.55H24.2725C22.4925 70.55 21.0525 72 21.0525 73.77V78.22C21.0525 80 22.5025 81.44 24.2725 81.44H25.5125C25.4625 83.29 26.6025 85.05 28.4525 85.66C28.9025 85.81 29.3625 85.88 29.8225 85.88C31.5125 85.88 33.0825 84.88 33.7825 83.28L37.1925 85.29C37.1925 85.29 37.2625 85.33 37.2925 85.34C38.0925 85.7 38.9425 85.88 39.8225 85.88C41.6025 85.88 43.0425 84.43 43.0425 82.66V69.33C43.0425 67.55 41.5925 66.11 39.8225 66.11ZM32.0325 82.29C31.6225 83.51 30.2925 84.17 29.0825 83.77C28.0725 83.43 27.4525 82.46 27.5025 81.44H30.6625L32.0525 82.26C32.0525 82.26 32.0425 82.28 32.0325 82.29ZM41.0425 82.66C41.0425 83.33 40.4925 83.88 39.8225 83.88C39.2425 83.88 38.6825 83.76 38.1525 83.54L31.4425 79.58C31.2925 79.49 31.1125 79.44 30.9325 79.44H24.2625C23.5925 79.44 23.0425 78.89 23.0425 78.22V73.77C23.0425 73.1 23.5925 72.55 24.2625 72.55H30.9325C31.1125 72.55 31.2825 72.5 31.4425 72.41L38.1525 68.45C38.6825 68.22 39.2425 68.11 39.8225 68.11C40.4925 68.11 41.0425 68.66 41.0425 69.33V82.66Z" fill="#01FF1A"/>
</svg>
