<svg width="65" height="108" viewBox="0 0 65 108" fill="none" xmlns="http://www.w3.org/2000/svg">
<rect x="0.54248" y="0.5" width="63" height="107" rx="4.5" stroke="#9747FF" stroke-dasharray="10 5"/>
<path d="M32.0425 33C32.5925 33 33.0425 32.55 33.0425 32V22C33.0425 21.45 32.5925 21 32.0425 21C31.4925 21 31.0425 21.45 31.0425 22V32C31.0425 32.55 31.4925 33 32.0425 33Z" fill="white"/>
<path d="M38.6425 25.48C38.2225 25.12 37.5925 25.16 37.2325 25.57C36.8625 25.99 36.9125 26.62 37.3225 26.98C39.0525 28.5 40.0425 30.69 40.0425 32.99C40.0425 37.4 36.4525 40.99 32.0425 40.99C27.6325 40.99 24.0425 37.4 24.0425 32.99C24.0425 30.69 25.0325 28.5 26.7625 26.98C27.1825 26.62 27.2225 25.98 26.8525 25.57C26.4925 25.16 25.8525 25.12 25.4425 25.48C23.2825 27.38 22.0425 30.12 22.0425 33C22.0425 38.51 26.5325 43 32.0425 43C37.5525 43 42.0425 38.51 42.0425 33C42.0425 30.12 40.8025 27.38 38.6425 25.48Z" fill="white"/>
<path d="M32.0425 77C32.5925 77 33.0425 76.55 33.0425 76V66C33.0425 65.45 32.5925 65 32.0425 65C31.4925 65 31.0425 65.45 31.0425 66V76C31.0425 76.55 31.4925 77 32.0425 77Z" fill="#01FF1A"/>
<path d="M38.6425 69.48C38.2225 69.12 37.5925 69.16 37.2325 69.57C36.8625 69.99 36.9125 70.62 37.3225 70.98C39.0525 72.5 40.0425 74.69 40.0425 76.99C40.0425 81.4 36.4525 84.99 32.0425 84.99C27.6325 84.99 24.0425 81.4 24.0425 76.99C24.0425 74.69 25.0325 72.5 26.7625 70.98C27.1825 70.62 27.2225 69.98 26.8525 69.57C26.4925 69.16 25.8525 69.12 25.4425 69.48C23.2825 71.38 22.0425 74.12 22.0425 77C22.0425 82.51 26.5325 87 32.0425 87C37.5525 87 42.0425 82.51 42.0425 77C42.0425 74.12 40.8025 71.38 38.6425 69.48Z" fill="#01FF1A"/>
</svg>
