<svg width="21" height="22" viewBox="0 0 21 22" fill="none" xmlns="http://www.w3.org/2000/svg">
<g id="Group">
<path id="Vector" d="M10.0425 12C10.5925 12 11.0425 11.55 11.0425 11V1C11.0425 0.45 10.5925 0 10.0425 0C9.49248 0 9.04248 0.45 9.04248 1V11C9.04248 11.55 9.49248 12 10.0425 12Z" fill="white"/>
<path id="Vector_2" d="M16.6425 4.48C16.2225 4.12 15.5925 4.16 15.2325 4.57C14.8625 4.99 14.9125 5.62 15.3225 5.98C17.0525 7.5 18.0425 9.69 18.0425 11.99C18.0425 16.4 14.4525 19.99 10.0425 19.99C5.63248 19.99 2.04248 16.4 2.04248 11.99C2.04248 9.69 3.03248 7.5 4.76248 5.98C5.18248 5.62 5.22248 4.98 4.85248 4.57C4.49248 4.16 3.85248 4.12 3.44248 4.48C1.28248 6.38 0.0424805 9.12 0.0424805 12C0.0424805 17.51 4.53248 22 10.0425 22C15.5525 22 20.0425 17.51 20.0425 12C20.0425 9.12 18.8025 6.38 16.6425 4.48Z" fill="white"/>
</g>
</svg>
