<svg width="20" height="22" viewBox="0 0 20 22" fill="none" xmlns="http://www.w3.org/2000/svg">
<g id="Group">
<path id="Vector" d="M10 12C10.55 12 11 11.55 11 11V1C11 0.45 10.55 0 10 0C9.45 0 9 0.45 9 1V11C9 11.55 9.45 12 10 12Z" fill="white"/>
<path id="Vector_2" d="M16.6 4.48C16.18 4.12 15.55 4.16 15.19 4.57C14.82 4.99 14.87 5.62 15.28 5.98C17.01 7.5 18 9.69 18 11.99C18 16.4 14.41 19.99 10 19.99C5.59 19.99 2 16.4 2 11.99C2 9.69 2.99 7.5 4.72 5.98C5.14 5.62 5.18 4.98 4.81 4.57C4.45 4.16 3.81 4.12 3.4 4.48C1.24 6.38 0 9.12 0 12C0 17.51 4.49 22 10 22C15.51 22 20 17.51 20 12C20 9.12 18.76 6.38 16.6 4.48Z" fill="white"/>
</g>
</svg>
