<svg width="64" height="108" viewBox="0 0 64 108" fill="none" xmlns="http://www.w3.org/2000/svg">
<rect x="0.5" y="0.5" width="63" height="107" rx="4.5" stroke="#9747FF" stroke-dasharray="10 5"/>
<path d="M41.71 30.29C41.32 29.9 40.69 29.9 40.3 30.29L31.15 39.44C30.2 40.39 28.95 40.91 27.61 40.91C26.27 40.91 25.01 40.39 24.07 39.44C22.12 37.49 22.12 34.31 24.07 32.35L25.49 30.93L33.27 23.15C34.4 22.02 36.39 22.02 37.52 23.15C38.09 23.72 38.4 24.47 38.4 25.27C38.4 26.07 38.09 26.83 37.52 27.39L36.82 28.09L29.74 35.17L28.32 36.59C27.93 36.98 27.3 36.98 26.91 36.59C26.72 36.4 26.62 36.15 26.62 35.88C26.62 35.61 26.72 35.36 26.91 35.17L36.11 25.97C36.5 25.58 36.5 24.95 36.11 24.56C35.72 24.17 35.09 24.17 34.7 24.56L25.49 33.76C24.92 34.33 24.61 35.08 24.61 35.88C24.61 36.68 24.92 37.43 25.49 38C26.06 38.57 26.84 38.88 27.61 38.88C28.38 38.88 29.15 38.59 29.73 38L31.15 36.58L38.23 29.5L38.93 28.8C40.88 26.85 40.88 23.67 38.93 21.72C37.98 20.77 36.73 20.25 35.39 20.25C34.05 20.25 32.8 20.77 31.85 21.72L31.15 22.42L22.64 30.94C19.91 33.67 19.91 38.12 22.64 40.85C23.96 42.17 25.72 42.9 27.6 42.9C29.48 42.9 31.23 42.17 32.56 40.85L41.71 31.7C42.1 31.31 42.1 30.68 41.71 30.29Z" fill="white"/>
<path d="M41.71 74.29C41.32 73.9 40.69 73.9 40.3 74.29L31.15 83.44C30.2 84.39 28.95 84.91 27.61 84.91C26.27 84.91 25.01 84.39 24.07 83.44C22.12 81.49 22.12 78.31 24.07 76.35L25.49 74.93L33.27 67.15C34.4 66.02 36.39 66.02 37.52 67.15C38.09 67.72 38.4 68.47 38.4 69.27C38.4 70.07 38.09 70.83 37.52 71.39L36.82 72.09L29.74 79.17L28.32 80.59C27.93 80.98 27.3 80.98 26.91 80.59C26.72 80.4 26.62 80.15 26.62 79.88C26.62 79.61 26.72 79.36 26.91 79.17L36.11 69.97C36.5 69.58 36.5 68.95 36.11 68.56C35.72 68.17 35.09 68.17 34.7 68.56L25.49 77.76C24.92 78.33 24.61 79.08 24.61 79.88C24.61 80.68 24.92 81.43 25.49 82C26.06 82.57 26.84 82.88 27.61 82.88C28.38 82.88 29.15 82.59 29.73 82L31.15 80.58L38.23 73.5L38.93 72.8C40.88 70.85 40.88 67.67 38.93 65.72C37.98 64.77 36.73 64.25 35.39 64.25C34.05 64.25 32.8 64.77 31.85 65.72L31.15 66.42L22.64 74.94C19.91 77.67 19.91 82.12 22.64 84.85C23.96 86.17 25.72 86.9 27.6 86.9C29.48 86.9 31.23 86.17 32.56 84.85L41.71 75.7C42.1 75.31 42.1 74.68 41.71 74.29Z" fill="#01FF1A"/>
</svg>
