<svg width="65" height="108" viewBox="0 0 65 108" fill="none" xmlns="http://www.w3.org/2000/svg">
<rect x="0.555176" y="0.5" width="63" height="107" rx="4.5" stroke="#9747FF" stroke-dasharray="10 5"/>
<path d="M30.0552 41H26.0552C25.5052 41 25.0552 40.55 25.0552 40V24C25.0552 23.45 25.5052 23 26.0552 23H30.0552C30.6052 23 31.0552 23.45 31.0552 24V40C31.0552 40.55 30.6052 41 30.0552 41ZM27.0552 39H29.0552V25H27.0552V39Z" fill="white"/>
<path d="M38.0552 41H34.0552C33.5052 41 33.0552 40.55 33.0552 40V24C33.0552 23.45 33.5052 23 34.0552 23H38.0552C38.6052 23 39.0552 23.45 39.0552 24V40C39.0552 40.55 38.6052 41 38.0552 41ZM35.0552 39H37.0552V25H35.0552V39Z" fill="white"/>
<path d="M30.0552 85H26.0552C25.5052 85 25.0552 84.55 25.0552 84V68C25.0552 67.45 25.5052 67 26.0552 67H30.0552C30.6052 67 31.0552 67.45 31.0552 68V84C31.0552 84.55 30.6052 85 30.0552 85ZM27.0552 83H29.0552V69H27.0552V83Z" fill="#01FF1A"/>
<path d="M38.0552 85H34.0552C33.5052 85 33.0552 84.55 33.0552 84V68C33.0552 67.45 33.5052 67 34.0552 67H38.0552C38.6052 67 39.0552 67.45 39.0552 68V84C39.0552 84.55 38.6052 85 38.0552 85ZM35.0552 83H37.0552V69H35.0552V83Z" fill="#01FF1A"/>
</svg>
