<svg width="25" height="22" viewBox="0 0 25 22" fill="none" xmlns="http://www.w3.org/2000/svg">
<g id="Group">
<path id="Vector" d="M9.02002 10C10.14 10 11.17 9.61 12.01 8.99C12.87 9.64 13.93 10 15.02 10C17.78 10 20.02 7.76 20.02 5C20.02 2.24 17.78 0 15.02 0C13.92 0 12.87 0.360002 12.01 1.01C11.17 0.380002 10.15 0 9.02002 0C6.26002 0 4.02002 2.24 4.02002 5C4.02002 7.76 6.26002 10 9.02002 10ZM13.34 2.53C13.83 2.2 14.41 2 15.02 2C16.67 2 18.02 3.35 18.02 5C18.02 6.65 16.67 8 15.02 8C14.41 8 13.83 7.81 13.34 7.47C13.76 6.74 14.02 5.9 14.02 5C14.02 4.1 13.76 3.26 13.34 2.53ZM9.02002 2C10.67 2 12.02 3.35 12.02 5C12.02 6.65 10.67 8 9.02002 8C7.37002 8 6.02002 6.65 6.02002 5C6.02002 3.35 7.37002 2 9.02002 2Z" fill="white"/>
<path id="Vector_2" d="M15.02 11C13.99 11 12.98 11.2 12.02 11.58C11.08 11.21 10.08 11 9.02002 11C4.06002 11 0.0200195 15.49 0.0200195 21C0.0200195 21.55 0.47002 22 1.02002 22C1.57002 22 2.02002 21.55 2.02002 21C2.02002 16.59 5.16002 13 9.02002 13C12.88 13 16.02 16.59 16.02 21C16.02 21.55 16.47 22 17.02 22C17.57 22 18.02 21.55 18.02 21C18.02 17.75 16.61 14.86 14.43 13.03C14.62 13.01 14.82 13 15.02 13C18.88 13 22.02 16.59 22.02 21C22.02 21.55 22.47 22 23.02 22C23.57 22 24.02 21.55 24.02 21C24.02 15.49 19.98 11 15.02 11Z" fill="white"/>
</g>
</svg>
