<svg width="65" height="108" viewBox="0 0 65 108" fill="none" xmlns="http://www.w3.org/2000/svg">
<rect x="0.52002" y="0.5" width="63" height="107" rx="4.5" stroke="#9747FF" stroke-dasharray="10 5"/>
<path d="M29.02 31C30.14 31 31.17 30.61 32.01 29.99C32.87 30.64 33.93 31 35.02 31C37.78 31 40.02 28.76 40.02 26C40.02 23.24 37.78 21 35.02 21C33.92 21 32.87 21.36 32.01 22.01C31.17 21.38 30.15 21 29.02 21C26.26 21 24.02 23.24 24.02 26C24.02 28.76 26.26 31 29.02 31ZM33.34 23.53C33.83 23.2 34.41 23 35.02 23C36.67 23 38.02 24.35 38.02 26C38.02 27.65 36.67 29 35.02 29C34.41 29 33.83 28.81 33.34 28.47C33.76 27.74 34.02 26.9 34.02 26C34.02 25.1 33.76 24.26 33.34 23.53ZM29.02 23C30.67 23 32.02 24.35 32.02 26C32.02 27.65 30.67 29 29.02 29C27.37 29 26.02 27.65 26.02 26C26.02 24.35 27.37 23 29.02 23Z" fill="white"/>
<path d="M35.02 32C33.99 32 32.98 32.2 32.02 32.58C31.08 32.21 30.08 32 29.02 32C24.06 32 20.02 36.49 20.02 42C20.02 42.55 20.47 43 21.02 43C21.57 43 22.02 42.55 22.02 42C22.02 37.59 25.16 34 29.02 34C32.88 34 36.02 37.59 36.02 42C36.02 42.55 36.47 43 37.02 43C37.57 43 38.02 42.55 38.02 42C38.02 38.75 36.61 35.86 34.43 34.03C34.62 34.01 34.82 34 35.02 34C38.88 34 42.02 37.59 42.02 42C42.02 42.55 42.47 43 43.02 43C43.57 43 44.02 42.55 44.02 42C44.02 36.49 39.98 32 35.02 32Z" fill="white"/>
<path d="M29.02 75C30.14 75 31.17 74.61 32.01 73.99C32.87 74.64 33.93 75 35.02 75C37.78 75 40.02 72.76 40.02 70C40.02 67.24 37.78 65 35.02 65C33.92 65 32.87 65.36 32.01 66.01C31.17 65.38 30.15 65 29.02 65C26.26 65 24.02 67.24 24.02 70C24.02 72.76 26.26 75 29.02 75ZM33.34 67.53C33.83 67.2 34.41 67 35.02 67C36.67 67 38.02 68.35 38.02 70C38.02 71.65 36.67 73 35.02 73C34.41 73 33.83 72.81 33.34 72.47C33.76 71.74 34.02 70.9 34.02 70C34.02 69.1 33.76 68.26 33.34 67.53ZM29.02 67C30.67 67 32.02 68.35 32.02 70C32.02 71.65 30.67 73 29.02 73C27.37 73 26.02 71.65 26.02 70C26.02 68.35 27.37 67 29.02 67Z" fill="#01FF1A"/>
<path d="M35.02 76C33.99 76 32.98 76.2 32.02 76.58C31.08 76.21 30.08 76 29.02 76C24.06 76 20.02 80.49 20.02 86C20.02 86.55 20.47 87 21.02 87C21.57 87 22.02 86.55 22.02 86C22.02 81.59 25.16 78 29.02 78C32.88 78 36.02 81.59 36.02 86C36.02 86.55 36.47 87 37.02 87C37.57 87 38.02 86.55 38.02 86C38.02 82.75 36.61 79.86 34.43 78.03C34.62 78.01 34.82 78 35.02 78C38.88 78 42.02 81.59 42.02 86C42.02 86.55 42.47 87 43.02 87C43.57 87 44.02 86.55 44.02 86C44.02 80.49 39.98 76 35.02 76Z" fill="#01FF1A"/>
</svg>
