<svg width="12" height="16" viewBox="0 0 12 16" fill="none" xmlns="http://www.w3.org/2000/svg">
<g id="Group">
<path id="Vector" d="M6.00033 7.33333C7.84033 7.33333 9.33366 5.84 9.33366 4C9.33366 2.16 7.84033 0.666664 6.00033 0.666664C4.16033 0.666664 2.66699 2.16 2.66699 4C2.66699 5.84 4.16033 7.33333 6.00033 7.33333ZM6.00033 2C7.10033 2 8.00033 2.9 8.00033 4C8.00033 5.1 7.10033 6 6.00033 6C4.90033 6 4.00033 5.1 4.00033 4C4.00033 2.9 4.90033 2 6.00033 2Z" fill="#01FF1A"/>
<path id="Vector_2" d="M6 8C2.69333 8 0 10.9933 0 14.6667C0 15.0333 0.3 15.3333 0.666667 15.3333C1.03333 15.3333 1.33333 15.0333 1.33333 14.6667C1.33333 11.7267 3.42667 9.33333 6 9.33333C8.57333 9.33333 10.6667 11.7267 10.6667 14.6667C10.6667 15.0333 10.9667 15.3333 11.3333 15.3333C11.7 15.3333 12 15.0333 12 14.6667C12 10.9933 9.30667 8 6 8Z" fill="#01FF1A"/>
</g>
</svg>
