<svg width="65" height="108" viewBox="0 0 65 108" fill="none" xmlns="http://www.w3.org/2000/svg">
<rect x="0.54248" y="0.5" width="63" height="107" rx="4.5" stroke="#9747FF" stroke-dasharray="10 5"/>
<path d="M29.0425 31C31.8025 31 34.0425 28.76 34.0425 26C34.0425 23.24 31.8025 21 29.0425 21C26.2825 21 24.0425 23.24 24.0425 26C24.0425 28.76 26.2825 31 29.0425 31ZM29.0425 23C30.6925 23 32.0425 24.35 32.0425 26C32.0425 27.65 30.6925 29 29.0425 29C27.3925 29 26.0425 27.65 26.0425 26C26.0425 24.35 27.3925 23 29.0425 23Z" fill="white"/>
<path d="M29.0425 32C24.0825 32 20.0425 36.49 20.0425 42C20.0425 42.55 20.4925 43 21.0425 43C21.5925 43 22.0425 42.55 22.0425 42C22.0425 37.59 25.1825 34 29.0425 34C32.9025 34 36.0425 37.59 36.0425 42C36.0425 42.55 36.4925 43 37.0425 43C37.5925 43 38.0425 42.55 38.0425 42C38.0425 36.49 34.0025 32 29.0425 32Z" fill="white"/>
<path d="M42.7925 25.34C41.8725 24.42 40.3825 24.42 39.4625 25.34L35.4225 29.38C35.2425 29.56 35.1325 29.81 35.1325 30.07L35.0925 32.03C35.0925 32.3 35.1925 32.57 35.3825 32.76C35.5725 32.95 35.8225 33.05 36.0925 33.05H36.1125L38.0725 33.01C38.3325 33.01 38.5725 32.9 38.7625 32.72L42.8025 28.68C43.7225 27.76 43.7225 26.27 42.8025 25.35L42.7925 25.34ZM41.3825 27.25L37.6225 31.01H37.1125L37.1225 30.51L40.8825 26.75C41.0625 26.57 41.2025 26.57 41.3825 26.75C41.4725 26.84 41.4825 26.95 41.4825 27C41.4825 27.05 41.4725 27.16 41.3825 27.25Z" fill="white"/>
<path d="M29.0425 75C31.8025 75 34.0425 72.76 34.0425 70C34.0425 67.24 31.8025 65 29.0425 65C26.2825 65 24.0425 67.24 24.0425 70C24.0425 72.76 26.2825 75 29.0425 75ZM29.0425 67C30.6925 67 32.0425 68.35 32.0425 70C32.0425 71.65 30.6925 73 29.0425 73C27.3925 73 26.0425 71.65 26.0425 70C26.0425 68.35 27.3925 67 29.0425 67Z" fill="#01FF1A"/>
<path d="M29.0425 76C24.0825 76 20.0425 80.49 20.0425 86C20.0425 86.55 20.4925 87 21.0425 87C21.5925 87 22.0425 86.55 22.0425 86C22.0425 81.59 25.1825 78 29.0425 78C32.9025 78 36.0425 81.59 36.0425 86C36.0425 86.55 36.4925 87 37.0425 87C37.5925 87 38.0425 86.55 38.0425 86C38.0425 80.49 34.0025 76 29.0425 76Z" fill="#01FF1A"/>
<path d="M42.7925 69.34C41.8725 68.42 40.3825 68.42 39.4625 69.34L35.4225 73.38C35.2425 73.56 35.1325 73.81 35.1325 74.07L35.0925 76.03C35.0925 76.3 35.1925 76.57 35.3825 76.76C35.5725 76.95 35.8225 77.05 36.0925 77.05H36.1125L38.0725 77.01C38.3325 77.01 38.5725 76.9 38.7625 76.72L42.8025 72.68C43.7225 71.76 43.7225 70.27 42.8025 69.35L42.7925 69.34ZM41.3825 71.25L37.6225 75.01H37.1125L37.1225 74.51L40.8825 70.75C41.0625 70.57 41.2025 70.57 41.3825 70.75C41.4725 70.84 41.4825 70.95 41.4825 71C41.4825 71.05 41.4725 71.16 41.3825 71.25Z" fill="#01FF1A"/>
</svg>
