<svg width="16" height="20" viewBox="0 0 16 20" fill="none" xmlns="http://www.w3.org/2000/svg">
<g id="Group">
<path id="Vector" d="M7.99992 9.16683C10.2999 9.16683 12.1666 7.30016 12.1666 5.00016C12.1666 2.70016 10.2999 0.833496 7.99992 0.833496C5.69992 0.833496 3.83325 2.70016 3.83325 5.00016C3.83325 7.30016 5.69992 9.16683 7.99992 9.16683ZM7.99992 2.50016C9.37492 2.50016 10.4999 3.62516 10.4999 5.00016C10.4999 6.37516 9.37492 7.50016 7.99992 7.50016C6.62492 7.50016 5.49992 6.37516 5.49992 5.00016C5.49992 3.62516 6.62492 2.50016 7.99992 2.50016Z" fill="#98A2B3"/>
<path id="Vector_2" d="M8 10C3.86667 10 0.5 13.7417 0.5 18.3333C0.5 18.7917 0.875 19.1667 1.33333 19.1667C1.79167 19.1667 2.16667 18.7917 2.16667 18.3333C2.16667 14.6583 4.78333 11.6667 8 11.6667C11.2167 11.6667 13.8333 14.6583 13.8333 18.3333C13.8333 18.7917 14.2083 19.1667 14.6667 19.1667C15.125 19.1667 15.5 18.7917 15.5 18.3333C15.5 13.7417 12.1333 10 8 10Z" fill="#98A2B3"/>
</g>
</svg>
