<svg width="65" height="108" viewBox="0 0 65 108" fill="none" xmlns="http://www.w3.org/2000/svg">
<rect x="0.54248" y="0.5" width="63" height="107" rx="4.5" stroke="#9747FF" stroke-dasharray="10 5"/>
<path d="M29.0425 31C31.8025 31 34.0425 28.76 34.0425 26C34.0425 23.24 31.8025 21 29.0425 21C26.2825 21 24.0425 23.24 24.0425 26C24.0425 28.76 26.2825 31 29.0425 31ZM29.0425 23C30.6925 23 32.0425 24.35 32.0425 26C32.0425 27.65 30.6925 29 29.0425 29C27.3925 29 26.0425 27.65 26.0425 26C26.0425 24.35 27.3925 23 29.0425 23Z" fill="white"/>
<path d="M29.0425 32C24.0825 32 20.0425 36.49 20.0425 42C20.0425 42.55 20.4925 43 21.0425 43C21.5925 43 22.0425 42.55 22.0425 42C22.0425 37.59 25.1825 34 29.0425 34C32.9025 34 36.0425 37.59 36.0425 42C36.0425 42.55 36.4925 43 37.0425 43C37.5925 43 38.0425 42.55 38.0425 42C38.0425 36.49 34.0025 32 29.0425 32Z" fill="white"/>
<path d="M43.0425 29H41.0425V27C41.0425 26.45 40.5925 26 40.0425 26C39.4925 26 39.0425 26.45 39.0425 27V29H37.0425C36.4925 29 36.0425 29.45 36.0425 30C36.0425 30.55 36.4925 31 37.0425 31H39.0425V33C39.0425 33.55 39.4925 34 40.0425 34C40.5925 34 41.0425 33.55 41.0425 33V31H43.0425C43.5925 31 44.0425 30.55 44.0425 30C44.0425 29.45 43.5925 29 43.0425 29Z" fill="white"/>
<path d="M29.0425 75C31.8025 75 34.0425 72.76 34.0425 70C34.0425 67.24 31.8025 65 29.0425 65C26.2825 65 24.0425 67.24 24.0425 70C24.0425 72.76 26.2825 75 29.0425 75ZM29.0425 67C30.6925 67 32.0425 68.35 32.0425 70C32.0425 71.65 30.6925 73 29.0425 73C27.3925 73 26.0425 71.65 26.0425 70C26.0425 68.35 27.3925 67 29.0425 67Z" fill="#01FF1A"/>
<path d="M29.0425 76C24.0825 76 20.0425 80.49 20.0425 86C20.0425 86.55 20.4925 87 21.0425 87C21.5925 87 22.0425 86.55 22.0425 86C22.0425 81.59 25.1825 78 29.0425 78C32.9025 78 36.0425 81.59 36.0425 86C36.0425 86.55 36.4925 87 37.0425 87C37.5925 87 38.0425 86.55 38.0425 86C38.0425 80.49 34.0025 76 29.0425 76Z" fill="#01FF1A"/>
<path d="M43.0425 73H41.0425V71C41.0425 70.45 40.5925 70 40.0425 70C39.4925 70 39.0425 70.45 39.0425 71V73H37.0425C36.4925 73 36.0425 73.45 36.0425 74C36.0425 74.55 36.4925 75 37.0425 75H39.0425V77C39.0425 77.55 39.4925 78 40.0425 78C40.5925 78 41.0425 77.55 41.0425 77V75H43.0425C43.5925 75 44.0425 74.55 44.0425 74C44.0425 73.45 43.5925 73 43.0425 73Z" fill="#01FF1A"/>
</svg>
