<svg width="65" height="108" viewBox="0 0 65 108" fill="none" xmlns="http://www.w3.org/2000/svg">
<rect x="0.54248" y="0.5" width="63" height="107" rx="4.5" stroke="#9747FF" stroke-dasharray="10 5"/>
<path d="M32.0425 31C34.8025 31 37.0425 28.76 37.0425 26C37.0425 23.24 34.8025 21 32.0425 21C29.2825 21 27.0425 23.24 27.0425 26C27.0425 28.76 29.2825 31 32.0425 31ZM32.0425 23C33.6925 23 35.0425 24.35 35.0425 26C35.0425 27.65 33.6925 29 32.0425 29C30.3925 29 29.0425 27.65 29.0425 26C29.0425 24.35 30.3925 23 32.0425 23Z" fill="white"/>
<path d="M32.0425 32C27.0825 32 23.0425 36.49 23.0425 42C23.0425 42.55 23.4925 43 24.0425 43C24.5925 43 25.0425 42.55 25.0425 42C25.0425 37.59 28.1825 34 32.0425 34C35.9025 34 39.0425 37.59 39.0425 42C39.0425 42.55 39.4925 43 40.0425 43C40.5925 43 41.0425 42.55 41.0425 42C41.0425 36.49 37.0025 32 32.0425 32Z" fill="white"/>
<path d="M32.0425 75C34.8025 75 37.0425 72.76 37.0425 70C37.0425 67.24 34.8025 65 32.0425 65C29.2825 65 27.0425 67.24 27.0425 70C27.0425 72.76 29.2825 75 32.0425 75ZM32.0425 67C33.6925 67 35.0425 68.35 35.0425 70C35.0425 71.65 33.6925 73 32.0425 73C30.3925 73 29.0425 71.65 29.0425 70C29.0425 68.35 30.3925 67 32.0425 67Z" fill="#01FF1A"/>
<path d="M32.0425 76C27.0825 76 23.0425 80.49 23.0425 86C23.0425 86.55 23.4925 87 24.0425 87C24.5925 87 25.0425 86.55 25.0425 86C25.0425 81.59 28.1825 78 32.0425 78C35.9025 78 39.0425 81.59 39.0425 86C39.0425 86.55 39.4925 87 40.0425 87C40.5925 87 41.0425 86.55 41.0425 86C41.0425 80.49 37.0025 76 32.0425 76Z" fill="#01FF1A"/>
</svg>
