<svg width="65" height="108" viewBox="0 0 65 108" fill="none" xmlns="http://www.w3.org/2000/svg">
<rect x="0.52002" y="0.5" width="63.0225" height="107" rx="4.5" stroke="#9747FF" stroke-dasharray="10 5"/>
<path d="M29.02 31C31.78 31 34.02 28.76 34.02 26C34.02 23.24 31.78 21 29.02 21C26.26 21 24.02 23.24 24.02 26C24.02 28.76 26.26 31 29.02 31ZM29.02 23C30.67 23 32.02 24.35 32.02 26C32.02 27.65 30.67 29 29.02 29C27.37 29 26.02 27.65 26.02 26C26.02 24.35 27.37 23 29.02 23Z" fill="white"/>
<path d="M29.02 32C24.06 32 20.02 36.49 20.02 42C20.02 42.55 20.47 43 21.02 43C21.57 43 22.02 42.55 22.02 42C22.02 37.59 25.16 34 29.02 34C32.88 34 36.02 37.59 36.02 42C36.02 42.55 36.47 43 37.02 43C37.57 43 38.02 42.55 38.02 42C38.02 36.49 33.98 32 29.02 32Z" fill="white"/>
<path d="M43.73 27.29C43.34 26.9 42.71 26.9 42.32 27.29L39.03 30.58L37.74 29.29C37.35 28.9 36.72 28.9 36.33 29.29C35.94 29.68 35.94 30.31 36.33 30.7L38.33 32.7C38.53 32.9 38.78 32.99 39.04 32.99C39.3 32.99 39.55 32.89 39.75 32.7L43.75 28.7C44.14 28.31 44.14 27.68 43.75 27.29H43.73Z" fill="white"/>
<path d="M29.02 75C31.78 75 34.02 72.76 34.02 70C34.02 67.24 31.78 65 29.02 65C26.26 65 24.02 67.24 24.02 70C24.02 72.76 26.26 75 29.02 75ZM29.02 67C30.67 67 32.02 68.35 32.02 70C32.02 71.65 30.67 73 29.02 73C27.37 73 26.02 71.65 26.02 70C26.02 68.35 27.37 67 29.02 67Z" fill="#01FF1A"/>
<path d="M29.02 76C24.06 76 20.02 80.49 20.02 86C20.02 86.55 20.47 87 21.02 87C21.57 87 22.02 86.55 22.02 86C22.02 81.59 25.16 78 29.02 78C32.88 78 36.02 81.59 36.02 86C36.02 86.55 36.47 87 37.02 87C37.57 87 38.02 86.55 38.02 86C38.02 80.49 33.98 76 29.02 76Z" fill="#01FF1A"/>
<path d="M43.73 71.29C43.34 70.9 42.71 70.9 42.32 71.29L39.03 74.58L37.74 73.29C37.35 72.9 36.72 72.9 36.33 73.29C35.94 73.68 35.94 74.31 36.33 74.7L38.33 76.7C38.53 76.9 38.78 76.99 39.04 76.99C39.3 76.99 39.55 76.89 39.75 76.7L43.75 72.7C44.14 72.31 44.14 71.68 43.75 71.29H43.73Z" fill="#01FF1A"/>
</svg>
