<svg width="65" height="108" viewBox="0 0 65 108" fill="none" xmlns="http://www.w3.org/2000/svg">
<rect x="0.54248" y="0.5" width="63" height="107" rx="4.5" stroke="#9747FF" stroke-dasharray="10 5"/>
<path d="M37.0425 21H27.0425C25.3925 21 24.0425 22.35 24.0425 24V40C24.0425 41.65 25.3925 43 27.0425 43H37.0425C38.6925 43 40.0425 41.65 40.0425 40V24C40.0425 22.35 38.6925 21 37.0425 21ZM38.0425 40C38.0425 40.55 37.5925 41 37.0425 41H27.0425C26.4925 41 26.0425 40.55 26.0425 40V24C26.0425 23.45 26.4925 23 27.0425 23H37.0425C37.5925 23 38.0425 23.45 38.0425 24V40Z" fill="white"/>
<path d="M35.0425 38H29.0425C28.4925 38 28.0425 38.45 28.0425 39C28.0425 39.55 28.4925 40 29.0425 40H35.0425C35.5925 40 36.0425 39.55 36.0425 39C36.0425 38.45 35.5925 38 35.0425 38Z" fill="white"/>
<path d="M37.0425 65H27.0425C25.3925 65 24.0425 66.35 24.0425 68V84C24.0425 85.65 25.3925 87 27.0425 87H37.0425C38.6925 87 40.0425 85.65 40.0425 84V68C40.0425 66.35 38.6925 65 37.0425 65ZM38.0425 84C38.0425 84.55 37.5925 85 37.0425 85H27.0425C26.4925 85 26.0425 84.55 26.0425 84V68C26.0425 67.45 26.4925 67 27.0425 67H37.0425C37.5925 67 38.0425 67.45 38.0425 68V84Z" fill="#01FF1A"/>
<path d="M35.0425 82H29.0425C28.4925 82 28.0425 82.45 28.0425 83C28.0425 83.55 28.4925 84 29.0425 84H35.0425C35.5925 84 36.0425 83.55 36.0425 83C36.0425 82.45 35.5925 82 35.0425 82Z" fill="#01FF1A"/>
</svg>
