<svg width="65" height="108" viewBox="0 0 65 108" fill="none" xmlns="http://www.w3.org/2000/svg">
<rect x="0.555176" y="0.5" width="63" height="107" rx="4.5" stroke="#9747FF" stroke-dasharray="10 5"/>
<path d="M27.4652 40.83C27.0652 40.83 26.6752 40.73 26.3152 40.54C25.5452 40.12 25.0652 39.31 25.0652 38.43V25.58C25.0652 24.7 25.5452 23.89 26.3152 23.47C27.0852 23.05 28.0252 23.08 28.7752 23.56L38.7652 29.98C39.4552 30.43 39.8752 31.18 39.8752 32.01C39.8752 32.84 39.4652 33.59 38.7652 34.04L28.7752 40.46C28.3752 40.71 27.9252 40.84 27.4752 40.84L27.4652 40.83ZM27.4652 25.17C27.3852 25.17 27.3152 25.2 27.2652 25.22C27.1852 25.26 27.0552 25.37 27.0552 25.58V38.42C27.0552 38.63 27.1852 38.74 27.2652 38.78C27.3452 38.82 27.5052 38.88 27.6852 38.77L37.6752 32.35C37.8352 32.24 37.8652 32.09 37.8652 32.01C37.8652 31.93 37.8452 31.77 37.6752 31.67L27.6852 25.24C27.6052 25.19 27.5352 25.17 27.4652 25.17Z" fill="white"/>
<path d="M27.4652 84.83C27.0652 84.83 26.6752 84.73 26.3152 84.54C25.5452 84.12 25.0652 83.31 25.0652 82.43V69.58C25.0652 68.7 25.5452 67.89 26.3152 67.47C27.0852 67.05 28.0252 67.08 28.7752 67.56L38.7652 73.98C39.4552 74.43 39.8752 75.18 39.8752 76.01C39.8752 76.84 39.4652 77.59 38.7652 78.04L28.7752 84.46C28.3752 84.71 27.9252 84.84 27.4752 84.84L27.4652 84.83ZM27.4652 69.17C27.3852 69.17 27.3152 69.2 27.2652 69.22C27.1852 69.26 27.0552 69.37 27.0552 69.58V82.42C27.0552 82.63 27.1852 82.74 27.2652 82.78C27.3452 82.82 27.5052 82.88 27.6852 82.77L37.6752 76.35C37.8352 76.24 37.8652 76.09 37.8652 76.01C37.8652 75.93 37.8452 75.77 37.6752 75.67L27.6852 69.24C27.6052 69.19 27.5352 69.17 27.4652 69.17Z" fill="#01FF1A"/>
</svg>
