<svg width="64" height="108" viewBox="0 0 64 108" fill="none" xmlns="http://www.w3.org/2000/svg">
<rect x="0.5" y="0.5" width="63" height="107" rx="4.5" stroke="#9747FF" stroke-dasharray="10 5"/>
<path d="M21 31C20.45 31 20 30.55 20 30V24C20 23.45 20.45 23 21 23C21.55 23 22 23.45 22 24V30C22 30.55 21.55 31 21 31Z" fill="black"/>
<path d="M32 22C28.9 22 27.22 22.57 25.33 24.25C25.33 24.25 25.33 24.27 25.31 24.27C25.31 24.27 25.29 24.27 25.29 24.29L22 27.58V23.99C22 23.44 21.55 22.99 21 22.99C20.45 22.99 20 23.44 20 23.99V29.99C20 29.99 20 30.01 20 30.03C20 30.15 20.02 30.26 20.07 30.38C20.07 30.38 20.08 30.4 20.09 30.41C20.14 30.51 20.2 30.6 20.27 30.67C20.29 30.7 20.32 30.72 20.35 30.74C20.41 30.8 20.48 30.84 20.56 30.88C20.59 30.9 20.62 30.91 20.65 30.92C20.76 30.96 20.88 30.99 21 30.99H27C27.55 30.99 28 30.54 28 29.99C28 29.44 27.55 28.99 27 28.99H23.41L26.68 25.72C28 24.55 29.13 23.99 32 23.99C36.41 23.99 40 27.58 40 31.99C40 36.4 36.41 39.99 32 39.99C28.94 39.99 26.19 38.29 24.83 35.54C24.58 35.05 23.99 34.84 23.49 35.09C23 35.34 22.79 35.94 23.04 36.43C24.74 39.86 28.18 41.98 32 41.98C37.51 41.98 42 37.49 42 31.98C42 26.47 37.51 21.98 32 21.98V22Z" fill="white"/>
<path d="M21 75C20.45 75 20 74.55 20 74V68C20 67.45 20.45 67 21 67C21.55 67 22 67.45 22 68V74C22 74.55 21.55 75 21 75Z" fill="black"/>
<path d="M32 66C28.9 66 27.22 66.57 25.33 68.25C25.33 68.25 25.33 68.27 25.31 68.27C25.31 68.27 25.29 68.27 25.29 68.29L22 71.58V67.99C22 67.44 21.55 66.99 21 66.99C20.45 66.99 20 67.44 20 67.99V73.99C20 73.99 20 74.01 20 74.03C20 74.15 20.02 74.26 20.07 74.38C20.07 74.38 20.08 74.4 20.09 74.41C20.14 74.51 20.2 74.6 20.27 74.67C20.29 74.7 20.32 74.72 20.35 74.74C20.41 74.8 20.48 74.84 20.56 74.88C20.59 74.9 20.62 74.91 20.65 74.92C20.76 74.96 20.88 74.99 21 74.99H27C27.55 74.99 28 74.54 28 73.99C28 73.44 27.55 72.99 27 72.99H23.41L26.68 69.72C28 68.55 29.13 67.99 32 67.99C36.41 67.99 40 71.58 40 75.99C40 80.4 36.41 83.99 32 83.99C28.94 83.99 26.19 82.29 24.83 79.54C24.58 79.05 23.99 78.84 23.49 79.09C23 79.34 22.79 79.94 23.04 80.43C24.74 83.86 28.18 85.98 32 85.98C37.51 85.98 42 81.49 42 75.98C42 70.47 37.51 65.98 32 65.98V66Z" fill="#01FF1A"/>
</svg>
