<svg width="65" height="108" viewBox="0 0 65 108" fill="none" xmlns="http://www.w3.org/2000/svg">
<rect x="0.555176" y="0.5" width="63" height="107" rx="4.5" stroke="#9747FF" stroke-dasharray="10 5"/>
<path d="M42.5352 30.34L35.4352 24.88C34.7952 24.39 33.9452 24.3 33.2252 24.66C32.5052 25.02 32.0552 25.74 32.0552 26.54V30.95C31.9252 30.72 31.7552 30.51 31.5352 30.34L24.4352 24.88C23.7952 24.39 22.9452 24.3 22.2252 24.66C21.5052 25.02 21.0552 25.74 21.0552 26.54V37.47C21.0552 38.28 21.5052 39 22.2252 39.35C22.5252 39.5 22.8452 39.57 23.1552 39.57C23.6052 39.57 24.0552 39.42 24.4352 39.13L31.5252 33.67C31.7452 33.5 31.9152 33.29 32.0452 33.06V37.47C32.0452 38.28 32.4952 39 33.2152 39.35C33.5152 39.5 33.8352 39.57 34.1452 39.57C34.5952 39.57 35.0452 39.42 35.4252 39.13L42.5152 33.67C43.0352 33.27 43.3352 32.66 43.3352 32.01C43.3352 31.36 43.0352 30.75 42.5152 30.35L42.5352 30.34ZM30.3152 32.08L23.2252 37.54C23.2252 37.54 23.1752 37.58 23.1152 37.55C23.0552 37.52 23.0552 37.48 23.0552 37.46V26.54C23.0552 26.54 23.0552 26.48 23.1152 26.45C23.1352 26.45 23.1452 26.44 23.1652 26.44C23.1952 26.44 23.2152 26.45 23.2252 26.46L30.3152 31.92V32.08ZM41.3152 32.08L34.2252 37.54C34.2252 37.54 34.1752 37.58 34.1152 37.55C34.0552 37.52 34.0552 37.48 34.0552 37.46V26.54C34.0552 26.54 34.0552 26.48 34.1152 26.45C34.1352 26.45 34.1452 26.44 34.1652 26.44C34.1952 26.44 34.2152 26.45 34.2252 26.46L41.3152 31.92V32.08Z" fill="white"/>
<path d="M42.5352 74.34L35.4352 68.88C34.7952 68.39 33.9452 68.3 33.2252 68.66C32.5052 69.02 32.0552 69.74 32.0552 70.54V74.95C31.9252 74.72 31.7552 74.51 31.5352 74.34L24.4352 68.88C23.7952 68.39 22.9452 68.3 22.2252 68.66C21.5052 69.02 21.0552 69.74 21.0552 70.54V81.47C21.0552 82.28 21.5052 83 22.2252 83.35C22.5252 83.5 22.8452 83.57 23.1552 83.57C23.6052 83.57 24.0552 83.42 24.4352 83.13L31.5252 77.67C31.7452 77.5 31.9152 77.29 32.0452 77.06V81.47C32.0452 82.28 32.4952 83 33.2152 83.35C33.5152 83.5 33.8352 83.57 34.1452 83.57C34.5952 83.57 35.0452 83.42 35.4252 83.13L42.5152 77.67C43.0352 77.27 43.3352 76.66 43.3352 76.01C43.3352 75.36 43.0352 74.75 42.5152 74.35L42.5352 74.34ZM30.3152 76.08L23.2252 81.54C23.2252 81.54 23.1752 81.58 23.1152 81.55C23.0552 81.52 23.0552 81.48 23.0552 81.46V70.54C23.0552 70.54 23.0552 70.48 23.1152 70.45C23.1352 70.45 23.1452 70.44 23.1652 70.44C23.1952 70.44 23.2152 70.45 23.2252 70.46L30.3152 75.92V76.08ZM41.3152 76.08L34.2252 81.54C34.2252 81.54 34.1752 81.58 34.1152 81.55C34.0552 81.52 34.0552 81.48 34.0552 81.46V70.54C34.0552 70.54 34.0552 70.48 34.1152 70.45C34.1352 70.45 34.1452 70.44 34.1652 70.44C34.1952 70.44 34.2152 70.45 34.2252 70.46L41.3152 75.92V76.08Z" fill="#01FF1A"/>
</svg>
