<svg width="65" height="108" viewBox="0 0 65 108" fill="none" xmlns="http://www.w3.org/2000/svg">
<rect x="0.555176" y="0.5" width="63" height="107" rx="4.5" stroke="#9747FF" stroke-dasharray="10 5"/>
<path d="M41.8851 24.65C41.1651 24.29 40.3151 24.38 39.6751 24.87L32.5851 30.33C32.3651 30.5 32.1951 30.71 32.0651 30.94V26.53C32.0651 25.72 31.6151 25 30.8951 24.65C30.1751 24.29 29.3252 24.38 28.6852 24.87L21.5951 30.33C21.0751 30.73 20.7751 31.34 20.7751 31.99C20.7751 32.64 21.0751 33.25 21.5951 33.65L28.6951 39.11C29.0751 39.4 29.5251 39.55 29.9751 39.55C30.2951 39.55 30.6052 39.48 30.9052 39.33C31.6252 38.97 32.0751 38.25 32.0751 37.45V33.04C32.2051 33.27 32.3751 33.48 32.5951 33.65L39.6951 39.11C40.0751 39.4 40.5251 39.55 40.9751 39.55C41.2951 39.55 41.6052 39.48 41.9052 39.33C42.6252 38.97 43.0751 38.25 43.0751 37.45V26.54C43.0751 25.73 42.6252 25.01 41.9052 24.66L41.8851 24.65ZM30.0551 37.46C30.0551 37.46 30.0551 37.52 29.9951 37.55C29.9351 37.58 29.9051 37.55 29.8851 37.55L22.7551 32.01C22.7551 32.01 22.7852 31.94 22.7952 31.93L29.8851 26.47C29.8851 26.47 29.9151 26.45 29.9451 26.45C29.9551 26.45 29.9751 26.45 29.9951 26.46C30.0551 26.49 30.0551 26.53 30.0551 26.55V37.48V37.46ZM41.0551 37.46C41.0551 37.46 41.0551 37.52 40.9951 37.55C40.9351 37.58 40.9051 37.55 40.8851 37.55L33.7551 32.01C33.7551 32.01 33.7852 31.94 33.7952 31.93L40.8851 26.47C40.8851 26.47 40.9151 26.45 40.9451 26.45C40.9551 26.45 40.9751 26.45 40.9951 26.46C41.0551 26.49 41.0551 26.53 41.0551 26.55V37.48V37.46Z" fill="white"/>
<path d="M41.8851 68.65C41.1651 68.29 40.3151 68.38 39.6751 68.87L32.5851 74.33C32.3651 74.5 32.1951 74.71 32.0651 74.94V70.53C32.0651 69.72 31.6151 69 30.8951 68.65C30.1751 68.29 29.3252 68.38 28.6852 68.87L21.5951 74.33C21.0751 74.73 20.7751 75.34 20.7751 75.99C20.7751 76.64 21.0751 77.25 21.5951 77.65L28.6951 83.11C29.0751 83.4 29.5251 83.55 29.9751 83.55C30.2951 83.55 30.6052 83.48 30.9052 83.33C31.6252 82.97 32.0751 82.25 32.0751 81.45V77.04C32.2051 77.27 32.3751 77.48 32.5951 77.65L39.6951 83.11C40.0751 83.4 40.5251 83.55 40.9751 83.55C41.2951 83.55 41.6052 83.48 41.9052 83.33C42.6252 82.97 43.0751 82.25 43.0751 81.45V70.54C43.0751 69.73 42.6252 69.01 41.9052 68.66L41.8851 68.65ZM30.0551 81.46C30.0551 81.46 30.0551 81.52 29.9951 81.55C29.9351 81.58 29.9051 81.55 29.8851 81.55L22.7551 76.01C22.7551 76.01 22.7852 75.94 22.7952 75.93L29.8851 70.47C29.8851 70.47 29.9151 70.45 29.9451 70.45C29.9551 70.45 29.9751 70.45 29.9951 70.46C30.0551 70.49 30.0551 70.53 30.0551 70.55V81.48V81.46ZM41.0551 81.46C41.0551 81.46 41.0551 81.52 40.9951 81.55C40.9351 81.58 40.9051 81.55 40.8851 81.55L33.7551 76.01C33.7551 76.01 33.7852 75.94 33.7952 75.93L40.8851 70.47C40.8851 70.47 40.9151 70.45 40.9451 70.45C40.9551 70.45 40.9751 70.45 40.9951 70.46C41.0551 70.49 41.0551 70.53 41.0551 70.55V81.48V81.46Z" fill="#01FF1A"/>
</svg>
