<svg width="65" height="108" viewBox="0 0 65 108" fill="none" xmlns="http://www.w3.org/2000/svg">
<rect x="0.555176" y="0.5" width="63" height="107" rx="4.5" stroke="#9747FF" stroke-dasharray="10 5"/>
<path d="M41.7652 27.69L36.3652 22.29C36.1752 22.1 35.9252 22 35.6552 22H24.8552C23.3152 22 22.0552 23.26 22.0552 24.8V39.2C22.0552 40.74 23.3152 42 24.8552 42H39.2552C40.7952 42 42.0552 40.74 42.0552 39.2V28.4C42.0552 28.13 41.9452 27.88 41.7652 27.69ZM28.0552 40V33H36.0552V40H28.0552ZM40.0552 39.2C40.0552 39.64 39.6952 40 39.2552 40H38.0552V32C38.0552 31.45 37.6052 31 37.0552 31H27.0552C26.5052 31 26.0552 31.45 26.0552 32V40H24.8552C24.4152 40 24.0552 39.64 24.0552 39.2V24.8C24.0552 24.36 24.4152 24 24.8552 24H26.0552V27C26.0552 27.55 26.5052 28 27.0552 28H35.0552C35.6052 28 36.0552 27.55 36.0552 27C36.0552 26.45 35.6052 26 35.0552 26H28.0552V24H35.2452L40.0552 28.81V39.2Z" fill="white"/>
<path d="M41.7652 71.69L36.3652 66.29C36.1752 66.1 35.9252 66 35.6552 66H24.8552C23.3152 66 22.0552 67.26 22.0552 68.8V83.2C22.0552 84.74 23.3152 86 24.8552 86H39.2552C40.7952 86 42.0552 84.74 42.0552 83.2V72.4C42.0552 72.13 41.9452 71.88 41.7652 71.69ZM28.0552 84V77H36.0552V84H28.0552ZM40.0552 83.2C40.0552 83.64 39.6952 84 39.2552 84H38.0552V76C38.0552 75.45 37.6052 75 37.0552 75H27.0552C26.5052 75 26.0552 75.45 26.0552 76V84H24.8552C24.4152 84 24.0552 83.64 24.0552 83.2V68.8C24.0552 68.36 24.4152 68 24.8552 68H26.0552V71C26.0552 71.55 26.5052 72 27.0552 72H35.0552C35.6052 72 36.0552 71.55 36.0552 71C36.0552 70.45 35.6052 70 35.0552 70H28.0552V68H35.2452L40.0552 72.81V83.2Z" fill="#01FF1A"/>
</svg>
