<svg width="65" height="108" viewBox="0 0 65 108" fill="none" xmlns="http://www.w3.org/2000/svg">
<rect x="0.54248" y="0.5" width="63" height="107" rx="4.5" stroke="#9747FF" stroke-dasharray="10 5"/>
<path d="M41.9925 32.69C40.4925 28.02 36.5824 25 32.0424 25C27.5024 25 23.5924 28.02 22.0924 32.69C21.9224 33.22 22.2125 33.78 22.7425 33.95C23.2725 34.12 23.8324 33.83 24.0024 33.3C25.4924 28.65 29.1425 26.99 32.0525 26.99C34.9625 26.99 38.6024 28.65 40.1024 33.3C40.2424 33.72 40.6325 33.99 41.0525 33.99C41.1525 33.99 41.2524 33.97 41.3624 33.94C41.8925 33.77 42.1824 33.21 42.0124 32.68L41.9925 32.69Z" fill="white"/>
<path d="M32.0425 28C29.5625 28 27.5425 30.02 27.5425 32.5C27.5425 34.98 29.5625 37 32.0425 37C34.5225 37 36.5425 34.98 36.5425 32.5C36.5425 30.02 34.5225 28 32.0425 28ZM32.0425 35C30.6625 35 29.5425 33.88 29.5425 32.5C29.5425 31.12 30.6625 30 32.0425 30C33.4225 30 34.5425 31.12 34.5425 32.5C34.5425 33.88 33.4225 35 32.0425 35Z" fill="white"/>
<path d="M41.9925 76.69C40.4925 72.02 36.5824 69 32.0424 69C27.5024 69 23.5924 72.02 22.0924 76.69C21.9224 77.22 22.2125 77.78 22.7425 77.95C23.2725 78.12 23.8324 77.83 24.0024 77.3C25.4924 72.65 29.1425 70.99 32.0525 70.99C34.9625 70.99 38.6024 72.65 40.1024 77.3C40.2424 77.72 40.6325 77.99 41.0525 77.99C41.1525 77.99 41.2524 77.97 41.3624 77.94C41.8925 77.77 42.1824 77.21 42.0124 76.68L41.9925 76.69Z" fill="#01FF1A"/>
<path d="M32.0425 72C29.5625 72 27.5425 74.02 27.5425 76.5C27.5425 78.98 29.5625 81 32.0425 81C34.5225 81 36.5425 78.98 36.5425 76.5C36.5425 74.02 34.5225 72 32.0425 72ZM32.0425 79C30.6625 79 29.5425 77.88 29.5425 76.5C29.5425 75.12 30.6625 74 32.0425 74C33.4225 74 34.5425 75.12 34.5425 76.5C34.5425 77.88 33.4225 79 32.0425 79Z" fill="#01FF1A"/>
</svg>
