<svg width="65" height="108" viewBox="0 0 65 108" fill="none" xmlns="http://www.w3.org/2000/svg">
<rect x="0.54248" y="0.5" width="63.0126" height="107" rx="4.5" stroke="#9747FF" stroke-dasharray="10 5"/>
<path d="M40.9415 35H41.0515C41.9315 35 42.7615 34.61 43.3415 33.94C43.9215 33.27 44.1615 32.38 44.0115 31.5C43.7815 30.07 42.4615 29 40.9415 29C40.5315 29 40.3615 28.71 40.3115 28.58C40.2615 28.45 40.1715 28.13 40.4615 27.84C41.5315 26.77 41.7015 25.07 40.8615 23.9C40.3415 23.18 39.5415 22.72 38.6615 22.65C37.7815 22.58 36.9215 22.9 36.3015 23.52L36.2215 23.6C35.9315 23.89 35.6015 23.8 35.4715 23.75C35.3415 23.7 35.0515 23.53 35.0515 23.12C35.0515 21.6 33.9715 20.29 32.5515 20.05C31.6715 19.91 30.7815 20.15 30.1115 20.72C29.4415 21.29 29.0515 22.12 29.0515 23.01V23.12C29.0515 23.53 28.7615 23.7 28.6315 23.75C28.5015 23.8 28.1715 23.89 27.8815 23.6C26.8115 22.53 25.1115 22.36 23.9415 23.2C23.2215 23.72 22.7615 24.52 22.6915 25.4C22.6215 26.28 22.9415 27.14 23.5615 27.77L23.6315 27.84C23.9215 28.13 23.8315 28.46 23.7815 28.59C23.7315 28.72 23.5615 29.01 23.1515 29.01C21.6315 29.01 20.3215 30.09 20.0815 31.51C19.9415 32.39 20.1815 33.28 20.7515 33.95C21.3215 34.62 22.1515 35.01 23.0415 35.01H23.1515C23.5615 35.01 23.7315 35.3 23.7815 35.43C23.8315 35.56 23.9215 35.88 23.6315 36.17C22.5615 37.24 22.3915 38.94 23.2315 40.11C23.7515 40.83 24.5515 41.29 25.4315 41.36C26.3115 41.42 27.1715 41.11 27.7915 40.49L27.8715 40.41C28.1615 40.12 28.4915 40.21 28.6215 40.26C28.7515 40.31 29.0415 40.48 29.0415 40.89C29.0415 42.41 30.1215 43.72 31.5415 43.96C31.7115 43.99 31.8715 44 32.0315 44C32.7415 44 33.4315 43.75 33.9815 43.29C34.6515 42.72 35.0415 41.89 35.0415 41V40.89C35.0415 40.48 35.3315 40.31 35.4615 40.26C35.5915 40.21 35.9115 40.12 36.2015 40.41C37.2715 41.48 38.9715 41.65 40.1415 40.81C40.8615 40.29 41.3215 39.49 41.3915 38.61C41.4615 37.73 41.1415 36.87 40.5215 36.24L40.4515 36.17C40.1615 35.88 40.2515 35.55 40.3015 35.42C40.3515 35.29 40.5215 35 40.9315 35H40.9415ZM38.4615 34.66C38.0415 35.68 38.2615 36.8 39.0515 37.59L39.1215 37.66C39.3315 37.87 39.4315 38.16 39.4115 38.45C39.3915 38.75 39.2415 39.01 38.9915 39.19C38.6115 39.46 38.0215 39.38 37.6315 39C36.8515 38.22 35.7315 37.99 34.7115 38.42C33.6915 38.84 33.0515 39.79 33.0515 40.9V41.01C33.0515 41.3 32.9215 41.58 32.7015 41.77C32.4715 41.96 32.1815 42.04 31.8815 41.99C31.4215 41.91 31.0515 41.44 31.0515 40.9C31.0515 39.79 30.4215 38.84 29.3915 38.42C29.0515 38.28 28.6915 38.21 28.3515 38.21C27.6615 38.21 26.9915 38.48 26.4715 39L26.3915 39.08C26.1815 39.29 25.9015 39.4 25.6015 39.37C25.3015 39.35 25.0415 39.2 24.8615 38.95C24.5915 38.57 24.6715 37.97 25.0515 37.59C25.8315 36.81 26.0515 35.69 25.6315 34.67C25.2115 33.65 24.2615 33.01 23.1515 33.01H23.0415C22.7515 33.01 22.4715 32.88 22.2815 32.66C22.0915 32.43 22.0115 32.14 22.0615 31.84C22.1415 31.38 22.6115 31.02 23.1515 31.02C24.2615 31.02 25.2115 30.39 25.6315 29.36C26.0515 28.34 25.8315 27.22 25.0515 26.43L24.9815 26.36C24.7715 26.15 24.6715 25.86 24.6915 25.57C24.7115 25.27 24.8615 25.01 25.1115 24.83C25.4915 24.56 26.0915 24.64 26.4715 25.02C27.2515 25.8 28.3715 26.02 29.3915 25.6C30.4115 25.18 31.0515 24.23 31.0515 23.12V23.01C31.0515 22.72 31.1815 22.44 31.4015 22.25C31.6315 22.06 31.9215 21.98 32.2215 22.03C32.6815 22.11 33.0515 22.59 33.0515 23.12C33.0515 24.23 33.6815 25.18 34.7115 25.6C35.7315 26.02 36.8515 25.8 37.6315 25.02L37.7115 24.94C37.9215 24.73 38.2115 24.63 38.5015 24.65C38.8015 24.67 39.0615 24.82 39.2415 25.07C39.5115 25.45 39.4315 26.05 39.0515 26.43C38.2715 27.21 38.0515 28.33 38.4715 29.35C38.8915 30.37 39.8415 31.01 40.9515 31.01C41.4915 31.01 41.9715 31.37 42.0415 31.83C42.0915 32.13 42.0115 32.43 41.8215 32.65C41.6315 32.87 41.3515 33 41.0615 33H40.9515C39.8415 33 38.8915 33.63 38.4715 34.66H38.4615Z" fill="white"/>
<path d="M32.0515 28C29.8415 28 28.0515 29.79 28.0515 32C28.0515 34.21 29.8415 36 32.0515 36C34.2615 36 36.0515 34.21 36.0515 32C36.0515 29.79 34.2615 28 32.0515 28ZM32.0515 34C30.9515 34 30.0515 33.1 30.0515 32C30.0515 30.9 30.9515 30 32.0515 30C33.1515 30 34.0515 30.9 34.0515 32C34.0515 33.1 33.1515 34 32.0515 34Z" fill="white"/>
<path d="M40.9415 79H41.0515C41.9315 79 42.7615 78.61 43.3415 77.94C43.9215 77.27 44.1615 76.38 44.0115 75.5C43.7815 74.07 42.4615 73 40.9415 73C40.5315 73 40.3615 72.71 40.3115 72.58C40.2615 72.45 40.1715 72.13 40.4615 71.84C41.5315 70.77 41.7015 69.07 40.8615 67.9C40.3415 67.18 39.5415 66.72 38.6615 66.65C37.7815 66.58 36.9215 66.9 36.3015 67.52L36.2215 67.6C35.9315 67.89 35.6015 67.8 35.4715 67.75C35.3415 67.7 35.0515 67.53 35.0515 67.12C35.0515 65.6 33.9715 64.29 32.5515 64.05C31.6715 63.91 30.7815 64.15 30.1115 64.72C29.4415 65.29 29.0515 66.12 29.0515 67.01V67.12C29.0515 67.53 28.7615 67.7 28.6315 67.75C28.5015 67.8 28.1715 67.89 27.8815 67.6C26.8115 66.53 25.1115 66.36 23.9415 67.2C23.2215 67.72 22.7615 68.52 22.6915 69.4C22.6215 70.28 22.9415 71.14 23.5615 71.77L23.6315 71.84C23.9215 72.13 23.8315 72.46 23.7815 72.59C23.7315 72.72 23.5615 73.01 23.1515 73.01C21.6315 73.01 20.3215 74.09 20.0815 75.51C19.9415 76.39 20.1815 77.28 20.7515 77.95C21.3215 78.62 22.1515 79.01 23.0415 79.01H23.1515C23.5615 79.01 23.7315 79.3 23.7815 79.43C23.8315 79.56 23.9215 79.88 23.6315 80.17C22.5615 81.24 22.3915 82.94 23.2315 84.11C23.7515 84.83 24.5515 85.29 25.4315 85.36C26.3115 85.42 27.1715 85.11 27.7915 84.49L27.8715 84.41C28.1615 84.12 28.4915 84.21 28.6215 84.26C28.7515 84.31 29.0415 84.48 29.0415 84.89C29.0415 86.41 30.1215 87.72 31.5415 87.96C31.7115 87.99 31.8715 88 32.0315 88C32.7415 88 33.4315 87.75 33.9815 87.29C34.6515 86.72 35.0415 85.89 35.0415 85V84.89C35.0415 84.48 35.3315 84.31 35.4615 84.26C35.5915 84.21 35.9115 84.12 36.2015 84.41C37.2715 85.48 38.9715 85.65 40.1415 84.81C40.8615 84.29 41.3215 83.49 41.3915 82.61C41.4615 81.73 41.1415 80.87 40.5215 80.24L40.4515 80.17C40.1615 79.88 40.2515 79.55 40.3015 79.42C40.3515 79.29 40.5215 79 40.9315 79H40.9415ZM38.4615 78.66C38.0415 79.68 38.2615 80.8 39.0515 81.59L39.1215 81.66C39.3315 81.87 39.4315 82.16 39.4115 82.45C39.3915 82.75 39.2415 83.01 38.9915 83.19C38.6115 83.46 38.0215 83.38 37.6315 83C36.8515 82.22 35.7315 81.99 34.7115 82.42C33.6915 82.84 33.0515 83.79 33.0515 84.9V85.01C33.0515 85.3 32.9215 85.58 32.7015 85.77C32.4715 85.96 32.1815 86.04 31.8815 85.99C31.4215 85.91 31.0515 85.44 31.0515 84.9C31.0515 83.79 30.4215 82.84 29.3915 82.42C29.0515 82.28 28.6915 82.21 28.3515 82.21C27.6615 82.21 26.9915 82.48 26.4715 83L26.3915 83.08C26.1815 83.29 25.9015 83.4 25.6015 83.37C25.3015 83.35 25.0415 83.2 24.8615 82.95C24.5915 82.57 24.6715 81.97 25.0515 81.59C25.8315 80.81 26.0515 79.69 25.6315 78.67C25.2115 77.65 24.2615 77.01 23.1515 77.01H23.0415C22.7515 77.01 22.4715 76.88 22.2815 76.66C22.0915 76.43 22.0115 76.14 22.0615 75.84C22.1415 75.38 22.6115 75.02 23.1515 75.02C24.2615 75.02 25.2115 74.39 25.6315 73.36C26.0515 72.34 25.8315 71.22 25.0515 70.43L24.9815 70.36C24.7715 70.15 24.6715 69.86 24.6915 69.57C24.7115 69.27 24.8615 69.01 25.1115 68.83C25.4915 68.56 26.0915 68.64 26.4715 69.02C27.2515 69.8 28.3715 70.02 29.3915 69.6C30.4115 69.18 31.0515 68.23 31.0515 67.12V67.01C31.0515 66.72 31.1815 66.44 31.4015 66.25C31.6315 66.06 31.9215 65.98 32.2215 66.03C32.6815 66.11 33.0515 66.59 33.0515 67.12C33.0515 68.23 33.6815 69.18 34.7115 69.6C35.7315 70.02 36.8515 69.8 37.6315 69.02L37.7115 68.94C37.9215 68.73 38.2115 68.63 38.5015 68.65C38.8015 68.67 39.0615 68.82 39.2415 69.07C39.5115 69.45 39.4315 70.05 39.0515 70.43C38.2715 71.21 38.0515 72.33 38.4715 73.35C38.8915 74.37 39.8415 75.01 40.9515 75.01C41.4915 75.01 41.9715 75.37 42.0415 75.83C42.0915 76.13 42.0115 76.43 41.8215 76.65C41.6315 76.87 41.3515 77 41.0615 77H40.9515C39.8415 77 38.8915 77.63 38.4715 78.66H38.4615Z" fill="#01FF1A"/>
<path d="M32.0515 72C29.8415 72 28.0515 73.79 28.0515 76C28.0515 78.21 29.8415 80 32.0515 80C34.2615 80 36.0515 78.21 36.0515 76C36.0515 73.79 34.2615 72 32.0515 72ZM32.0515 78C30.9515 78 30.0515 77.1 30.0515 76C30.0515 74.9 30.9515 74 32.0515 74C33.1515 74 34.0515 74.9 34.0515 76C34.0515 77.1 33.1515 78 32.0515 78Z" fill="#01FF1A"/>
</svg>
