<svg width="25" height="24" viewBox="0 0 25 24" fill="none" xmlns="http://www.w3.org/2000/svg">
<g id="Group">
<path id="Vector" d="M20.9415 15H21.0515C21.9315 15 22.7615 14.61 23.3415 13.94C23.9215 13.27 24.1615 12.38 24.0115 11.5C23.7815 10.07 22.4615 8.99999 20.9415 8.99999C20.5315 8.99999 20.3615 8.70999 20.3115 8.57999C20.2615 8.44999 20.1715 8.12999 20.4615 7.83999C21.5315 6.76999 21.7015 5.06999 20.8615 3.89999C20.3415 3.17999 19.5415 2.71999 18.6615 2.64999C17.7815 2.57999 16.9215 2.89999 16.3015 3.51999L16.2215 3.59999C15.9315 3.88999 15.6015 3.79999 15.4715 3.74999C15.3415 3.69999 15.0515 3.52999 15.0515 3.11999C15.0515 1.59999 13.9715 0.289989 12.5515 0.0499889C11.6715 -0.0900111 10.7815 0.149989 10.1115 0.719989C9.44148 1.28999 9.05148 2.11999 9.05148 3.00999V3.11999C9.05148 3.52999 8.76149 3.69999 8.63149 3.74999C8.50149 3.79999 8.17149 3.88999 7.88149 3.59999C6.81149 2.52999 5.11148 2.35999 3.94148 3.19999C3.22148 3.71999 2.76148 4.51999 2.69148 5.39999C2.62148 6.27999 2.94148 7.13999 3.56148 7.76999L3.63149 7.83999C3.92149 8.12999 3.83148 8.45999 3.78148 8.58999C3.73148 8.71999 3.56149 9.00999 3.15149 9.00999C1.63149 9.00999 0.321483 10.09 0.0814832 11.51C-0.0585168 12.39 0.181481 13.28 0.751481 13.95C1.32148 14.62 2.15149 15.01 3.04149 15.01H3.15149C3.56149 15.01 3.73148 15.3 3.78148 15.43C3.83148 15.56 3.92149 15.88 3.63149 16.17C2.56149 17.24 2.39148 18.94 3.23148 20.11C3.75148 20.83 4.55149 21.29 5.43149 21.36C6.31149 21.42 7.17149 21.11 7.79149 20.49L7.87149 20.41C8.16149 20.12 8.49149 20.21 8.62149 20.26C8.75149 20.31 9.04149 20.48 9.04149 20.89C9.04149 22.41 10.1215 23.72 11.5415 23.96C11.7115 23.99 11.8715 24 12.0315 24C12.7415 24 13.4315 23.75 13.9815 23.29C14.6515 22.72 15.0415 21.89 15.0415 21V20.89C15.0415 20.48 15.3315 20.31 15.4615 20.26C15.5915 20.21 15.9115 20.12 16.2015 20.41C17.2715 21.48 18.9715 21.65 20.1415 20.81C20.8615 20.29 21.3215 19.49 21.3915 18.61C21.4615 17.73 21.1415 16.87 20.5215 16.24L20.4515 16.17C20.1615 15.88 20.2515 15.55 20.3015 15.42C20.3515 15.29 20.5215 15 20.9315 15H20.9415ZM18.4615 14.66C18.0415 15.68 18.2615 16.8 19.0515 17.59L19.1215 17.66C19.3315 17.87 19.4315 18.16 19.4115 18.45C19.3915 18.75 19.2415 19.01 18.9915 19.19C18.6115 19.46 18.0215 19.38 17.6315 19C16.8515 18.22 15.7315 17.99 14.7115 18.42C13.6915 18.84 13.0515 19.79 13.0515 20.9V21.01C13.0515 21.3 12.9215 21.58 12.7015 21.77C12.4715 21.96 12.1815 22.04 11.8815 21.99C11.4215 21.91 11.0515 21.44 11.0515 20.9C11.0515 19.79 10.4215 18.84 9.39148 18.42C9.05148 18.28 8.69149 18.21 8.35149 18.21C7.66149 18.21 6.99148 18.48 6.47148 19L6.39148 19.08C6.18148 19.29 5.90149 19.4 5.60149 19.37C5.30149 19.35 5.04148 19.2 4.86148 18.95C4.59148 18.57 4.67148 17.97 5.05148 17.59C5.83148 16.81 6.05149 15.69 5.63149 14.67C5.21149 13.65 4.26149 13.01 3.15149 13.01H3.04149C2.75149 13.01 2.47148 12.88 2.28148 12.66C2.09148 12.43 2.01148 12.14 2.06148 11.84C2.14148 11.38 2.61149 11.02 3.15149 11.02C4.26149 11.02 5.21149 10.39 5.63149 9.35999C6.05149 8.33999 5.83148 7.21999 5.05148 6.42999L4.98148 6.35999C4.77148 6.14999 4.67148 5.85999 4.69148 5.56999C4.71148 5.26999 4.86148 5.00999 5.11148 4.82999C5.49148 4.55999 6.09148 4.63999 6.47148 5.01999C7.25148 5.79999 8.37148 6.01999 9.39148 5.59999C10.4115 5.17999 11.0515 4.22999 11.0515 3.11999V3.00999C11.0515 2.71999 11.1815 2.43999 11.4015 2.24999C11.6315 2.05999 11.9215 1.97999 12.2215 2.02999C12.6815 2.10999 13.0515 2.58999 13.0515 3.11999C13.0515 4.22999 13.6815 5.17999 14.7115 5.59999C15.7315 6.01999 16.8515 5.79999 17.6315 5.01999L17.7115 4.93999C17.9215 4.72999 18.2115 4.62999 18.5015 4.64999C18.8015 4.66999 19.0615 4.81999 19.2415 5.06999C19.5115 5.44999 19.4315 6.04999 19.0515 6.42999C18.2715 7.20999 18.0515 8.32999 18.4715 9.34999C18.8915 10.37 19.8415 11.01 20.9515 11.01C21.4915 11.01 21.9715 11.37 22.0415 11.83C22.0915 12.13 22.0115 12.43 21.8215 12.65C21.6315 12.87 21.3515 13 21.0615 13H20.9515C19.8415 13 18.8915 13.63 18.4715 14.66H18.4615Z" fill="white"/>
<path id="Vector_2" d="M12.0515 8C9.84151 8 8.05151 9.79 8.05151 12C8.05151 14.21 9.84151 16 12.0515 16C14.2615 16 16.0515 14.21 16.0515 12C16.0515 9.79 14.2615 8 12.0515 8ZM12.0515 14C10.9515 14 10.0515 13.1 10.0515 12C10.0515 10.9 10.9515 10 12.0515 10C13.1515 10 14.0515 10.9 14.0515 12C14.0515 13.1 13.1515 14 12.0515 14Z" fill="white"/>
</g>
</svg>
