<svg width="65" height="108" viewBox="0 0 65 108" fill="none" xmlns="http://www.w3.org/2000/svg">
<rect x="0.555176" y="0.5" width="63" height="107" rx="4.5" stroke="#9747FF" stroke-dasharray="10 5"/>
<path d="M26.2152 39.64C25.8752 39.64 25.5352 39.56 25.2152 39.39C24.5052 39.02 24.0552 38.29 24.0552 37.48V26.52C24.0552 25.71 24.4952 24.98 25.2152 24.61C25.9252 24.24 26.7852 24.29 27.4452 24.76L35.2752 30.24C35.8552 30.64 36.1952 31.3 36.1952 32C36.1952 32.7 35.8552 33.36 35.2752 33.76L27.4452 39.24C27.0752 39.5 26.6452 39.63 26.2152 39.63V39.64ZM26.2152 26.36C26.2152 26.36 26.1652 26.36 26.1452 26.38C26.0652 26.42 26.0652 26.49 26.0652 26.52V37.48C26.0652 37.48 26.0652 37.57 26.1452 37.62C26.2252 37.66 26.2852 37.62 26.3052 37.61L34.1352 32.13C34.1352 32.13 34.2052 32.06 34.2052 32C34.2052 31.94 34.1852 31.9 34.1352 31.87L26.3052 26.39C26.3052 26.39 26.2652 26.36 26.2152 26.36Z" fill="white"/>
<path d="M39.0552 40C38.5052 40 38.0552 39.55 38.0552 39V25C38.0552 24.45 38.5052 24 39.0552 24C39.6052 24 40.0552 24.45 40.0552 25V39C40.0552 39.55 39.6052 40 39.0552 40Z" fill="white"/>
<path d="M26.2152 83.64C25.8752 83.64 25.5352 83.56 25.2152 83.39C24.5052 83.02 24.0552 82.29 24.0552 81.48V70.52C24.0552 69.71 24.4952 68.98 25.2152 68.61C25.9252 68.24 26.7852 68.29 27.4452 68.76L35.2752 74.24C35.8552 74.64 36.1952 75.3 36.1952 76C36.1952 76.7 35.8552 77.36 35.2752 77.76L27.4452 83.24C27.0752 83.5 26.6452 83.63 26.2152 83.63V83.64ZM26.2152 70.36C26.2152 70.36 26.1652 70.36 26.1452 70.38C26.0652 70.42 26.0652 70.49 26.0652 70.52V81.48C26.0652 81.48 26.0652 81.57 26.1452 81.62C26.2252 81.66 26.2852 81.62 26.3052 81.61L34.1352 76.13C34.1352 76.13 34.2052 76.06 34.2052 76C34.2052 75.94 34.1852 75.9 34.1352 75.87L26.3052 70.39C26.3052 70.39 26.2652 70.36 26.2152 70.36Z" fill="#01FF1A"/>
<path d="M39.0552 84C38.5052 84 38.0552 83.55 38.0552 83V69C38.0552 68.45 38.5052 68 39.0552 68C39.6052 68 40.0552 68.45 40.0552 69V83C40.0552 83.55 39.6052 84 39.0552 84Z" fill="#01FF1A"/>
</svg>
