<svg width="65" height="108" viewBox="0 0 65 108" fill="none" xmlns="http://www.w3.org/2000/svg">
<rect x="0.555176" y="0.5" width="63" height="107" rx="4.5" stroke="#9747FF" stroke-dasharray="10 5"/>
<path d="M37.895 39.64C37.465 39.64 37.035 39.51 36.665 39.25L28.835 33.77C28.255 33.37 27.915 32.71 27.915 32.01C27.915 31.31 28.255 30.65 28.835 30.25L36.665 24.77C37.325 24.31 38.185 24.25 38.895 24.62C39.605 24.99 40.055 25.72 40.055 26.53V37.49C40.055 38.3 39.615 39.03 38.895 39.4C38.585 39.56 38.235 39.65 37.895 39.65V39.64ZM37.895 26.36C37.895 26.36 37.825 26.38 37.805 26.39L29.975 31.87C29.975 31.87 29.905 31.94 29.905 32C29.905 32.06 29.925 32.1 29.975 32.13L37.805 37.61C37.805 37.61 37.885 37.66 37.965 37.62C38.045 37.58 38.045 37.51 38.045 37.48V26.52C38.045 26.52 38.045 26.43 37.965 26.38C37.935 26.37 37.915 26.36 37.895 26.36Z" fill="white"/>
<path d="M25.0552 40C24.5052 40 24.0552 39.55 24.0552 39V25C24.0552 24.45 24.5052 24 25.0552 24C25.6052 24 26.0552 24.45 26.0552 25V39C26.0552 39.55 25.6052 40 25.0552 40Z" fill="white"/>
<path d="M37.895 83.64C37.465 83.64 37.035 83.51 36.665 83.25L28.835 77.77C28.255 77.37 27.915 76.71 27.915 76.01C27.915 75.31 28.255 74.65 28.835 74.25L36.665 68.77C37.325 68.31 38.185 68.25 38.895 68.62C39.605 68.99 40.055 69.72 40.055 70.53V81.49C40.055 82.3 39.615 83.03 38.895 83.4C38.585 83.56 38.235 83.65 37.895 83.65V83.64ZM37.895 70.36C37.895 70.36 37.825 70.38 37.805 70.39L29.975 75.87C29.975 75.87 29.905 75.94 29.905 76C29.905 76.06 29.925 76.1 29.975 76.13L37.805 81.61C37.805 81.61 37.885 81.66 37.965 81.62C38.045 81.58 38.045 81.51 38.045 81.48V70.52C38.045 70.52 38.045 70.43 37.965 70.38C37.935 70.37 37.915 70.36 37.895 70.36Z" fill="#01FF1A"/>
<path d="M25.0552 84C24.5052 84 24.0552 83.55 24.0552 83V69C24.0552 68.45 24.5052 68 25.0552 68C25.6052 68 26.0552 68.45 26.0552 69V83C26.0552 83.55 25.6052 84 25.0552 84Z" fill="#01FF1A"/>
</svg>
