<svg width="64" height="108" viewBox="0 0 64 108" fill="none" xmlns="http://www.w3.org/2000/svg">
<rect x="0.5" y="0.5" width="63" height="107" rx="4.5" stroke="#9747FF" stroke-dasharray="10 5"/>
<path d="M41.71 32.29L38.71 29.29C38.62 29.2 38.51 29.12 38.38 29.07C38.14 28.97 37.86 28.97 37.62 29.07C37.5 29.12 37.39 29.19 37.29 29.29L34.29 32.29C33.9 32.68 33.9 33.31 34.29 33.7C34.49 33.9 34.74 33.99 35 33.99C35.26 33.99 35.51 33.89 35.71 33.7L37 32.41V39C37 39.55 37.45 40 38 40C38.55 40 39 39.55 39 39V32.41L40.29 33.7C40.49 33.9 40.74 33.99 41 33.99C41.26 33.99 41.51 33.89 41.71 33.7C42.1 33.31 42.1 32.68 41.71 32.29Z" fill="white"/>
<path d="M24 26H39C39.55 26 40 25.55 40 25C40 24.45 39.55 24 39 24H24C23.45 24 23 24.45 23 25C23 25.55 23.45 26 24 26Z" fill="white"/>
<path d="M31 29H24C23.45 29 23 29.45 23 30C23 30.55 23.45 31 24 31H31C31.55 31 32 30.55 32 30C32 29.45 31.55 29 31 29Z" fill="white"/>
<path d="M31 34H24C23.45 34 23 34.45 23 35C23 35.55 23.45 36 24 36H31C31.55 36 32 35.55 32 35C32 34.45 31.55 34 31 34Z" fill="white"/>
<path d="M41.71 76.29L38.71 73.29C38.62 73.2 38.51 73.12 38.38 73.07C38.14 72.97 37.86 72.97 37.62 73.07C37.5 73.12 37.39 73.19 37.29 73.29L34.29 76.29C33.9 76.68 33.9 77.31 34.29 77.7C34.49 77.9 34.74 77.99 35 77.99C35.26 77.99 35.51 77.89 35.71 77.7L37 76.41V83C37 83.55 37.45 84 38 84C38.55 84 39 83.55 39 83V76.41L40.29 77.7C40.49 77.9 40.74 77.99 41 77.99C41.26 77.99 41.51 77.89 41.71 77.7C42.1 77.31 42.1 76.68 41.71 76.29Z" fill="#01FF1A"/>
<path d="M24 70H39C39.55 70 40 69.55 40 69C40 68.45 39.55 68 39 68H24C23.45 68 23 68.45 23 69C23 69.55 23.45 70 24 70Z" fill="#01FF1A"/>
<path d="M31 73H24C23.45 73 23 73.45 23 74C23 74.55 23.45 75 24 75H31C31.55 75 32 74.55 32 74C32 73.45 31.55 73 31 73Z" fill="#01FF1A"/>
<path d="M31 78H24C23.45 78 23 78.45 23 79C23 79.55 23.45 80 24 80H31C31.55 80 32 79.55 32 79C32 78.45 31.55 78 31 78Z" fill="#01FF1A"/>
</svg>
