<svg width="64" height="108" viewBox="0 0 64 108" fill="none" xmlns="http://www.w3.org/2000/svg">
<rect x="0.5" y="0.5" width="63" height="107" rx="4.5" stroke="#9747FF" stroke-dasharray="10 5"/>
<path d="M31.7101 27.29L28.7101 24.29C28.6201 24.2 28.5101 24.12 28.3801 24.07C28.1401 23.97 27.8601 23.97 27.6201 24.07C27.5001 24.12 27.3901 24.19 27.2901 24.29L24.2901 27.29C23.9001 27.68 23.9001 28.31 24.2901 28.7C24.4901 28.9 24.7401 28.99 25.0001 28.99C25.2601 28.99 25.5101 28.89 25.7101 28.7L27.0001 27.41V34C27.0001 34.55 27.4501 35 28.0001 35C28.5501 35 29.0001 34.55 29.0001 34V27.41L30.2901 28.7C30.4901 28.9 30.7401 28.99 31.0001 28.99C31.2601 28.99 31.5101 28.89 31.7101 28.7C32.1001 28.31 32.1001 27.68 31.7101 27.29Z" fill="white"/>
<path d="M39.71 35.29C39.32 34.9 38.6901 34.9 38.3001 35.29L37.0101 36.58V29.99C37.0101 29.44 36.5601 28.99 36.0101 28.99C35.4601 28.99 35.0101 29.44 35.0101 29.99V36.58L33.7201 35.29C33.3301 34.9 32.7 34.9 32.31 35.29C31.92 35.68 31.92 36.31 32.31 36.7L35.31 39.7C35.4 39.79 35.51 39.87 35.64 39.92C35.76 39.97 35.89 40 36.02 40C36.15 40 36.2801 39.97 36.4001 39.92C36.5201 39.87 36.6301 39.8 36.7301 39.7L39.7301 36.7C40.1201 36.31 40.1201 35.68 39.7301 35.29H39.71Z" fill="white"/>
<path d="M31.7101 71.29L28.7101 68.29C28.6201 68.2 28.5101 68.12 28.3801 68.07C28.1401 67.97 27.8601 67.97 27.6201 68.07C27.5001 68.12 27.3901 68.19 27.2901 68.29L24.2901 71.29C23.9001 71.68 23.9001 72.31 24.2901 72.7C24.4901 72.9 24.7401 72.99 25.0001 72.99C25.2601 72.99 25.5101 72.89 25.7101 72.7L27.0001 71.41V78C27.0001 78.55 27.4501 79 28.0001 79C28.5501 79 29.0001 78.55 29.0001 78V71.41L30.2901 72.7C30.4901 72.9 30.7401 72.99 31.0001 72.99C31.2601 72.99 31.5101 72.89 31.7101 72.7C32.1001 72.31 32.1001 71.68 31.7101 71.29Z" fill="#01FF1A"/>
<path d="M39.71 79.29C39.32 78.9 38.6901 78.9 38.3001 79.29L37.0101 80.58V73.99C37.0101 73.44 36.5601 72.99 36.0101 72.99C35.4601 72.99 35.0101 73.44 35.0101 73.99V80.58L33.7201 79.29C33.3301 78.9 32.7 78.9 32.31 79.29C31.92 79.68 31.92 80.31 32.31 80.7L35.31 83.7C35.4 83.79 35.51 83.87 35.64 83.92C35.76 83.97 35.89 84 36.02 84C36.15 84 36.2801 83.97 36.4001 83.92C36.5201 83.87 36.6301 83.8 36.7301 83.7L39.7301 80.7C40.1201 80.31 40.1201 79.68 39.7301 79.29H39.71Z" fill="#01FF1A"/>
</svg>
