<svg width="64" height="108" viewBox="0 0 64 108" fill="none" xmlns="http://www.w3.org/2000/svg">
<rect x="0.5" y="0.5" width="63" height="107" rx="4.5" stroke="#9747FF" stroke-dasharray="10 5"/>
<path d="M41.71 35.29C41.32 34.9 40.69 34.9 40.3 35.29L39.01 36.58V29.99C39.01 29.44 38.56 28.99 38.01 28.99C37.46 28.99 37.01 29.44 37.01 29.99V36.58L35.72 35.29C35.33 34.9 34.7 34.9 34.31 35.29C33.92 35.68 33.92 36.31 34.31 36.7L37.31 39.7C37.4 39.79 37.51 39.87 37.64 39.92C37.76 39.97 37.89 40 38.02 40C38.15 40 38.28 39.97 38.4 39.92C38.52 39.87 38.63 39.8 38.73 39.7L41.73 36.7C42.12 36.31 42.12 35.68 41.73 35.29H41.71Z" fill="white"/>
<path d="M24 26H39C39.55 26 40 25.55 40 25C40 24.45 39.55 24 39 24H24C23.45 24 23 24.45 23 25C23 25.55 23.45 26 24 26Z" fill="white"/>
<path d="M33 29H24C23.45 29 23 29.45 23 30C23 30.55 23.45 31 24 31H33C33.55 31 34 30.55 34 30C34 29.45 33.55 29 33 29Z" fill="white"/>
<path d="M30 34H24C23.45 34 23 34.45 23 35C23 35.55 23.45 36 24 36H30C30.55 36 31 35.55 31 35C31 34.45 30.55 34 30 34Z" fill="white"/>
<path d="M41.71 79.29C41.32 78.9 40.69 78.9 40.3 79.29L39.01 80.58V73.99C39.01 73.44 38.56 72.99 38.01 72.99C37.46 72.99 37.01 73.44 37.01 73.99V80.58L35.72 79.29C35.33 78.9 34.7 78.9 34.31 79.29C33.92 79.68 33.92 80.31 34.31 80.7L37.31 83.7C37.4 83.79 37.51 83.87 37.64 83.92C37.76 83.97 37.89 84 38.02 84C38.15 84 38.28 83.97 38.4 83.92C38.52 83.87 38.63 83.8 38.73 83.7L41.73 80.7C42.12 80.31 42.12 79.68 41.73 79.29H41.71Z" fill="#01FF1A"/>
<path d="M24 70H39C39.55 70 40 69.55 40 69C40 68.45 39.55 68 39 68H24C23.45 68 23 68.45 23 69C23 69.55 23.45 70 24 70Z" fill="#01FF1A"/>
<path d="M33 73H24C23.45 73 23 73.45 23 74C23 74.55 23.45 75 24 75H33C33.55 75 34 74.55 34 74C34 73.45 33.55 73 33 73Z" fill="#01FF1A"/>
<path d="M30 78H24C23.45 78 23 78.45 23 79C23 79.55 23.45 80 24 80H30C30.55 80 31 79.55 31 79C31 78.45 30.55 78 30 78Z" fill="#01FF1A"/>
</svg>
