<svg width="65" height="108" viewBox="0 0 65 108" fill="none" xmlns="http://www.w3.org/2000/svg">
<rect x="0.52002" y="0.5" width="63" height="107" rx="4.5" stroke="#9747FF" stroke-dasharray="10 5"/>
<path d="M42.33 31.78C42.96 31.16 43.18 30.26 42.91 29.42C42.64 28.58 41.93 27.98 41.05 27.86L36.38 27.18C36.28 27.17 36.2 27.1 36.16 27.02L34.07 22.79C33.68 22 32.89 21.51 32.01 21.51C31.13 21.51 30.34 22 29.95 22.79L27.86 27.02C27.82 27.11 27.73 27.17 27.64 27.18L22.97 27.86C22.1 27.99 21.39 28.59 21.11 29.42C20.84 30.26 21.06 31.16 21.69 31.78L25.07 35.07C25.14 35.14 25.17 35.24 25.16 35.34L24.36 39.99C24.21 40.86 24.56 41.72 25.27 42.24C25.98 42.76 26.91 42.82 27.69 42.41L31.86 40.22C31.95 40.18 32.05 40.18 32.14 40.22L36.31 42.41C36.65 42.59 37.02 42.68 37.38 42.68C37.85 42.68 38.33 42.53 38.73 42.24C39.44 41.72 39.79 40.86 39.64 39.99L38.84 35.34C38.82 35.24 38.86 35.14 38.93 35.08L42.31 31.79L42.33 31.78Z" fill="white"/>
<path d="M42.33 75.78C42.96 75.16 43.18 74.26 42.91 73.42C42.64 72.58 41.93 71.98 41.05 71.86L36.38 71.18C36.28 71.17 36.2 71.1 36.16 71.02L34.07 66.79C33.68 66 32.89 65.51 32.01 65.51C31.13 65.51 30.34 66 29.95 66.79L27.86 71.02C27.82 71.11 27.73 71.17 27.64 71.18L22.97 71.86C22.1 71.99 21.39 72.59 21.11 73.42C20.84 74.26 21.06 75.16 21.69 75.78L25.07 79.07C25.14 79.14 25.17 79.24 25.16 79.34L24.36 83.99C24.21 84.86 24.56 85.72 25.27 86.24C25.98 86.76 26.91 86.82 27.69 86.41L31.86 84.22C31.95 84.18 32.05 84.18 32.14 84.22L36.31 86.41C36.65 86.59 37.02 86.68 37.38 86.68C37.85 86.68 38.33 86.53 38.73 86.24C39.44 85.72 39.79 84.86 39.64 83.99L38.84 79.34C38.82 79.24 38.86 79.14 38.93 79.08L42.31 75.79L42.33 75.78Z" fill="#01FF1A"/>
</svg>
