<svg width="65" height="108" viewBox="0 0 65 108" fill="none" xmlns="http://www.w3.org/2000/svg">
<rect x="0.52002" y="0.5" width="63" height="107" rx="4.5" stroke="#9747FF" stroke-dasharray="10 5"/>
<path d="M37.4 42.67C37.03 42.67 36.67 42.58 36.33 42.4L32.16 40.21C32.07 40.17 31.97 40.17 31.88 40.21L27.71 42.4C26.93 42.81 26 42.74 25.29 42.23C24.58 41.71 24.23 40.85 24.38 39.98L25.18 35.33C25.2 35.23 25.16 35.13 25.09 35.06L21.71 31.77C21.08 31.15 20.86 30.25 21.13 29.41C21.4 28.57 22.11 27.97 22.99 27.85L27.66 27.17C27.76 27.16 27.84 27.09 27.88 27.01L29.97 22.78C30.36 21.99 31.15 21.5 32.03 21.5C32.91 21.5 33.7 21.99 34.09 22.78L36.18 27.01C36.22 27.1 36.31 27.16 36.4 27.17L41.07 27.85C41.94 27.98 42.65 28.58 42.93 29.41C43.2 30.25 42.98 31.15 42.35 31.77L38.97 35.06C38.9 35.13 38.87 35.23 38.88 35.32L39.68 39.97C39.83 40.84 39.48 41.7 38.77 42.22C38.37 42.51 37.9 42.66 37.42 42.66L37.4 42.67ZM32.02 38.18C32.39 38.18 32.76 38.27 33.09 38.44L37.26 40.63C37.39 40.7 37.51 40.66 37.57 40.61C37.64 40.56 37.71 40.47 37.69 40.32L36.89 35.67C36.76 34.93 37.01 34.17 37.55 33.64L40.93 30.35C41.04 30.24 41.03 30.12 41.01 30.04C40.98 29.96 40.92 29.86 40.77 29.84L36.1 29.16C35.35 29.05 34.7 28.58 34.37 27.9L32.28 23.68C32.14 23.4 31.88 23.4 31.74 23.68L29.65 27.91C29.32 28.59 28.67 29.06 27.92 29.17L23.25 29.85C23.1 29.87 23.04 29.97 23.01 30.05C22.98 30.13 22.97 30.25 23.09 30.36L26.47 33.65C27.01 34.18 27.26 34.94 27.13 35.68L26.33 40.33C26.3 40.48 26.38 40.57 26.45 40.62C26.52 40.67 26.63 40.71 26.77 40.64L30.94 38.45C31.27 38.27 31.64 38.19 32.01 38.19L32.02 38.18Z" fill="white"/>
<path d="M37.4 86.67C37.03 86.67 36.67 86.58 36.33 86.4L32.16 84.21C32.07 84.17 31.97 84.17 31.88 84.21L27.71 86.4C26.93 86.81 26 86.74 25.29 86.23C24.58 85.71 24.23 84.85 24.38 83.98L25.18 79.33C25.2 79.23 25.16 79.13 25.09 79.06L21.71 75.77C21.08 75.15 20.86 74.25 21.13 73.41C21.4 72.57 22.11 71.97 22.99 71.85L27.66 71.17C27.76 71.16 27.84 71.09 27.88 71.01L29.97 66.78C30.36 65.99 31.15 65.5 32.03 65.5C32.91 65.5 33.7 65.99 34.09 66.78L36.18 71.01C36.22 71.1 36.31 71.16 36.4 71.17L41.07 71.85C41.94 71.98 42.65 72.58 42.93 73.41C43.2 74.25 42.98 75.15 42.35 75.77L38.97 79.06C38.9 79.13 38.87 79.23 38.88 79.32L39.68 83.97C39.83 84.84 39.48 85.7 38.77 86.22C38.37 86.51 37.9 86.66 37.42 86.66L37.4 86.67ZM32.02 82.18C32.39 82.18 32.76 82.27 33.09 82.44L37.26 84.63C37.39 84.7 37.51 84.66 37.57 84.61C37.64 84.56 37.71 84.47 37.69 84.32L36.89 79.67C36.76 78.93 37.01 78.17 37.55 77.64L40.93 74.35C41.04 74.24 41.03 74.12 41.01 74.04C40.98 73.96 40.92 73.86 40.77 73.84L36.1 73.16C35.35 73.05 34.7 72.58 34.37 71.9L32.28 67.68C32.14 67.4 31.88 67.4 31.74 67.68L29.65 71.91C29.32 72.59 28.67 73.06 27.92 73.17L23.25 73.85C23.1 73.87 23.04 73.97 23.01 74.05C22.98 74.13 22.97 74.25 23.09 74.36L26.47 77.65C27.01 78.18 27.26 78.94 27.13 79.68L26.33 84.33C26.3 84.48 26.38 84.57 26.45 84.62C26.52 84.67 26.63 84.71 26.77 84.64L30.94 82.45C31.27 82.27 31.64 82.19 32.01 82.19L32.02 82.18Z" fill="#01FF1A"/>
</svg>
