<svg width="14" height="16" viewBox="0 0 14 16" fill="none" xmlns="http://www.w3.org/2000/svg">
<g id="Group">
<path id="Vector" d="M13.0002 3.33366H10.3335V2.66699C10.3335 1.56699 9.4335 0.666992 8.3335 0.666992H5.66683C4.56683 0.666992 3.66683 1.56699 3.66683 2.66699V3.33366H1.00016C0.633496 3.33366 0.333496 3.63366 0.333496 4.00033C0.333496 4.36699 0.633496 4.66699 1.00016 4.66699H1.66683V13.3337C1.66683 14.4337 2.56683 15.3337 3.66683 15.3337H10.3335C11.4335 15.3337 12.3335 14.4337 12.3335 13.3337V4.66699H13.0002C13.3668 4.66699 13.6668 4.36699 13.6668 4.00033C13.6668 3.63366 13.3668 3.33366 13.0002 3.33366ZM5.00016 2.66699C5.00016 2.30033 5.30016 2.00033 5.66683 2.00033H8.3335C8.70016 2.00033 9.00016 2.30033 9.00016 2.66699V3.33366H5.00016V2.66699ZM11.0002 13.3337C11.0002 13.7003 10.7002 14.0003 10.3335 14.0003H3.66683C3.30016 14.0003 3.00016 13.7003 3.00016 13.3337V4.66699H11.0002V13.3337Z" fill="#98A2B3"/>
<path id="Vector_2" d="M5.66667 6.66699C5.3 6.66699 5 6.96699 5 7.33366V11.3337C5 11.7003 5.3 12.0003 5.66667 12.0003C6.03333 12.0003 6.33333 11.7003 6.33333 11.3337V7.33366C6.33333 6.96699 6.03333 6.66699 5.66667 6.66699Z" fill="#98A2B3"/>
<path id="Vector_3" d="M8.33366 6.66699C7.96699 6.66699 7.66699 6.96699 7.66699 7.33366V11.3337C7.66699 11.7003 7.96699 12.0003 8.33366 12.0003C8.70033 12.0003 9.00033 11.7003 9.00033 11.3337V7.33366C9.00033 6.96699 8.70033 6.66699 8.33366 6.66699Z" fill="#98A2B3"/>
</g>
</svg>
