<svg width="64" height="108" viewBox="0 0 64 108" fill="none" xmlns="http://www.w3.org/2000/svg">
<rect x="0.5" y="0.5" width="63" height="107" rx="4.5" stroke="#9747FF" stroke-dasharray="10 5"/>
<path d="M40 31C39.45 31 39 31.45 39 32V40C39 40.55 38.55 41 38 41H26C25.45 41 25 40.55 25 40V32C25 31.45 24.55 31 24 31C23.45 31 23 31.45 23 32V40C23 41.65 24.35 43 26 43H38C39.65 43 41 41.65 41 40V32C41 31.45 40.55 31 40 31Z" fill="white"/>
<path d="M28 27C28.26 27 28.51 26.9 28.71 26.71L31 24.42V35.01C31 35.56 31.45 36.01 32 36.01C32.55 36.01 33 35.56 33 35.01V24.42L35.29 26.71C35.49 26.91 35.74 27 36 27C36.26 27 36.51 26.9 36.71 26.71C37.1 26.32 37.1 25.69 36.71 25.3L32.71 21.3C32.62 21.21 32.51 21.13 32.38 21.08C32.14 20.98 31.86 20.98 31.62 21.08C31.5 21.13 31.39 21.2 31.29 21.3L27.29 25.3C26.9 25.69 26.9 26.32 27.29 26.71C27.49 26.91 27.74 27 28 27Z" fill="white"/>
<path d="M40 75C39.45 75 39 75.45 39 76V84C39 84.55 38.55 85 38 85H26C25.45 85 25 84.55 25 84V76C25 75.45 24.55 75 24 75C23.45 75 23 75.45 23 76V84C23 85.65 24.35 87 26 87H38C39.65 87 41 85.65 41 84V76C41 75.45 40.55 75 40 75Z" fill="#01FF1A"/>
<path d="M28 71C28.26 71 28.51 70.9 28.71 70.71L31 68.42V79.01C31 79.56 31.45 80.01 32 80.01C32.55 80.01 33 79.56 33 79.01V68.42L35.29 70.71C35.49 70.91 35.74 71 36 71C36.26 71 36.51 70.9 36.71 70.71C37.1 70.32 37.1 69.69 36.71 69.3L32.71 65.3C32.62 65.21 32.51 65.13 32.38 65.08C32.14 64.98 31.86 64.98 31.62 65.08C31.5 65.13 31.39 65.2 31.29 65.3L27.29 69.3C26.9 69.69 26.9 70.32 27.29 70.71C27.49 70.91 27.74 71 28 71Z" fill="#01FF1A"/>
</svg>
