<svg width="65" height="108" viewBox="0 0 65 108" fill="none" xmlns="http://www.w3.org/2000/svg">
<rect x="0.54248" y="0.5" width="63" height="107" rx="4.5" stroke="#9747FF" stroke-dasharray="10 5"/>
<path d="M33.4525 32L38.7425 26.71C39.1325 26.32 39.1325 25.69 38.7425 25.3C38.3525 24.91 37.7225 24.91 37.3325 25.3L32.0425 30.59L26.7526 25.3C26.3626 24.91 25.7325 24.91 25.3425 25.3C24.9525 25.69 24.9525 26.32 25.3425 26.71L30.6325 32L25.3425 37.29C24.9525 37.68 24.9525 38.31 25.3425 38.7C25.5425 38.9 25.7925 38.99 26.0525 38.99C26.3125 38.99 26.5625 38.89 26.7625 38.7L32.0525 33.41L37.3425 38.7C37.5425 38.9 37.7925 38.99 38.0525 38.99C38.3125 38.99 38.5625 38.89 38.7625 38.7C39.1525 38.31 39.1525 37.68 38.7625 37.29L33.4725 32H33.4525Z" fill="white"/>
<path d="M33.4525 76L38.7425 70.71C39.1325 70.32 39.1325 69.69 38.7425 69.3C38.3525 68.91 37.7225 68.91 37.3325 69.3L32.0425 74.59L26.7526 69.3C26.3626 68.91 25.7325 68.91 25.3425 69.3C24.9525 69.69 24.9525 70.32 25.3425 70.71L30.6325 76L25.3425 81.29C24.9525 81.68 24.9525 82.31 25.3425 82.7C25.5425 82.9 25.7925 82.99 26.0525 82.99C26.3125 82.99 26.5625 82.89 26.7625 82.7L32.0525 77.41L37.3425 82.7C37.5425 82.9 37.7925 82.99 38.0525 82.99C38.3125 82.99 38.5625 82.89 38.7625 82.7C39.1525 82.31 39.1525 81.68 38.7625 81.29L33.4725 76H33.4525Z" fill="#01FF1A"/>
</svg>
