<svg width="25" height="24" viewBox="0 0 25 24" fill="none" xmlns="http://www.w3.org/2000/svg">
<path d="M13.4525 12L18.7425 6.71001C19.1325 6.32001 19.1325 5.69001 18.7425 5.30001C18.3525 4.91001 17.7225 4.91001 17.3325 5.30001L12.0425 10.59L6.75255 5.30001C6.36255 4.91001 5.73255 4.91001 5.34255 5.30001C4.95255 5.69001 4.95255 6.32001 5.34255 6.71001L10.6325 12L5.34255 17.29C4.95255 17.68 4.95255 18.31 5.34255 18.7C5.54255 18.9 5.79254 18.99 6.05254 18.99C6.31254 18.99 6.56255 18.89 6.76255 18.7L12.0525 13.41L17.3425 18.7C17.5425 18.9 17.7925 18.99 18.0525 18.99C18.3125 18.99 18.5625 18.89 18.7625 18.7C19.1525 18.31 19.1525 17.68 18.7625 17.29L13.4725 12H13.4525Z" fill="white"/>
</svg>
