<svg width="15" height="14" viewBox="0 0 15 14" fill="none" xmlns="http://www.w3.org/2000/svg">
<path id="Vector" d="M8.45255 7.00001L13.7425 1.71001C14.1325 1.32001 14.1325 0.690007 13.7425 0.300007C13.3525 -0.0899927 12.7225 -0.0899927 12.3325 0.300007L7.04255 5.59001L1.75255 0.300007C1.36255 -0.0899927 0.732549 -0.0899927 0.342549 0.300007C-0.0474512 0.690007 -0.0474512 1.32001 0.342549 1.71001L5.63254 7.00001L0.342549 12.29C-0.0474512 12.68 -0.0474512 13.31 0.342549 13.7C0.542549 13.9 0.79254 13.99 1.05254 13.99C1.31254 13.99 1.56255 13.89 1.76255 13.7L7.05254 8.41001L12.3425 13.7C12.5425 13.9 12.7925 13.99 13.0525 13.99C13.3125 13.99 13.5625 13.89 13.7625 13.7C14.1525 13.31 14.1525 12.68 13.7625 12.29L8.47254 7.00001H8.45255Z" fill="white"/>
</svg>
