<svg width="22" height="20" viewBox="0 0 22 20" fill="none" xmlns="http://www.w3.org/2000/svg">
<path id="Vector" d="M18.1316 0.934082C17.3249 0.934082 16.5458 1.09908 15.8124 1.42908C15.7849 1.43825 15.7483 1.45658 15.7208 1.47492L9.73495 5.00408H3.87745C2.24578 5.00408 0.925781 6.33324 0.925781 7.95574V12.0349C0.925781 13.6666 2.25495 14.9866 3.87745 14.9866H5.01412C4.96828 16.6824 6.01329 18.2958 7.70912 18.8549C8.12162 18.9924 8.54328 19.0566 8.96495 19.0566C10.5141 19.0566 11.9533 18.1399 12.5949 16.6732L15.7208 18.5157C15.7208 18.5157 15.7849 18.5524 15.8124 18.5616C16.5458 18.8916 17.3249 19.0566 18.1316 19.0566C19.7633 19.0566 21.0833 17.7274 21.0833 16.1049V3.88575C21.0833 2.25408 19.7541 0.934082 18.1316 0.934082ZM10.9908 15.7657C10.6149 16.8841 9.39578 17.4891 8.28662 17.1224C7.36078 16.8107 6.79245 15.9216 6.83828 14.9866H9.73495L11.0091 15.7382C11.0091 15.7382 10.9999 15.7566 10.9908 15.7657ZM19.2499 16.1049C19.2499 16.7191 18.7458 17.2232 18.1316 17.2232C17.5999 17.2232 17.0866 17.1132 16.6008 16.9116L10.45 13.2816C10.3125 13.1991 10.1474 13.1532 9.98245 13.1532H3.86828C3.25412 13.1532 2.74995 12.6491 2.74995 12.0349V7.95574C2.74995 7.34158 3.25412 6.83742 3.86828 6.83742H9.98245C10.1474 6.83742 10.3033 6.79158 10.45 6.70908L16.6008 3.07908C17.0866 2.86825 17.5999 2.76742 18.1316 2.76742C18.7458 2.76742 19.2499 3.27158 19.2499 3.88575V16.1049Z" fill="#D0D5DD"/>
</svg>
