<svg width="20" height="18" viewBox="0 0 20 18" fill="none" xmlns="http://www.w3.org/2000/svg">
<path id="Vector" d="M16.4832 0.758301C15.7499 0.758301 15.0416 0.908302 14.3749 1.2083C14.3499 1.21663 14.3166 1.2333 14.2916 1.24997L8.84989 4.4583H3.52489C2.04155 4.4583 0.841553 5.66663 0.841553 7.14163V10.85C0.841553 12.3333 2.04989 13.5333 3.52489 13.5333H4.55822C4.51656 15.075 5.46656 16.5416 7.00822 17.05C7.38322 17.175 7.76655 17.2333 8.14989 17.2333C9.55822 17.2333 10.8666 16.4 11.4499 15.0666L14.2916 16.7416C14.2916 16.7416 14.3499 16.775 14.3749 16.7833C15.0416 17.0833 15.7499 17.2333 16.4832 17.2333C17.9666 17.2333 19.1666 16.025 19.1666 14.55V3.44164C19.1666 1.9583 17.9582 0.758301 16.4832 0.758301ZM9.99155 14.2416C9.64989 15.2583 8.54156 15.8083 7.53322 15.475C6.69156 15.1916 6.17489 14.3833 6.21655 13.5333H8.84989L10.0082 14.2166C10.0082 14.2166 9.99989 14.2333 9.99155 14.2416ZM17.4999 14.55C17.4999 15.1083 17.0416 15.5666 16.4832 15.5666C15.9999 15.5666 15.5332 15.4666 15.0916 15.2833L9.49989 11.9833C9.37489 11.9083 9.22489 11.8666 9.07489 11.8666H3.51656C2.95822 11.8666 2.49989 11.4083 2.49989 10.85V7.14163C2.49989 6.5833 2.95822 6.12497 3.51656 6.12497H9.07489C9.22489 6.12497 9.36656 6.0833 9.49989 6.0083L15.0916 2.7083C15.5332 2.51663 15.9999 2.42497 16.4832 2.42497C17.0416 2.42497 17.4999 2.8833 17.4999 3.44164V14.55Z" fill="#98A2B3"/>
</svg>
