<svg width="20" height="22" viewBox="0 0 20 22" fill="none" xmlns="http://www.w3.org/2000/svg">
<path id="Vector" d="M16.4166 2.74984H14.5833V1.83317C14.5833 1.329 14.1708 0.916504 13.6666 0.916504C13.1624 0.916504 12.7499 1.329 12.7499 1.83317V2.74984H7.24992V1.83317C7.24992 1.329 6.83742 0.916504 6.33325 0.916504C5.82909 0.916504 5.41659 1.329 5.41659 1.83317V2.74984H3.58325C2.07075 2.74984 0.833252 3.98734 0.833252 5.49984V18.3332C0.833252 19.8457 2.07075 21.0832 3.58325 21.0832H16.4166C17.9291 21.0832 19.1666 19.8457 19.1666 18.3332V5.49984C19.1666 3.98734 17.9291 2.74984 16.4166 2.74984ZM3.58325 4.58317H5.41659V5.49984C5.41659 6.004 5.82909 6.4165 6.33325 6.4165C6.83742 6.4165 7.24992 6.004 7.24992 5.49984V4.58317H12.7499V5.49984C12.7499 6.004 13.1624 6.4165 13.6666 6.4165C14.1708 6.4165 14.5833 6.004 14.5833 5.49984V4.58317H16.4166C16.9208 4.58317 17.3333 4.99567 17.3333 5.49984V8.24984H2.66659V5.49984C2.66659 4.99567 3.07909 4.58317 3.58325 4.58317ZM16.4166 19.2498H3.58325C3.07909 19.2498 2.66659 18.8373 2.66659 18.3332V10.0832H17.3333V18.3332C17.3333 18.8373 16.9208 19.2498 16.4166 19.2498Z" fill="#98A2B3"/>
</svg>
