<svg width="22" height="22" viewBox="0 0 22 22" fill="none" xmlns="http://www.w3.org/2000/svg">
<path d="M20.1666 10.0832C19.6625 10.0832 19.25 10.4957 19.25 10.9998C19.25 15.5465 15.5466 19.2498 11 19.2498C6.45328 19.2498 2.74995 15.5465 2.74995 10.9998C2.74995 6.45317 6.45328 2.74984 11 2.74984C12.265 2.74984 13.475 3.02484 14.6025 3.57484C15.0608 3.79484 15.6108 3.60234 15.8308 3.15317C16.0508 2.69484 15.8583 2.14484 15.4091 1.92484C14.0341 1.25567 12.5491 0.916504 11.0091 0.916504C5.44495 0.916504 0.925781 5.43567 0.925781 10.9998C0.925781 16.564 5.44495 21.0832 11.0091 21.0832C16.5733 21.0832 21.0925 16.564 21.0925 10.9998C21.0925 10.4957 20.68 10.0832 20.1758 10.0832H20.1666Z" fill="#98A2B3"/>
<path d="M8.90071 9.43235C8.54321 9.07485 7.96571 9.07485 7.60821 9.43235C7.25071 9.78985 7.25071 10.3673 7.60821 10.7248L10.3582 13.4748C10.5415 13.6582 10.7707 13.7407 11.009 13.7407C11.2474 13.7407 11.4765 13.649 11.6599 13.4748L20.8265 4.30818C21.184 3.95068 21.184 3.37318 20.8265 3.01568C20.469 2.65818 19.8915 2.65818 19.534 3.01568L11.0182 11.5315L8.91905 9.43235H8.90071Z" fill="#98A2B3"/>
</svg>
