<svg width="16" height="15" viewBox="0 0 16 15" fill="none" xmlns="http://www.w3.org/2000/svg">
<g id="Group">
<path id="Vector" d="M14.6662 6.83333C14.2995 6.83333 13.9995 7.13333 13.9995 7.5C13.9995 10.8067 11.3062 13.5 7.99952 13.5C4.69285 13.5 1.99952 10.8067 1.99952 7.5C1.99952 4.19333 4.69285 1.5 7.99952 1.5C8.91952 1.5 9.79952 1.7 10.6195 2.1C10.9529 2.26 11.3528 2.12 11.5128 1.79333C11.6728 1.46 11.5329 1.06 11.2062 0.900001C10.2062 0.413335 9.12619 0.166668 8.00619 0.166668C3.95952 0.166668 0.672852 3.45333 0.672852 7.5C0.672852 11.5467 3.95952 14.8333 8.00619 14.8333C12.0529 14.8333 15.3395 11.5467 15.3395 7.5C15.3395 7.13333 15.0395 6.83333 14.6729 6.83333H14.6662Z" fill="white"/>
<path id="Vector_2" d="M6.47289 6.36C6.21289 6.1 5.79289 6.1 5.53289 6.36C5.27289 6.62 5.27289 7.04 5.53289 7.3L7.53289 9.3C7.66622 9.43333 7.83289 9.49333 8.00622 9.49333C8.17956 9.49333 8.34622 9.42667 8.47956 9.3L15.1462 2.63333C15.4062 2.37333 15.4062 1.95333 15.1462 1.69333C14.8862 1.43333 14.4662 1.43333 14.2062 1.69333L8.01289 7.88667L6.48622 6.36H6.47289Z" fill="white"/>
</g>
</svg>
