<svg width="16" height="16" viewBox="0 0 16 16" fill="none" xmlns="http://www.w3.org/2000/svg">
<path id="Vector" d="M1.63319 15.3666C1.45986 15.3666 1.28653 15.2999 1.15987 15.1732C0.9932 15.0066 0.926527 14.7666 0.986527 14.5399L1.92653 10.7666C1.9532 10.6466 2.01319 10.5399 2.09986 10.4599L11.0599 1.50656C11.5599 0.999896 12.2332 0.726562 12.9465 0.726562C13.6599 0.726562 14.3265 1.00656 14.8332 1.50656C15.3399 2.00656 15.6132 2.6799 15.6132 3.39323C15.6132 4.10656 15.3332 4.77323 14.8332 5.2799L5.87987 14.2399C5.7932 14.3266 5.68652 14.3866 5.57319 14.4132L1.79986 15.3532C1.74653 15.3666 1.6932 15.3732 1.63987 15.3732L1.63319 15.3666ZM3.17986 11.2666L2.5532 13.7799L5.06653 13.1532L13.8932 4.32656C14.1465 4.07323 14.2865 3.7399 14.2865 3.38656C14.2865 3.03323 14.1465 2.69323 13.8932 2.44656C13.3865 1.9399 12.5132 1.9399 12.0065 2.44656L3.17986 11.2732V11.2666Z" fill="#02060D"/>
</svg>
