<svg width="22" height="22" viewBox="0 0 22 22" fill="none" xmlns="http://www.w3.org/2000/svg">
<path d="M2.24589 21.129C2.00755 21.129 1.76923 21.0374 1.59506 20.8632C1.36589 20.634 1.27422 20.304 1.35672 19.9924L2.64922 14.804C2.68589 14.639 2.76838 14.4924 2.88755 14.3824L15.2076 2.07152C15.8951 1.37486 16.8209 0.999023 17.8017 0.999023C18.7826 0.999023 19.6992 1.38402 20.3959 2.07152C21.0926 2.75902 21.4684 3.68486 21.4684 4.66569C21.4684 5.64652 21.0834 6.56319 20.3959 7.25986L8.08506 19.5799C7.9659 19.699 7.81921 19.7815 7.66338 19.8182L2.47505 21.1107C2.40172 21.129 2.3284 21.1382 2.25506 21.1382L2.24589 21.129ZM4.37255 15.4915L3.51089 18.9474L6.96673 18.0857L19.1034 5.94902C19.4517 5.60069 19.6442 5.14236 19.6442 4.65652C19.6442 4.17069 19.4517 3.70319 19.1034 3.36402C18.4067 2.66736 17.2059 2.66736 16.5092 3.36402L4.37255 15.5007V15.4915Z" fill="#D0D5DD"/>
</svg>
