<svg width="16" height="17" viewBox="0 0 16 17" fill="none" xmlns="http://www.w3.org/2000/svg">
<path d="M14.4067 5.97333L8.40667 1.30666C8.16667 1.12 7.82667 1.12 7.58667 1.30666L1.58667 5.97333C1.42667 6.1 1.32667 6.29333 1.32667 6.5V13.8333C1.32667 14.9333 2.22667 15.8333 3.32667 15.8333H12.66C13.76 15.8333 14.66 14.9333 14.66 13.8333V6.5C14.66 6.29333 14.5667 6.1 14.4 5.97333H14.4067ZM6.66667 14.5V9.16666H9.33333V14.5H6.66667ZM13.3333 13.8333C13.3333 14.2 13.0333 14.5 12.6667 14.5H10.6667V8.5C10.6667 8.13333 10.3667 7.83333 10 7.83333H6C5.63333 7.83333 5.33333 8.13333 5.33333 8.5V14.5H3.33333C2.96667 14.5 2.66667 14.2 2.66667 13.8333V6.82666L8 2.68L13.3333 6.82666V13.8333Z" fill="#01FF1A"/>
</svg>
