<svg width="16" height="15" viewBox="0 0 16 15" fill="none" xmlns="http://www.w3.org/2000/svg">
<path id="Vector" d="M13.3337 0.833336H2.66699C1.56699 0.833336 0.666992 1.73334 0.666992 2.83334V9.5C0.666992 10.6 1.56699 11.5 2.66699 11.5H7.33366V12.8333H5.33366C4.96699 12.8333 4.66699 13.1333 4.66699 13.5C4.66699 13.8667 4.96699 14.1667 5.33366 14.1667H10.667C11.0337 14.1667 11.3337 13.8667 11.3337 13.5C11.3337 13.1333 11.0337 12.8333 10.667 12.8333H8.66699V11.5H13.3337C14.4337 11.5 15.3337 10.6 15.3337 9.5V2.83334C15.3337 1.73334 14.4337 0.833336 13.3337 0.833336ZM14.0003 9.5C14.0003 9.86667 13.7003 10.1667 13.3337 10.1667H2.66699C2.30033 10.1667 2.00033 9.86667 2.00033 9.5V2.83334C2.00033 2.46667 2.30033 2.16667 2.66699 2.16667H13.3337C13.7003 2.16667 14.0003 2.46667 14.0003 2.83334V9.5Z" fill="white"/>
</svg>
