<svg width="23" height="20" viewBox="0 0 23 20" fill="none" xmlns="http://www.w3.org/2000/svg">
<path id="Vector" d="M19.0425 0H3.04248C1.39248 0 0.0424805 1.35 0.0424805 3V13C0.0424805 14.65 1.39248 16 3.04248 16H10.0425V18H7.04248C6.49248 18 6.04248 18.45 6.04248 19C6.04248 19.55 6.49248 20 7.04248 20H15.0425C15.5925 20 16.0425 19.55 16.0425 19C16.0425 18.45 15.5925 18 15.0425 18H12.0425V16H19.0425C20.6925 16 22.0425 14.65 22.0425 13V3C22.0425 1.35 20.6925 0 19.0425 0ZM20.0425 13C20.0425 13.55 19.5925 14 19.0425 14H3.04248C2.49248 14 2.04248 13.55 2.04248 13V3C2.04248 2.45 2.49248 2 3.04248 2H19.0425C19.5925 2 20.0425 2.45 20.0425 3V13Z" fill="white"/>
</svg>
