<svg width="22" height="22" viewBox="0 0 22 22" fill="none" xmlns="http://www.w3.org/2000/svg">
<path d="M18.1316 1.93408C17.3249 1.93408 16.5458 2.09908 15.8124 2.42908C15.7849 2.43825 15.7483 2.45658 15.7208 2.47492L9.73495 6.00408H3.87745C2.24578 6.00408 0.925781 7.33324 0.925781 8.95574V13.0349C0.925781 14.6666 2.25495 15.9866 3.87745 15.9866H5.01412C4.96828 17.6824 6.01329 19.2958 7.70912 19.8549C8.12162 19.9924 8.54328 20.0566 8.96495 20.0566C10.5141 20.0566 11.9533 19.1399 12.5949 17.6732L15.7208 19.5157C15.7208 19.5157 15.7849 19.5524 15.8124 19.5616C16.5458 19.8916 17.3249 20.0566 18.1316 20.0566C19.7633 20.0566 21.0833 18.7274 21.0833 17.1049V4.88575C21.0833 3.25408 19.7541 1.93408 18.1316 1.93408ZM10.9908 16.7657C10.6149 17.8841 9.39578 18.4891 8.28662 18.1224C7.36078 17.8107 6.79245 16.9216 6.83828 15.9866H9.73495L11.0091 16.7382C11.0091 16.7382 10.9999 16.7566 10.9908 16.7657ZM19.2499 17.1049C19.2499 17.7191 18.7458 18.2232 18.1316 18.2232C17.5999 18.2232 17.0866 18.1132 16.6008 17.9116L10.45 14.2816C10.3125 14.1991 10.1474 14.1532 9.98245 14.1532H3.86828C3.25412 14.1532 2.74995 13.6491 2.74995 13.0349V8.95574C2.74995 8.34158 3.25412 7.83742 3.86828 7.83742H9.98245C10.1474 7.83742 10.3033 7.79158 10.45 7.70908L16.6008 4.07908C17.0866 3.86825 17.5999 3.76742 18.1316 3.76742C18.7458 3.76742 19.2499 4.27158 19.2499 4.88575V17.1049Z" fill="#D0D5DD"/>
</svg>
