<svg width="20" height="20" viewBox="0 0 20 20" fill="none" xmlns="http://www.w3.org/2000/svg">
<path d="M16.4832 1.7583C15.7499 1.7583 15.0416 1.9083 14.3749 2.2083C14.3499 2.21663 14.3166 2.2333 14.2916 2.24997L8.84989 5.4583H3.52489C2.04155 5.4583 0.841553 6.66663 0.841553 8.14163V11.85C0.841553 13.3333 2.04989 14.5333 3.52489 14.5333H4.55822C4.51656 16.075 5.46656 17.5416 7.00822 18.05C7.38322 18.175 7.76655 18.2333 8.14989 18.2333C9.55822 18.2333 10.8666 17.4 11.4499 16.0666L14.2916 17.7416C14.2916 17.7416 14.3499 17.775 14.3749 17.7833C15.0416 18.0833 15.7499 18.2333 16.4832 18.2333C17.9666 18.2333 19.1666 17.025 19.1666 15.55V4.44164C19.1666 2.9583 17.9582 1.7583 16.4832 1.7583ZM9.99155 15.2416C9.64989 16.2583 8.54156 16.8083 7.53322 16.475C6.69156 16.1916 6.17489 15.3833 6.21655 14.5333H8.84989L10.0082 15.2166C10.0082 15.2166 9.99989 15.2333 9.99155 15.2416ZM17.4999 15.55C17.4999 16.1083 17.0416 16.5666 16.4832 16.5666C15.9999 16.5666 15.5332 16.4666 15.0916 16.2833L9.49989 12.9833C9.37489 12.9083 9.22489 12.8666 9.07489 12.8666H3.51656C2.95822 12.8666 2.49989 12.4083 2.49989 11.85V8.14163C2.49989 7.5833 2.95822 7.12497 3.51656 7.12497H9.07489C9.22489 7.12497 9.36656 7.0833 9.49989 7.0083L15.0916 3.7083C15.5332 3.51663 15.9999 3.42497 16.4832 3.42497C17.0416 3.42497 17.4999 3.8833 17.4999 4.44164V15.55Z" fill="white"/>
</svg>
