<svg width="14" height="16" viewBox="0 0 14 16" fill="none" xmlns="http://www.w3.org/2000/svg">
<g id="Group">
<path id="Vector" d="M7 8.66675C7.36667 8.66675 7.66667 8.36675 7.66667 8.00008V1.33341C7.66667 0.966748 7.36667 0.666748 7 0.666748C6.63333 0.666748 6.33333 0.966748 6.33333 1.33341V8.00008C6.33333 8.36675 6.63333 8.66675 7 8.66675Z" fill="#01FF1A"/>
<path id="Vector_2" d="M11.4 3.65337C11.12 3.41337 10.7 3.44004 10.46 3.71337C10.2133 3.99337 10.2467 4.41337 10.52 4.65337C11.6733 5.66671 12.3333 7.12671 12.3333 8.66004C12.3333 11.6 9.94 13.9934 7 13.9934C4.06 13.9934 1.66667 11.6 1.66667 8.66004C1.66667 7.12671 2.32667 5.66671 3.48 4.65337C3.76 4.41337 3.78667 3.98671 3.54 3.71337C3.3 3.44004 2.87333 3.41337 2.6 3.65337C1.16 4.92004 0.333332 6.74671 0.333332 8.66671C0.333332 12.34 3.32667 15.3334 7 15.3334C10.6733 15.3334 13.6667 12.34 13.6667 8.66671C13.6667 6.74671 12.84 4.92004 11.4 3.65337Z" fill="#01FF1A"/>
</g>
</svg>
