<svg width="12" height="15" viewBox="0 0 12 15" fill="none" xmlns="http://www.w3.org/2000/svg">
<g id="Group">
<path id="Vector" d="M11.9467 4.58C11.9133 4.5 11.8667 4.42667 11.8 4.36667L7.8 0.366669C7.74 0.306669 7.66667 0.253335 7.58667 0.220002C7.50667 0.186668 7.42 0.166667 7.33333 0.166667H2C0.9 0.166667 0 1.06667 0 2.16667V12.8333C0 13.9333 0.9 14.8333 2 14.8333H10C11.1 14.8333 12 13.9333 12 12.8333V4.83333C12 4.74667 11.98 4.66 11.9467 4.58ZM8 2.44667L9.72666 4.17333H8V2.44667ZM10.6667 12.84C10.6667 13.2067 10.3667 13.5067 10 13.5067H2C1.63333 13.5067 1.33333 13.2067 1.33333 12.84V2.17333C1.33333 1.80667 1.63333 1.50667 2 1.50667H6.66667V4.84C6.66667 5.20667 6.96667 5.50667 7.33333 5.50667H10.6667V12.84Z" fill="white"/>
<path id="Vector_2" d="M3.33366 6.16667H4.66699C5.03366 6.16667 5.33366 5.86667 5.33366 5.5C5.33366 5.13333 5.03366 4.83333 4.66699 4.83333H3.33366C2.96699 4.83333 2.66699 5.13333 2.66699 5.5C2.66699 5.86667 2.96699 6.16667 3.33366 6.16667Z" fill="white"/>
<path id="Vector_3" d="M2.66699 8.16667C2.66699 8.53333 2.96699 8.83333 3.33366 8.83333H8.66699C9.03366 8.83333 9.33366 8.53333 9.33366 8.16667C9.33366 7.8 9.03366 7.5 8.66699 7.5H3.33366C2.96699 7.5 2.66699 7.8 2.66699 8.16667Z" fill="white"/>
<path id="Vector_4" d="M8.66699 10.1667H3.33366C2.96699 10.1667 2.66699 10.4667 2.66699 10.8333C2.66699 11.2 2.96699 11.5 3.33366 11.5H8.66699C9.03366 11.5 9.33366 11.2 9.33366 10.8333C9.33366 10.4667 9.03366 10.1667 8.66699 10.1667Z" fill="white"/>
</g>
</svg>
