<svg width="19" height="22" viewBox="0 0 19 22" fill="none" xmlns="http://www.w3.org/2000/svg">
<g id="Group">
<path id="Vector" d="M17.9625 6.62C17.9125 6.5 17.8425 6.39 17.7425 6.3L11.7425 0.300003C11.6525 0.210003 11.5425 0.130002 11.4225 0.0800018C11.3025 0.0300018 11.1725 0 11.0425 0H3.04248C1.39248 0 0.0424805 1.35 0.0424805 3V19C0.0424805 20.65 1.39248 22 3.04248 22H15.0425C16.6925 22 18.0425 20.65 18.0425 19V7C18.0425 6.87 18.0125 6.74 17.9625 6.62ZM12.0425 3.42L14.6325 6.01H12.0425V3.42ZM16.0425 19.01C16.0425 19.56 15.5925 20.01 15.0425 20.01H3.04248C2.49248 20.01 2.04248 19.56 2.04248 19.01V3.01C2.04248 2.46 2.49248 2.01 3.04248 2.01H10.0425V7.01C10.0425 7.56 10.4925 8.01 11.0425 8.01H16.0425V19.01Z" fill="white"/>
<path id="Vector_2" d="M5.04248 9H7.04248C7.59248 9 8.04248 8.55 8.04248 8C8.04248 7.45 7.59248 7 7.04248 7H5.04248C4.49248 7 4.04248 7.45 4.04248 8C4.04248 8.55 4.49248 9 5.04248 9Z" fill="white"/>
<path id="Vector_3" d="M4.04248 12C4.04248 12.55 4.49248 13 5.04248 13H13.0425C13.5925 13 14.0425 12.55 14.0425 12C14.0425 11.45 13.5925 11 13.0425 11H5.04248C4.49248 11 4.04248 11.45 4.04248 12Z" fill="white"/>
<path id="Vector_4" d="M13.0425 15H5.04248C4.49248 15 4.04248 15.45 4.04248 16C4.04248 16.55 4.49248 17 5.04248 17H13.0425C13.5925 17 14.0425 16.55 14.0425 16C14.0425 15.45 13.5925 15 13.0425 15Z" fill="white"/>
</g>
</svg>
