<svg width="16" height="16" viewBox="0 0 16 16" fill="none" xmlns="http://www.w3.org/2000/svg">
<path d="M6.66683 14H4.00016C3.6335 14 3.3335 13.7 3.3335 13.3333V2.66667C3.3335 2.3 3.6335 2 4.00016 2H6.66683C7.0335 2 7.3335 2.3 7.3335 2.66667V13.3333C7.3335 13.7 7.0335 14 6.66683 14ZM4.66683 12.6667H6.00016V3.33333H4.66683V12.6667Z" fill="white"/>
<path d="M11.9998 14H9.33317C8.9665 14 8.6665 13.7 8.6665 13.3333V2.66667C8.6665 2.3 8.9665 2 9.33317 2H11.9998C12.3665 2 12.6665 2.3 12.6665 2.66667V13.3333C12.6665 13.7 12.3665 14 11.9998 14ZM9.99984 12.6667H11.3332V3.33333H9.99984V12.6667Z" fill="white"/>
</svg>
