<svg width="16" height="17" viewBox="0 0 16 17" fill="none" xmlns="http://www.w3.org/2000/svg">
<path d="M6 7.83329C6.74667 7.83329 7.43333 7.57329 7.99333 7.15996C8.56666 7.59329 9.27333 7.83329 10 7.83329C11.84 7.83329 13.3333 6.33996 13.3333 4.49996C13.3333 2.65996 11.84 1.16663 10 1.16663C9.26667 1.16663 8.56666 1.40663 7.99333 1.83996C7.43333 1.41996 6.75333 1.16663 6 1.16663C4.16 1.16663 2.66667 2.65996 2.66667 4.49996C2.66667 6.33996 4.16 7.83329 6 7.83329ZM8.88 2.85329C9.20667 2.63329 9.59333 2.49996 10 2.49996C11.1 2.49996 12 3.39996 12 4.49996C12 5.59996 11.1 6.49996 10 6.49996C9.59333 6.49996 9.20667 6.37329 8.88 6.14663C9.16 5.65996 9.33333 5.09996 9.33333 4.49996C9.33333 3.89996 9.16 3.33996 8.88 2.85329ZM6 2.49996C7.1 2.49996 8 3.39996 8 4.49996C8 5.59996 7.1 6.49996 6 6.49996C4.9 6.49996 4 5.59996 4 4.49996C4 3.39996 4.9 2.49996 6 2.49996Z" fill="#FFFFFF"/>
<path d="M10 8.5C9.31333 8.5 8.64 8.63333 8 8.88667C7.37333 8.64 6.70667 8.5 6 8.5C2.69333 8.5 0 11.4933 0 15.1667C0 15.5333 0.3 15.8333 0.666667 15.8333C1.03333 15.8333 1.33333 15.5333 1.33333 15.1667C1.33333 12.2267 3.42667 9.83333 6 9.83333C8.57333 9.83333 10.6667 12.2267 10.6667 15.1667C10.6667 15.5333 10.9667 15.8333 11.3333 15.8333C11.7 15.8333 12 15.5333 12 15.1667C12 13 11.06 11.0733 9.60667 9.85333C9.73334 9.84 9.86667 9.83333 10 9.83333C12.5733 9.83333 14.6667 12.2267 14.6667 15.1667C14.6667 15.5333 14.9667 15.8333 15.3333 15.8333C15.7 15.8333 16 15.5333 16 15.1667C16 11.4933 13.3067 8.5 10 8.5Z" fill="#FFFFFF"/>
</svg>
