<svg width="19" height="22" viewBox="0 0 19 22" fill="none" xmlns="http://www.w3.org/2000/svg">
<g id="Group">
<path id="Vector" d="M9.04248 10C11.8025 10 14.0425 7.76 14.0425 5C14.0425 2.24 11.8025 0 9.04248 0C6.28248 0 4.04248 2.24 4.04248 5C4.04248 7.76 6.28248 10 9.04248 10ZM9.04248 2C10.6925 2 12.0425 3.35 12.0425 5C12.0425 6.65 10.6925 8 9.04248 8C7.39248 8 6.04248 6.65 6.04248 5C6.04248 3.35 7.39248 2 9.04248 2Z" fill="#D0D5DD"/>
<path id="Vector_2" d="M9.04248 11C4.08248 11 0.0424805 15.49 0.0424805 21C0.0424805 21.55 0.49248 22 1.04248 22C1.59248 22 2.04248 21.55 2.04248 21C2.04248 16.59 5.18248 13 9.04248 13C12.9025 13 16.0425 16.59 16.0425 21C16.0425 21.55 16.4925 22 17.0425 22C17.5925 22 18.0425 21.55 18.0425 21C18.0425 15.49 14.0025 11 9.04248 11Z" fill="#D0D5DD"/>
</g>
</svg>
