<svg width="12" height="15" viewBox="0 0 12 15" fill="none" xmlns="http://www.w3.org/2000/svg">
<g id="Group">
<path id="Vector" d="M6.00033 6.83333C7.84033 6.83333 9.33366 5.34 9.33366 3.5C9.33366 1.66 7.84033 0.166664 6.00033 0.166664C4.16033 0.166664 2.66699 1.66 2.66699 3.5C2.66699 5.34 4.16033 6.83333 6.00033 6.83333ZM6.00033 1.5C7.10033 1.5 8.00033 2.4 8.00033 3.5C8.00033 4.6 7.10033 5.5 6.00033 5.5C4.90033 5.5 4.00033 4.6 4.00033 3.5C4.00033 2.4 4.90033 1.5 6.00033 1.5Z" fill="#01FF1A"/>
<path id="Vector_2" d="M6 7.5C2.69333 7.5 0 10.4933 0 14.1667C0 14.5333 0.3 14.8333 0.666667 14.8333C1.03333 14.8333 1.33333 14.5333 1.33333 14.1667C1.33333 11.2267 3.42667 8.83333 6 8.83333C8.57333 8.83333 10.6667 11.2267 10.6667 14.1667C10.6667 14.5333 10.9667 14.8333 11.3333 14.8333C11.7 14.8333 12 14.5333 12 14.1667C12 10.4933 9.30667 7.5 6 7.5Z" fill="#01FF1A"/>
</g>
</svg>
