<svg width="14" height="15" viewBox="0 0 14 15" fill="none" xmlns="http://www.w3.org/2000/svg">
<path d="M12.8042 7.90234C11.9292 5.17817 9.64834 3.4165 7.00001 3.4165C4.35167 3.4165 2.07083 5.17817 1.19583 7.90234C1.09667 8.2115 1.26585 8.53817 1.57502 8.63734C1.88418 8.7365 2.21084 8.56734 2.31 8.25817C3.17917 5.54567 5.30835 4.57734 7.00585 4.57734C8.70335 4.57734 10.8267 5.54567 11.7017 8.25817C11.7833 8.50317 12.0108 8.66067 12.2558 8.66067C12.3142 8.66067 12.3725 8.649 12.4367 8.6315C12.7458 8.53234 12.915 8.20567 12.8158 7.8965L12.8042 7.90234Z" fill="#D0D5DD"/>
<path d="M7 5.1665C5.55333 5.1665 4.375 6.34484 4.375 7.7915C4.375 9.23817 5.55333 10.4165 7 10.4165C8.44667 10.4165 9.625 9.23817 9.625 7.7915C9.625 6.34484 8.44667 5.1665 7 5.1665ZM7 9.24984C6.195 9.24984 5.54167 8.5965 5.54167 7.7915C5.54167 6.9865 6.195 6.33317 7 6.33317C7.805 6.33317 8.45833 6.9865 8.45833 7.7915C8.45833 8.5965 7.805 9.24984 7 9.24984Z" fill="#D0D5DD"/>
</svg>
