<svg width="16" height="17" viewBox="0 0 16 17" fill="none" xmlns="http://www.w3.org/2000/svg">
<path d="M13.9253 10.5H13.9986C14.585 10.5 15.138 10.24 15.5245 9.79333C15.911 9.34666 16.0709 8.75333 15.9709 8.16666C15.8177 7.21333 14.9381 6.49999 13.9253 6.49999C13.6521 6.49999 13.5389 6.30666 13.5056 6.21999C13.4722 6.13333 13.4123 5.91999 13.6055 5.72666C14.3185 5.01333 14.4317 3.87999 13.872 3.09999C13.5255 2.61999 12.9925 2.31333 12.4061 2.26666C11.8198 2.21999 11.2467 2.43333 10.8336 2.84666L10.7803 2.89999C10.5871 3.09333 10.3672 3.03333 10.2806 2.99999C10.194 2.96666 10.0007 2.85333 10.0007 2.57999C10.0007 1.56666 9.28111 0.693326 8.33495 0.533326C7.74859 0.439993 7.15557 0.599993 6.70913 0.979993C6.2627 1.35999 6.00284 1.91333 6.00284 2.50666V2.57999C6.00284 2.85333 5.80961 2.96666 5.72299 2.99999C5.63637 3.03333 5.41648 3.09333 5.22325 2.89999C4.5103 2.18666 3.37756 2.07333 2.59797 2.63333C2.11822 2.97999 1.81171 3.51333 1.76507 4.09999C1.71843 4.68666 1.93165 5.25999 2.34476 5.67999L2.39141 5.72666C2.58464 5.91999 2.52467 6.13999 2.49135 6.22666C2.45804 6.31333 2.34477 6.50666 2.07158 6.50666C1.05878 6.50666 0.185904 7.22666 0.0259881 8.17333C-0.0672961 8.75999 0.0926185 9.35333 0.472418 9.79999C0.852218 10.2467 1.40527 10.5067 1.99829 10.5067H2.07158C2.34477 10.5067 2.45804 10.7 2.49135 10.7867C2.52467 10.8733 2.58464 11.0867 2.39141 11.28C1.67845 11.9933 1.56517 13.1267 2.12488 13.9067C2.47136 14.3867 3.00442 14.6933 3.59078 14.74C4.17714 14.78 4.75017 14.5733 5.16329 14.16L5.21659 14.1067C5.40983 13.9133 5.62971 13.9733 5.71633 14.0067C5.80295 14.04 5.99618 14.1533 5.99618 14.4267C5.99618 15.44 6.7158 16.3133 7.66197 16.4733C7.77524 16.4933 7.88185 16.5 7.98846 16.5C8.46154 16.5 8.9213 16.3333 9.28777 16.0267C9.7342 15.6467 9.99408 15.0933 9.99408 14.5V14.4267C9.99408 14.1533 10.1873 14.04 10.2739 14.0067C10.3605 13.9733 10.5738 13.9133 10.767 14.1067C11.48 14.82 12.6127 14.9333 13.3923 14.3733C13.872 14.0267 14.1785 13.4933 14.2252 12.9067C14.2718 12.32 14.0586 11.7467 13.6455 11.3267L13.5988 11.28C13.4056 11.0867 13.4656 10.8667 13.4989 10.78C13.5322 10.6933 13.6455 10.5 13.9187 10.5H13.9253ZM12.2729 10.2733C11.993 10.9533 12.1396 11.7 12.666 12.2267L12.7126 12.2733C12.8526 12.4133 12.9192 12.6067 12.9059 12.8C12.8925 13 12.7926 13.1733 12.626 13.2933C12.3728 13.4733 11.9797 13.42 11.7198 13.1667C11.2001 12.6467 10.4538 12.4933 9.77419 12.78C9.09455 13.06 8.6681 13.6933 8.6681 14.4333V14.5067C8.6681 14.7 8.58148 14.8867 8.43489 15.0133C8.28164 15.14 8.08841 15.1933 7.88852 15.16C7.58201 15.1067 7.33547 14.7933 7.33547 14.4333C7.33547 13.6933 6.91569 13.06 6.22939 12.78C6.00284 12.6867 5.76297 12.64 5.53642 12.64C5.07666 12.64 4.63023 12.82 4.28375 13.1667L4.23044 13.22C4.09051 13.36 3.90395 13.4333 3.70405 13.4133C3.50416 13.4 3.33091 13.3 3.21098 13.1333C3.03107 12.88 3.08438 12.48 3.33758 12.2267C3.8573 11.7067 4.0039 10.96 3.72404 10.28C3.44419 9.59999 2.81119 9.17333 2.07158 9.17333H1.99829C1.80506 9.17333 1.61848 9.08666 1.49188 8.93999C1.36528 8.78666 1.31197 8.59333 1.34529 8.39333C1.3986 8.08666 1.71177 7.84666 2.07158 7.84666C2.81119 7.84666 3.44419 7.42666 3.72404 6.73999C4.0039 6.05999 3.8573 5.31333 3.33758 4.78666L3.29093 4.73999C3.151 4.59999 3.08438 4.40666 3.0977 4.21333C3.11103 4.01333 3.21098 3.83999 3.37756 3.71999C3.63076 3.53999 4.03055 3.59333 4.28375 3.84666C4.80347 4.36666 5.54974 4.51333 6.22939 4.23333C6.90903 3.95333 7.33547 3.31999 7.33547 2.57999V2.50666C7.33547 2.31333 7.4221 2.12666 7.56869 1.99999C7.72194 1.87333 7.91517 1.81999 8.11506 1.85333C8.42157 1.90666 8.6681 2.22666 8.6681 2.57999C8.6681 3.31999 9.08789 3.95333 9.77419 4.23333C10.4538 4.51333 11.2001 4.36666 11.7198 3.84666L11.7731 3.79333C11.9131 3.65333 12.1063 3.58666 12.2995 3.59999C12.4994 3.61333 12.6727 3.71333 12.7926 3.87999C12.9725 4.13333 12.9192 4.53333 12.666 4.78666C12.1463 5.30666 11.9997 6.05333 12.2795 6.73333C12.5594 7.41333 13.1924 7.83999 13.932 7.83999C14.2918 7.83999 14.6116 8.07999 14.6583 8.38666C14.6916 8.58666 14.6383 8.78666 14.5117 8.93333C14.3851 9.07999 14.1985 9.16666 14.0053 9.16666H13.932C13.1924 9.16666 12.5594 9.58666 12.2795 10.2733H12.2729Z" fill="white"/>
<path d="M8.00179 5.83333C6.52923 5.83333 5.33652 7.02666 5.33652 8.49999C5.33652 9.97333 6.52923 11.1667 8.00179 11.1667C9.47435 11.1667 10.6671 9.97333 10.6671 8.49999C10.6671 7.02666 9.47435 5.83333 8.00179 5.83333ZM8.00179 9.83333C7.26884 9.83333 6.66916 9.23333 6.66916 8.49999C6.66916 7.76666 7.26884 7.16666 8.00179 7.16666C8.73473 7.16666 9.33442 7.76666 9.33442 8.49999C9.33442 9.23333 8.73473 9.83333 8.00179 9.83333Z" fill="white"/>
</svg>
