<svg width="12" height="12" viewBox="0 0 12 12" fill="none" xmlns="http://www.w3.org/2000/svg">
<path id="Vector" d="M11.1549 5.88988C11.4699 5.57988 11.5799 5.12988 11.4449 4.70988C11.3099 4.28988 10.9549 3.98988 10.5149 3.92988L8.17994 3.58988C8.12994 3.58488 8.08994 3.54988 8.06994 3.50988L7.02494 1.39488C6.82994 0.999883 6.43494 0.754883 5.99494 0.754883C5.55494 0.754883 5.15994 0.999883 4.96494 1.39488L3.91994 3.50988C3.89994 3.55488 3.85494 3.58488 3.80994 3.58988L1.47494 3.92988C1.03994 3.99488 0.684938 4.29488 0.544938 4.70988C0.409938 5.12988 0.519939 5.57988 0.834939 5.88988L2.52494 7.53488C2.55994 7.56988 2.57494 7.61988 2.56994 7.66988L2.16994 9.99488C2.09494 10.4299 2.26994 10.8599 2.62494 11.1199C2.97994 11.3799 3.44494 11.4099 3.83494 11.2049L5.91994 10.1099C5.96494 10.0899 6.01494 10.0899 6.05994 10.1099L8.14494 11.2049C8.31494 11.2949 8.49994 11.3399 8.67994 11.3399C8.91494 11.3399 9.15494 11.2649 9.35494 11.1199C9.70994 10.8599 9.88494 10.4299 9.80994 9.99488L9.40994 7.66988C9.39994 7.61988 9.41994 7.56988 9.45494 7.53988L11.1449 5.89488L11.1549 5.88988Z" fill="#01FF1A"/>
</svg>
