<svg width="20" height="22" viewBox="0 0 20 22" fill="none" xmlns="http://www.w3.org/2000/svg">
<g id="Group">
<path id="Vector" d="M19 4H15V3C15 1.35 13.65 0 12 0H8C6.35 0 5 1.35 5 3V4H1C0.45 4 0 4.45 0 5C0 5.55 0.45 6 1 6H2V19C2 20.65 3.35 22 5 22H15C16.65 22 18 20.65 18 19V6H19C19.55 6 20 5.55 20 5C20 4.45 19.55 4 19 4ZM7 3C7 2.45 7.45 2 8 2H12C12.55 2 13 2.45 13 3V4H7V3ZM16 19C16 19.55 15.55 20 15 20H5C4.45 20 4 19.55 4 19V6H16V19Z" fill="#98A2B3"/>
<path id="Vector_2" d="M8 9C7.45 9 7 9.45 7 10V16C7 16.55 7.45 17 8 17C8.55 17 9 16.55 9 16V10C9 9.45 8.55 9 8 9Z" fill="#98A2B3"/>
<path id="Vector_3" d="M12 9C11.45 9 11 9.45 11 10V16C11 16.55 11.45 17 12 17C12.55 17 13 16.55 13 16V10C13 9.45 12.55 9 12 9Z" fill="#98A2B3"/>
</g>
</svg>
