<svg width="14" height="14" viewBox="0 0 14 14" fill="none" xmlns="http://www.w3.org/2000/svg">
<g id="Group">
<path id="Vector" d="M6.75838 3.075L4.25838 0.574996C4.18338 0.499996 4.09171 0.433329 3.98338 0.391663C3.78338 0.308329 3.55005 0.308329 3.35005 0.391663C3.25005 0.433329 3.15838 0.491662 3.07505 0.574996L0.575049 3.075C0.250049 3.4 0.250049 3.925 0.575049 4.25C0.741715 4.41666 0.950048 4.49166 1.16671 4.49166C1.38338 4.49166 1.59171 4.40833 1.75838 4.25L2.83338 3.175V8.66666C2.83338 9.125 3.20838 9.5 3.66671 9.5C4.12505 9.5 4.50005 9.125 4.50005 8.66666V3.175L5.57505 4.25C5.74172 4.41666 5.95005 4.49166 6.16671 4.49166C6.38338 4.49166 6.59171 4.40833 6.75838 4.25C7.08338 3.925 7.08338 3.4 6.75838 3.075Z" fill="white"/>
<path id="Vector_2" d="M13.425 9.74167C13.1 9.41667 12.575 9.41667 12.25 9.74167L11.175 10.8167V5.325C11.175 4.86667 10.8 4.49167 10.3417 4.49167C9.88338 4.49167 9.50838 4.86667 9.50838 5.325V10.8167L8.43338 9.74167C8.10838 9.41667 7.58338 9.41667 7.25838 9.74167C6.93338 10.0667 6.93338 10.5917 7.25838 10.9167L9.75838 13.4167C9.83338 13.4917 9.92504 13.5583 10.0334 13.6C10.1334 13.6417 10.2417 13.6667 10.35 13.6667C10.4584 13.6667 10.5667 13.6417 10.6667 13.6C10.7667 13.5583 10.8584 13.5 10.9417 13.4167L13.4417 10.9167C13.7667 10.5917 13.7667 10.0667 13.4417 9.74167H13.425Z" fill="white"/>
</g>
</svg>
