<svg width="15" height="14" viewBox="0 0 15 14" fill="none" xmlns="http://www.w3.org/2000/svg">
<path id="Vector" d="M8.41031 7L13.7003 1.71C14.0903 1.32 14.0903 0.69 13.7003 0.3C13.3103 -0.0900003 12.6803 -0.0900003 12.2903 0.3L7.00031 5.59L1.71032 0.3C1.32032 -0.0900003 0.690313 -0.0900003 0.300312 0.3C-0.0896875 0.69 -0.0896875 1.32 0.300312 1.71L5.59031 7L0.300312 12.29C-0.0896875 12.68 -0.0896875 13.31 0.300312 13.7C0.500313 13.9 0.750304 13.99 1.0103 13.99C1.2703 13.99 1.52031 13.89 1.72031 13.7L7.0103 8.41L12.3003 13.7C12.5003 13.9 12.7503 13.99 13.0103 13.99C13.2703 13.99 13.5203 13.89 13.7203 13.7C14.1103 13.31 14.1103 12.68 13.7203 12.29L8.4303 7H8.41031Z" fill="white"/>
</svg>
